<svg xmlns="http://www.w3.org/2000/svg" xmlns:xlink="http://www.w3.org/1999/xlink" viewBox="0 0 72 70.2"><defs><style>.cls-1,.cls-3{fill-rule:evenodd;}.cls-1{fill:url(#linear-gradient);}.cls-2{fill:#241d1b;}.cls-3{fill:#fff;}</style><linearGradient id="linear-gradient" y1="13972.33" x2="72" y2="13972.33" gradientTransform="translate(0 -13937.23)" gradientUnits="userSpaceOnUse"><stop offset="0" stop-color="#666"/><stop offset="0.5" stop-color="#ccc"/><stop offset="1" stop-color="#666"/></linearGradient></defs><g id="Layer_2" data-name="Layer 2"><g id="Layer_1-2" data-name="Layer 1"><path class="cls-1" d="M0,0V70.2H72V0ZM5.4,5.4H66.6V64.8H5.4Z"/><rect class="cls-2" x="5.4" y="5.4" width="61.2" height="59.4"/><path class="cls-3" d="M27.6,18.75a15.28,15.28,0,0,1,6.24,1c.18.09.21.18.21.45v4c0,.3-.18.3-.3.27a15,15,0,0,0-6-1.11c-6.12,0-10.35,3.87-10.35,10.26,0,8.07,5.79,10.26,10.2,10.26a17.41,17.41,0,0,0,6.45-1.2c.18-.09.3,0,.3.27v3.87c0,.27-.06.45-.3.54a17.29,17.29,0,0,1-7.38,1.35c-7.56,0-14.79-4.29-14.79-14.94C11.88,25.38,18,18.75,27.6,18.75Z"/><path class="cls-3" d="M38.7,46.47a.65.65,0,0,1-.3-.66V41.58c0-.21.18-.36.36-.21a16.19,16.19,0,0,0,9,2.88c3.48,0,4.77-1.56,4.77-3.3s-.9-2.85-5.7-4.89c-6.09-2.58-8.16-4.86-8.16-9.09s3.51-8.16,10.26-8.16a15.27,15.27,0,0,1,7.23,1.59.57.57,0,0,1,.27.54v4c0,.18-.18.3-.39.18a14.35,14.35,0,0,0-7.2-2c-4.05,0-4.8,2.13-4.8,3.33,0,1.59.84,2.82,5.31,4.68,7.14,2.94,8.7,5.49,8.7,9.27,0,5.13-4,8.34-10.47,8.34C44.31,48.72,40.89,48,38.7,46.47Z"/></g></g></svg>