<svg xmlns="http://www.w3.org/2000/svg" xmlns:xlink="http://www.w3.org/1999/xlink" viewBox="0 0 72 69.94"><defs><style>.cls-1{fill:url(#radial-gradient);}.cls-2{fill:#ff7f18;}</style><radialGradient id="radial-gradient" cx="36" cy="33.91" r="36" gradientTransform="translate(0 2.03) scale(1 0.97)" gradientUnits="userSpaceOnUse"><stop offset="0" stop-color="#423325" stop-opacity="0.98"/><stop offset="1" stop-color="#1c0a00"/></radialGradient></defs><g id="Layer_2" data-name="Layer 2"><g id="Layer_1-2" data-name="Layer 1"><path class="cls-1" d="M9.06,0H63s9,.06,9,8.83V61.2c0,8.74-9,8.74-9,8.74H9s-9,0-9-8.73V8.82C0,.06,9.06,0,9.06,0Z"/><path class="cls-2" d="M34.09,38.54c-.88-3.5-3-11.12-3.76-14.82h-.06c-.66,3.68-2.33,9.93-3.65,14.82ZM48.42,27.42a10,10,0,0,0,.37.93h4.85c.25,0,.37.09.37.36V52.09c0,.24-.06.35-.37.35H48.85c-.31,0-.4-.14-.4-.38V27.42Zm-.35-6.74a3.18,3.18,0,1,1,6.35,0,3,3,0,0,1-3.23,3.17A2.91,2.91,0,0,1,48.07,20.68ZM25.6,43.18l-2.36,9c-.06.24-.14.3-.44.3H17.91c-.31,0-.37-.09-.31-.46l8.83-30.92a10.13,10.13,0,0,0,.32-2.59c0-.22.09-.31.25-.31h6.53c.23,0,.32.06.38.31L43.81,52c.06.25,0,.4-.26.4H38.08c-.24,0-.39-.06-.44-.27l-2.46-9Z"/></g></g></svg>