<svg xmlns="http://www.w3.org/2000/svg" xmlns:xlink="http://www.w3.org/1999/xlink" viewBox="0 0 72 30.82"><defs><style>.cls-1{fill-rule:evenodd;fill:url(#linear-gradient);}.cls-2{fill:#0c4c75;}</style><linearGradient id="linear-gradient" x1="-1151.99" y1="-596.75" x2="-1151.01" y2="-596.75" gradientTransform="translate(-18375.89 35543.01) rotate(90) scale(30.85)" gradientUnits="userSpaceOnUse"><stop offset="0" stop-color="#70b0df"/><stop offset="0.5" stop-color="#1b81c5"/><stop offset="1" stop-color="#4a98ce"/></linearGradient></defs><g id="Layer_2" data-name="Layer 2"><g id="Layer_1-2" data-name="Layer 1"><path class="cls-1" d="M24,.25a4.79,4.79,0,0,0-4.81,4.8V17H19l-2.35-2L14.8,16.86l6.08,6.08,6.18-6.08-2.13-1.92-2,2h-.23V5.36A2.65,2.65,0,0,1,25.35,2.7h2.11a2.65,2.65,0,0,1,2.66,2.66V6.6h4.11V5.05A4.79,4.79,0,0,0,29.42.25Zm8.24,7.62L26,14l2.13,1.93,2-2h.22V25.46a2.65,2.65,0,0,1-2.66,2.66H25.62A2.66,2.66,0,0,1,23,25.46V24.22H18.85v1.54a4.81,4.81,0,0,0,4.81,4.81h5.46a4.81,4.81,0,0,0,4.81-4.81V13.86h.16l2.35,2L38.28,14ZM54,14.46l6,7.62L53.4,30.13h5.51l3.67-5.3,3.74,5.3h5.17L65,22l6.13-7.54H66l-3.5,5-3.3-5Zm-46.71,0L.38,30.08H4.93l1.35-3.3h7l1.35,3.3h4.54l-7-15.57Zm33.7,0-7,15.57h4.54L40,26.78h7l1.35,3.3h4.54l-7-15.57ZM9.8,18.18l1.18,3,1.17,3H7.45l1.17-3Zm33.7,0,1.17,3,1.18,3h-4.7l1.17-3Z"/><path class="cls-2" d="M24,.25V0a5.05,5.05,0,0,0-5.06,5.05V17h.25v-.24h-.07L16.63,14.6l-2.18,2.27,6.43,6.42,6.54-6.43-2.5-2.26-2.11,2.12h-.12V17h.25V5.36A2.4,2.4,0,0,1,25.35,3h2.11a2.41,2.41,0,0,1,2.42,2.41V6.84h4.6V5.05a5.05,5.05,0,0,0-5.06-5H24V.49h5.45A4.55,4.55,0,0,1,34,5.05v1.3H30.37v-1a2.91,2.91,0,0,0-2.91-2.91H25.35a2.9,2.9,0,0,0-2.9,2.91V17.21H23l1.92-1.93,1.76,1.59-5.82,5.72-5.73-5.73,1.52-1.58,2.24,1.92h.5V5.05A4.55,4.55,0,0,1,24,.49Zm8.24,7.62L32,7.7,25.67,14l2.5,2.26,2.1-2.12h.12v-.25h-.24V25.46a2.41,2.41,0,0,1-2.42,2.41H25.62a2.4,2.4,0,0,1-2.41-2.41V24h-4.6v1.79a5,5,0,0,0,5.05,5.06h5.46a5,5,0,0,0,5.05-5.06V13.86h-.24v.25H34l2.46,2.1L38.63,14,32.21,7.53,32,7.7l.17.17L32,8.05,37.94,14l-1.52,1.59-2.24-1.93h-.5V25.76a4.55,4.55,0,0,1-4.56,4.56H23.66a4.55,4.55,0,0,1-4.56-4.56V24.47h3.62v1a2.89,2.89,0,0,0,2.9,2.9h2.11a2.9,2.9,0,0,0,2.91-2.9V13.61h-.57l-1.92,1.92-1.76-1.59,6-5.89-.17-.18L32,8.05ZM54,14.46l-.19.15,5.88,7.46-6.86,8.31H59l3.55-5.12,3.62,5.12H72L65.28,22l6.33-7.8H65.87L62.51,19l-3.17-4.78H53.53l.32.4.19-.15v.25h5l3.43,5.15,3.63-5.15h4.44L64.64,22,71,29.88H66.45L62.57,24.4l-3.79,5.48H53.92l6.44-7.8-6.12-7.77-.2.15v0Zm-46.71,0-.23-.1L0,30.32H5.09L6.44,27h6.65l1.35,3.3h5.09l-7.18-16H7.17l-.07.14.23.1v.25H12l6.74,15.07h-4l-1.36-3.3H6.11l-1.35,3.3h-4L7.55,14.62l-.22-.11v0Zm33.7,0-.23-.1L33.7,30.32h5.09L40.14,27h6.65l1.35,3.3h5.09l-7.18-16H40.87l-.07.14.23.1v.25h4.7l6.74,15.07h-4l-1.36-3.3H39.81l-1.35,3.3h-4l6.79-15.21L41,14.51v0ZM9.8,18.18l-.23.09,1.18,3,1,2.63h-4l1-2.63,1.18-3-.23-.09-.23.09.23-.09-.23-.09-1.18,3-1.3,3.3h5.43l-1.31-3.3L9.8,17.51l-.23.58Zm33.7,0-.23.09,1.18,3,1,2.63h-4l1-2.63,1.18-3-.23-.09-.23.09.23-.09-.23-.09-1.18,3-1.3,3.3h5.43l-1.32-3.3-1.4-3.54-.23.58Z"/></g></g></svg>