<svg xmlns="http://www.w3.org/2000/svg" viewBox="0 0 67.85 72"><defs><style>.cls-1{fill:#e23237;}.cls-2{fill:#b52e31;}</style></defs><g id="Layer_2" data-name="Layer 2"><g id="Layer_1-2" data-name="Layer 1"><path class="cls-1" d="M33.48,0,0,11.93,5.12,56.25,33.48,72,62.29,56l5.56-44.32ZM48,54.84,43.36,44.23H24.65L20.46,54.71l-7.79.13L33.53,8.41,55.4,55Z"/><polygon class="cls-1" points="33.53 38.03 33.87 38.03 40.63 38.03 33.58 23.28 27.38 38.03 33.53 38.03"/><polygon class="cls-2" points="33.87 38.03 40.63 38.03 33.58 23.28 33.48 23.54 33.48 38.03 33.53 38.03 33.87 38.03"/><polygon class="cls-2" points="33.48 0 33.48 8.53 33.53 8.41 55.4 54.98 47.95 54.84 43.36 44.23 33.58 44.23 33.55 44.23 33.48 44.23 33.48 72 62.29 56.06 67.85 11.72 33.48 0"/></g></g></svg>