<svg xmlns="http://www.w3.org/2000/svg" viewBox="0 0 68.63 72"><g id="Layer_2" data-name="Layer 2"><g id="Layer_1-2" data-name="Layer 1"><g id="_1C58Y7.tif" data-name="1C58Y7.tif"><path d="M38.11,0h1c2.16,1.08,4.26,2.26,6.47,3.2A42.12,42.12,0,0,1,57.45,11,33.14,33.14,0,0,1,68.2,31.33c.18,1.27.29,2.55.43,3.83v2.11c0,.24-.09.49-.13.74-.24,2-.39,4-.76,6a29.45,29.45,0,0,1-6.23,13.79c-6.78,8.12-15.7,12.24-26,13.77-1.29.2-2.59.3-3.89.45H28.12c-.3,0-.59-.11-.89-.13a33.84,33.84,0,0,1-11.06-2.41A23.38,23.38,0,0,1,2.62,56,40.35,40.35,0,0,1,.05,43,57.23,57.23,0,0,1,2.14,25,39.2,39.2,0,0,1,9.39,10.16a15.68,15.68,0,0,1,9.54-5.84A132.91,132.91,0,0,1,34.07,2.69l1.7-.11c0-.19-.09-.22-.14-.26-1-.63-1-.86.08-1.38A23.9,23.9,0,0,1,38.11,0ZM32.5,67.15c2.07-.2,4.15-.35,6.21-.61a25,25,0,0,0,16.6-9.37,34.48,34.48,0,0,0,8-26.95A25.2,25.2,0,0,0,57,16.43c-2.32-2.63-5.3-4.27-8.32-5.9a1.78,1.78,0,0,0-1.81-.1,3.58,3.58,0,0,1-3.79-.15c-1.21-.78-2.56-1.36-3.85-2A16.53,16.53,0,0,0,29.3,6.64,44.15,44.15,0,0,0,17.68,9.78a14.52,14.52,0,0,0-4.23,2.72A25.22,25.22,0,0,0,7.17,22.77a47.43,47.43,0,0,0-2.59,13A48.86,48.86,0,0,0,5.73,50.25c1.65,7,5.87,11.64,12.54,14.19A43.17,43.17,0,0,0,32.5,67.15Z"/><path d="M32.88,53.85a23.73,23.73,0,0,1-13.05-4.28,12.79,12.79,0,0,1-5.68-8.91,8.44,8.44,0,0,1-.07-1.81,1,1,0,0,1,.55-.67c.23-.06.56.17.81.33s.16.28.2.44A11,11,0,0,0,21,45.46c6.57,3.93,13.53,4.89,20.82,2.34a18.1,18.1,0,0,0,8.57-6.45c.31-.41.58-1.1,1.23-.78s.25.92.16,1.4c-.92,5.18-4.16,8.39-8.86,10.31A25,25,0,0,1,32.88,53.85Z"/><path d="M22.07,32.77a2.94,2.94,0,0,1-2.9-2,3.73,3.73,0,0,1,.8-4,3.21,3.21,0,0,1,5,2,4.48,4.48,0,0,1,.08,1.46A2.63,2.63,0,0,1,22.07,32.77Z"/><path d="M44.93,26.6A3.15,3.15,0,0,1,48,29.76a3.49,3.49,0,0,1-3.33,3.41c-1.63,0-2.92-1.51-2.93-3.46A3,3,0,0,1,44.93,26.6Z"/></g></g></g></svg>