<svg xmlns="http://www.w3.org/2000/svg" viewBox="0 0 72 72"><defs><style>.cls-1{fill:#563d7c;}.cls-2{fill:#fff;}</style></defs><g id="Layer_2" data-name="Layer 2"><g id="Layer_1-2" data-name="Layer 1"><path class="cls-1" d="M0,62.72A9.29,9.29,0,0,0,9.28,72H62.72A9.29,9.29,0,0,0,72,62.72V9.28A9.29,9.29,0,0,0,62.72,0H9.28A9.29,9.29,0,0,0,0,9.28Z"/><path class="cls-2" d="M29.86,31.85V21.65h9a13.2,13.2,0,0,1,2.47.22,6,6,0,0,1,2.11.76,4.08,4.08,0,0,1,1.47,1.53,5.11,5.11,0,0,1,.55,2.5,4.62,4.62,0,0,1-1.65,4,6.94,6.94,0,0,1-4.22,1.22ZM20.27,14.2V57.8H41.4a22.31,22.31,0,0,0,5.71-.74,15.17,15.17,0,0,0,4.94-2.25,11.12,11.12,0,0,0,3.45-3.94,12.06,12.06,0,0,0,1.28-5.71,12.08,12.08,0,0,0-2-7,10.43,10.43,0,0,0-6-4.06,10.86,10.86,0,0,0,4.43-3.61A9.5,9.5,0,0,0,54.71,25a11.73,11.73,0,0,0-1-5.13,8.45,8.45,0,0,0-2.84-3.33,12.41,12.41,0,0,0-4.4-1.8,27.54,27.54,0,0,0-5.67-.55Zm9.59,36.15v-12H40.3a8,8,0,0,1,5,1.44q1.91,1.43,1.9,4.79a6.1,6.1,0,0,1-.58,2.81,4.69,4.69,0,0,1-1.56,1.74,6.62,6.62,0,0,1-2.26.91,12.33,12.33,0,0,1-2.69.28Z"/></g></g></svg>