<svg xmlns="http://www.w3.org/2000/svg" viewBox="0 0 71.98 53.09"><defs><style>.cls-1{fill:#da1f26;}</style></defs><g id="Layer_2" data-name="Layer 2"><g id="Layer_1-2" data-name="Layer 1"><path class="cls-1" d="M72,25.36v2.37c0,.13,0,.26-.07.38-.12,1-.2,2.07-.37,3.09A25.36,25.36,0,0,1,68,40.48a26.37,26.37,0,0,1-10.94,9.91,25.38,25.38,0,0,1-8.43,2.48l-2,.22H21.41A2.66,2.66,0,0,0,21,53a21.4,21.4,0,0,1-7.34-1.77A22.37,22.37,0,0,1,2.31,40.45a21.18,21.18,0,0,1-2.1-7L0,31.68v-2.3c0-.12.06-.25.07-.38a21.13,21.13,0,0,1,1.38-6.42A22.4,22.4,0,0,1,12.66,10.26,22,22,0,0,1,21.44,8,24.31,24.31,0,0,1,26,8.2a.65.65,0,0,0,.43-.14,26.44,26.44,0,0,1,7.37-5.34A25.63,25.63,0,0,1,42.22.22L44.32,0h2.16c.14,0,.28.05.42.06,1.07.13,2.15.21,3.2.38a25.47,25.47,0,0,1,9.22,3.5,26.36,26.36,0,0,1,9.95,11,25.53,25.53,0,0,1,2.5,8.44l.21,2M31.73,10c.05.05.06.08.08.09A27.91,27.91,0,0,1,36,12.68a.47.47,0,0,0,.4,0,16.61,16.61,0,0,1,22.1,3.8,15.73,15.73,0,0,1,3.25,12.8,16.34,16.34,0,0,1-4,8.44A16.08,16.08,0,0,1,43,43.1a15.51,15.51,0,0,1-9.25-4.62q-5-5-9.91-9.94a2.65,2.65,0,0,0-1.57-.88,2.49,2.49,0,0,0-2.59,1.41,2.3,2.3,0,0,0,.56,2.8c3.68,3.62,7.33,7.26,11,10.88a16.67,16.67,0,0,0,2,1.72,19.23,19.23,0,0,0,9,3.46,21.73,21.73,0,0,0,7.67-.3A21.62,21.62,0,0,0,66.69,29.45a21.12,21.12,0,0,0-.2-7,20.62,20.62,0,0,0-4.86-10A21.13,21.13,0,0,0,43.42,5.19,20.26,20.26,0,0,0,35.5,7.52,21.13,21.13,0,0,0,31.73,10M30,48.05l-.3-.28c-1.51-1.42-3-2.84-4.51-4.28a1.24,1.24,0,0,0-1-.4,18.36,18.36,0,0,1-4.5-.29,12.59,12.59,0,0,1,5-24.67,12.22,12.22,0,0,1,6.82,3.53c2.31,2.38,4.68,4.69,7,7.05a2.12,2.12,0,0,0,1.88.68,2.36,2.36,0,0,0,2.05-1.52,2.25,2.25,0,0,0-.52-2.49c-2.45-2.48-4.84-5-7.38-7.4a16.72,16.72,0,0,0-17.21-4,17.46,17.46,0,0,0,5.32,34.1h6.89l.41,0"/></g></g></svg>