<svg xmlns="http://www.w3.org/2000/svg" viewBox="0 0 64.06 72"><defs><style>.cls-1{fill:#2659a5;}.cls-2{fill:#449bd6;}</style></defs><g id="Layer_2" data-name="Layer 2"><g id="Layer_1-2" data-name="Layer 1"><path class="cls-1" d="M0,0,6,65l26,7,26-7,6-65ZM51.16,21.07,32,29.25l0,0H50.48L48.36,53.61,32,58.37h0L15.59,53.52,14.53,41.26h8.15l.53,6.35,8.72,2.2.07,0h0l9-2.54L41.66,37,32,37h0l-18-.06-.62-7.67L32,21.52l1.09-.45H12.67l-1-7.85H52Z"/><polygon class="cls-2" points="32.03 21.07 32.03 21.51 33.09 21.07 32.03 21.07"/><polygon class="cls-2" points="32.03 5.26 32.03 13.22 51.95 13.22 51.16 21.07 32.03 29.24 32.03 29.27 50.48 29.27 48.37 53.61 32.03 58.37 32.03 58.37 32.03 66.42 32.09 66.43 53.15 60.77 58.01 5.26 32.03 5.26"/><polygon class="cls-2" points="41.66 37.03 32.03 37 32.03 49.79 41.04 47.26 41.66 37.03"/></g></g></svg>