<svg xmlns="http://www.w3.org/2000/svg" viewBox="0 0 55.18 72.1"><defs><style>.cls-1{fill:#009bdd;}</style></defs><g id="Layer_2" data-name="Layer 2"><g id="Layer_1-2" data-name="Layer 1"><path class="cls-1" d="M38.94,15.36C33.87,10.29,29,5.45,27.59,0c-1.44,5.45-6.28,10.29-11.35,15.36C8.63,23,0,31.58,0,44.5a27.59,27.59,0,1,0,55.18,0c0-12.92-8.62-21.54-16.24-29.14M11.73,50.93c-1.69,0-7.94-10.82,3.64-22.27L23,37A.66.66,0,0,1,23,38c-1.83,1.87-9.63,9.69-10.6,12.39-.2.56-.49.54-.66.53M27.59,65.12a9.49,9.49,0,0,1-9.49-9.49,9.89,9.89,0,0,1,2.37-6.27c1.71-2.09,7.12-8,7.12-8l7.11,8a9.28,9.28,0,0,1,2.38,6.29,9.49,9.49,0,0,1-9.49,9.49M45.75,49.73c-.2.45-.67,1.19-1.29,1.22-1.12,0-1.24-.54-2.06-1.76C40.59,46.51,24.78,30,21.82,26.8,19.22,24,21.46,22,22.49,21l5.1-5.1S38.91,26.61,43.62,34s3.09,13.68,2.13,15.78"/></g></g></svg>