<svg xmlns="http://www.w3.org/2000/svg" viewBox="0 0 48 72"><defs><style>.cls-1{fill:#0acf83;}.cls-2{fill:#a259ff;}.cls-3{fill:#f24e1e;}.cls-4{fill:#ff7262;}.cls-5{fill:#1abcfe;}</style></defs><g id="Layer_2" data-name="Layer 2"><g id="Layer_1-2" data-name="Layer 1"><path class="cls-1" d="M12,72A12,12,0,0,0,24,60V48H12a12,12,0,0,0,0,24Z"/><path class="cls-2" d="M0,36A12,12,0,0,1,12,24H24V48H12A12,12,0,0,1,0,36Z"/><path class="cls-3" d="M0,12A12,12,0,0,1,12,0H24V24H12A12,12,0,0,1,0,12Z"/><path class="cls-4" d="M24,0H36a12,12,0,0,1,0,24H24Z"/><path class="cls-5" d="M48,36A12,12,0,1,1,36,24,12,12,0,0,1,48,36Z"/></g></g></svg>