<svg xmlns="http://www.w3.org/2000/svg" viewBox="0 0 72 72"><defs><style>.cls-1{fill:#de4c36;}</style></defs><g id="Layer_2" data-name="Layer 2"><g id="Layer_1-2" data-name="Layer 1"><path class="cls-1" d="M70.64,32.79,39.21,1.36a4.64,4.64,0,0,0-6.56,0L26.12,7.89l8.28,8.28a5.51,5.51,0,0,1,7,7l8,8a5.51,5.51,0,1,1-3.31,3.11l-7.44-7.44V46.42a5.79,5.79,0,0,1,1.46,1,5.52,5.52,0,1,1-7.8,0,5.62,5.62,0,0,1,1.8-1.2V26.49a5.22,5.22,0,0,1-1.8-1.2,5.5,5.5,0,0,1-1.19-6l-8.17-8.17L1.36,32.65a4.64,4.64,0,0,0,0,6.56L32.79,70.64a4.64,4.64,0,0,0,6.56,0L70.64,39.35a4.64,4.64,0,0,0,0-6.56"/></g></g></svg>