<svg xmlns="http://www.w3.org/2000/svg" viewBox="0 0 72 69.93"><defs><style>.cls-1{fill:#6e5595;}</style></defs><g id="Layer_2" data-name="Layer 2"><g id="Layer_1-2" data-name="Layer 1"><path class="cls-1" d="M67.17,17.85a35.77,35.77,0,0,0-13.1-13A35.3,35.3,0,0,0,36,0,35.3,35.3,0,0,0,17.93,4.81a35.7,35.7,0,0,0-13.1,13A34.93,34.93,0,0,0,0,35.84,34.73,34.73,0,0,0,6.87,56.91a35.17,35.17,0,0,0,17.74,13,2.06,2.06,0,0,0,1.87-.33,1.81,1.81,0,0,0,.61-1.4c0-.09,0-.93,0-2.52s0-3,0-4.15L26,61.65a13.92,13.92,0,0,1-2.6.16,18.67,18.67,0,0,1-3.26-.33A7.16,7.16,0,0,1,17,60.08a5.83,5.83,0,0,1-2.06-2.87l-.47-1.07A12,12,0,0,0,13,53.76a5.61,5.61,0,0,0-2-1.77l-.33-.23a3.62,3.62,0,0,1-.61-.57,2.76,2.76,0,0,1-.42-.65q-.13-.33.24-.54a3.08,3.08,0,0,1,1.36-.2l.93.13a7,7,0,0,1,2.32,1.12,7.69,7.69,0,0,1,2.28,2.43,8.19,8.19,0,0,0,2.6,2.92,5.51,5.51,0,0,0,3.07,1A13.76,13.76,0,0,0,25,57.17a9.68,9.68,0,0,0,2.11-.7,7.54,7.54,0,0,1,2.3-4.81,32.94,32.94,0,0,1-4.81-.84A18.94,18.94,0,0,1,20.23,49a12.52,12.52,0,0,1-3.78-3.13A15,15,0,0,1,14,41a23.18,23.18,0,0,1-1-7,13.6,13.6,0,0,1,3.7-9.61q-1.73-4.24.33-9.52a6.59,6.59,0,0,1,4,.63A29,29,0,0,1,25,17.26c.83.5,1.49.92,2,1.27a33.81,33.81,0,0,1,18,0l1.78-1.13a26.71,26.71,0,0,1,4.31-2,6.19,6.19,0,0,1,3.8-.51q2.11,5.28.38,9.52A13.6,13.6,0,0,1,59,34a23.48,23.48,0,0,1-1,7,14.42,14.42,0,0,1-2.49,4.9A13,13,0,0,1,51.73,49a19.18,19.18,0,0,1-4.41,1.82,33,33,0,0,1-4.8.84Q45,53.76,45,58.29v9.84a1.86,1.86,0,0,0,.59,1.4,2,2,0,0,0,1.85.33,35.22,35.22,0,0,0,17.74-13A34.73,34.73,0,0,0,72,35.84a34.93,34.93,0,0,0-4.83-18Z"/></g></g></svg>