<svg xmlns="http://www.w3.org/2000/svg" viewBox="0 0 72 48.98"><defs><style>.cls-1{fill:#f2f2f2;}.cls-2{fill:#febc5b;}.cls-3{fill:#71a0fe;}</style></defs><g id="Layer_2" data-name="Layer 2"><g id="Layer_1-2" data-name="Layer 1"><g id="layer1"><g id="g865"><g id="g14956"><path id="rect14924" class="cls-1" d="M44.08,1.65l-1,.82c-.57.46-1.35,1-1.73,1.26s-.65.55-.61.7a9.68,9.68,0,0,0,2.65.94c2.37.63,7,2.59,6.72,2.85A18.79,18.79,0,0,1,47,7.47,37.47,37.47,0,0,0,33.14,5.83C28.67,6,27.32,6.1,25,6.7c-5.61,1.47-11.19,4.51-14.42,7.85A19.82,19.82,0,0,1,8.2,16.72a1.86,1.86,0,0,1-1.6-.13.63.63,0,0,1-.27-.33,6.92,6.92,0,0,1-.36,1,2.15,2.15,0,0,1,.45,0,3.29,3.29,0,0,1,1.28.21L9,18.4c5.32,3.93,8.19,5.31,11.17,5.36A4.94,4.94,0,0,0,23.37,23a7.22,7.22,0,0,0,1.55-1.18.83.83,0,0,0,.08-.12c.17-.3.32-.38.42-.33,2.4-.62,6.62.05,13.27,2.4h0a19,19,0,0,1,6,1.75c.39.16.5.07.5-.43,0-1.5,1.76-3.48,3.3-3.93h0c2.65-1.51,5.91-1.85,8.8-1.93l-.13,0,1.28-.09a5.76,5.76,0,0,1,5,2.28,6.5,6.5,0,0,0,1.43,1.41c.41,0,.28-1.76-.32-4.64a17.77,17.77,0,0,1-.39-5.62c.11-1.81.07-3-.11-3.1a8.82,8.82,0,0,0-2.57.37c-3.44.82-5,1-5,.61a.15.15,0,0,1,.05-.08A6,6,0,0,1,51.27,9c-1.15-1.1-.58-2.67-1.14-3.83,0,.36-.06.36-.5,0a6.36,6.36,0,0,0-1.92-.82,5.33,5.33,0,0,1-2.52-1.51Z"/><path id="path14839-2" class="cls-2" d="M29.25,15.49c-.1-2.1-.26-4.31-.36-4.9S28.84,9.5,29,9.5s1,1.57,1.39,2.89A3.6,3.6,0,0,0,31,13.62c.4.45.39.55,0,1a2.71,2.71,0,0,0-.48,1.51c0,1.21-.51,3.15-.83,3.15A16.2,16.2,0,0,1,29.25,15.49ZM33,17.82c-.07-.21-.19-2.05-.27-4.08-.13-3.12-.09-3.65.25-3.37a2.65,2.65,0,0,1,.59,1.25,5.67,5.67,0,0,0,.62,1.6,1.15,1.15,0,0,1,.14,1.3,8,8,0,0,0-.48,2C33.66,17.85,33.22,18.54,33,17.82Zm3.52-3.76a32.18,32.18,0,0,1,0-3.68c.18-.22.63.61,1,1.86a3.77,3.77,0,0,0,.62,1.35c.15.1.17.41,0,.72a14.38,14.38,0,0,0-.55,1.81q-.87,3.6-1.09-2.06Zm3.79,1.57a29.54,29.54,0,0,0-.23-3.18,3.71,3.71,0,0,1,0-1.66c.31-.19.78.49,1,1.46a2.82,2.82,0,0,0,.82,1.35l.61.5-.65.46a1.59,1.59,0,0,0-.65,1.14c0,.87-.28,1.59-.61,1.59C40.44,17.29,40.32,16.55,40.3,15.63Zm3.48-.69a23.54,23.54,0,0,0-.18-3c-.25-1.5.25-1.18,1.18.77.61,1.28.66,1.56.32,1.94a2.42,2.42,0,0,0-.49,1.14,1.1,1.1,0,0,1-.46.82c-.26.08-.36-.38-.37-1.71ZM47,13.77c0-2.42,0-2.62.46-2.2.62.62.83,2.55.42,3.81C47.26,17.13,47,16.57,47,13.77Zm3,.49c-.54-.42-.53-.44.3-.36.47,0,.84.2.81.36-.08.47-.52.47-1.11,0Z"/><path id="path14837-1" d="M43.92,0a4.38,4.38,0,0,0-1.8.57c-.66.32-2.15.91-3.3,1.32a28.62,28.62,0,0,0-3.26,1.39c-.93.52-1.65.66-3.71.7a38.47,38.47,0,0,0-21.64,7.09c-3,2.22-4.69,4.86-3.61,5.52a1.9,1.9,0,0,0,1.6.13,19.82,19.82,0,0,0,2.41-2.17C13.84,11.21,19.42,8.17,25,6.7c2.29-.6,3.64-.74,8.11-.87A37.47,37.47,0,0,1,47,7.47a18.79,18.79,0,0,0,3.09.75C50.33,8,45.72,6,43.35,5.37a9.68,9.68,0,0,1-2.65-.94c-.05-.15.22-.46.61-.7s1.16-.8,1.73-1.26l1-.82,1.11,1.14A5.36,5.36,0,0,0,47.71,4.3a6.36,6.36,0,0,1,1.92.82c.44.38.5.38.5,0,0-.55-1-1.44-2.35-2a4.59,4.59,0,0,1-1.59-1.24C45.3.56,44.72,0,43.92,0ZM65.17,6.33c-1,0-8.69,3.58-8.69,4.06s1.58.21,5-.61a8.82,8.82,0,0,1,2.57-.37c.18.11.22,1.29.11,3.1a17.77,17.77,0,0,0,.39,5.62c.6,2.88.72,4.64.32,4.64a6.5,6.5,0,0,1-1.43-1.41,5.76,5.76,0,0,0-5-2.28l-1.28.09,1.9.66c2.1.72,2.76,1.3,4.62,4.1A17.65,17.65,0,0,0,65.27,26c.44.31.62.27,1-.21.17-.2.25-.77.24-2v0c0-.86,0-2-.09-3.41,0-.41,0-.67-.06-1A55.07,55.07,0,0,1,66.43,11C66.69,7.27,66.43,6.33,65.17,6.33ZM18.35,11.85a2.49,2.49,0,0,0-2.12,1.23c-.5.77-.32,1.42.69,2.58.61.7,2,.44,2.85-.55s.8-1.17.07-2.36A1.79,1.79,0,0,0,18.35,11.85Zm-.86,1.42a1.39,1.39,0,0,1,1.13.79c.17.52-1.08.42-1.28-.09a.68.68,0,0,1,0-.64.23.23,0,0,1,.12-.06Zm-11.07,4a2.44,2.44,0,0,0-.48,0l-.06.05c-.33.13-.47.43-.41.9h0a1.41,1.41,0,0,0,.39,1c1.4,1.55,8.56,5.22,11.19,5.74a8.57,8.57,0,0,0,4.21,0c1.64-.35,3.64-1.67,4.12-2.73.37-.82,0-1.38-.38-.64A5.93,5.93,0,0,1,23.37,23a4.94,4.94,0,0,1-3.24.77c-3-.05-5.85-1.43-11.17-5.36L7.7,17.47a3.29,3.29,0,0,0-1.28-.21Zm42.73,3.79c-1.64,0-3.92,2.32-3.92,4,0,.5-.11.59-.51.43-3.92-1.65-6.39-2.13-7.42-1.46-.83.54-1,1.5-.22,1.72.28.08,1.8.3,3.39.48a19.54,19.54,0,0,1,3.32.59,2.22,2.22,0,0,0,1.15.23H45a1.62,1.62,0,0,0,.9-.22h0l.22-.12c.35-.27.5-.79.5-1.69,0-1.37.44-2.05,2.17-3.32.7-.52.76-.64.31-.65Z"/><path id="path14837-1-6" class="cls-3" d="M18.69,22.4l-1-.3,1.8-.34c2.38-.45,3-1,3-2.8,0-1.52.3-1.75,1-.75A2.8,2.8,0,0,1,22,22.36a4.19,4.19,0,0,1-3.29,0Zm39.66-6.21A3.88,3.88,0,0,0,58.09,14c-.56-1.34-.56-1.3.1-1.3.82,0,2.11,1.65,1.89,2.41a4.15,4.15,0,0,1-1.55,2.15C58.25,17.32,58.2,17.07,58.35,16.19ZM48,9.16C42.27,7.32,32.19,7.26,25.39,9c-1.39.36-1.71.37-2,0-.57-.57.46-1.17,3.3-1.91C32.19,6.1,45.74,5.67,50.43,9.62,50.43,9.87,49.83,9.76,48,9.16Z"/></g><g id="text829"><path id="path831" d="M6.11,36.06A10.06,10.06,0,0,1,8,36.22a5.75,5.75,0,0,1,1.6.56l-.36,1.14a7.11,7.11,0,0,0-1.44-.52,6.16,6.16,0,0,0-1.5-.18,6,6,0,0,0-1.84.28A3.87,3.87,0,0,0,3,38.42a4.31,4.31,0,0,0-1.06,1.64,6.66,6.66,0,0,0-.4,2.47,6.92,6.92,0,0,0,.34,2.26,4.62,4.62,0,0,0,1,1.66,4.4,4.4,0,0,0,1.49,1,5.37,5.37,0,0,0,1.92.34,8.26,8.26,0,0,0,1.32-.1,5.71,5.71,0,0,0,1-.26v-4H6V42.33H9.91v6a10,10,0,0,1-1.62.49A10.53,10.53,0,0,1,6.17,49a6.94,6.94,0,0,1-2.39-.41,5.64,5.64,0,0,1-2-1.24,6,6,0,0,1-1.34-2A7.46,7.46,0,0,1,0,42.53a7.77,7.77,0,0,1,.46-2.79,5.39,5.39,0,0,1,1.28-2,5.25,5.25,0,0,1,1.94-1.24A6.81,6.81,0,0,1,6.11,36.06Z"/><path id="path833" d="M12.6,48.8V34.62H14V48.8Z"/><path id="path835" d="M16.87,40.26a7.88,7.88,0,0,1,1.71-.72,6.14,6.14,0,0,1,1.76-.24,4.58,4.58,0,0,1,1.32.18,2.36,2.36,0,0,1,1.06.56,2.49,2.49,0,0,1,.7,1.05,4.36,4.36,0,0,1,.26,1.6V48.8H22.6l-.22-1.13h0a3.76,3.76,0,0,1-1.38,1,4.74,4.74,0,0,1-1.68.29A4.18,4.18,0,0,1,18,48.8a3,3,0,0,1-1-.55A2.8,2.8,0,0,1,16.51,45a2.7,2.7,0,0,1,.84-.94,4,4,0,0,1,1.31-.56,7.12,7.12,0,0,1,1.72-.2h1.9v-.7a2.07,2.07,0,0,0-.56-1.66,2.19,2.19,0,0,0-1.48-.47,5.87,5.87,0,0,0-1.28.17,6.35,6.35,0,0,0-1.56.64Zm5.41,4-1.56,0a4.16,4.16,0,0,0-2.36.58,1.63,1.63,0,0,0-.7,1.32,1.49,1.49,0,0,0,.58,1.32,2.5,2.5,0,0,0,1.38.38A3.52,3.52,0,0,0,21,47.59a3.23,3.23,0,0,0,1.24-1.1Z"/><path id="path837" d="M31.52,40.89a5,5,0,0,0-1.12-.39,4.88,4.88,0,0,0-1.1-.12,2.47,2.47,0,0,0-1.52.39,1.29,1.29,0,0,0-.5,1,1.17,1.17,0,0,0,.38.92,4.49,4.49,0,0,0,1.48.64l.6.18a4.4,4.4,0,0,1,1.88,1,2.21,2.21,0,0,1,.66,1.66,2.51,2.51,0,0,1-.9,2A3.88,3.88,0,0,1,28.8,49a7.86,7.86,0,0,1-1.66-.16,5.25,5.25,0,0,1-1.32-.41l.36-1.1a6.18,6.18,0,0,0,1.16.44,6.45,6.45,0,0,0,1.36.14,2.82,2.82,0,0,0,1.58-.38,1.33,1.33,0,0,0,.58-1.16,1.19,1.19,0,0,0-.46-1,4.17,4.17,0,0,0-1.44-.7l-.64-.2a4.65,4.65,0,0,1-1.84-1,2.14,2.14,0,0,1-.6-1.56,2.36,2.36,0,0,1,.24-1.06A2.4,2.4,0,0,1,26.8,40a3.28,3.28,0,0,1,1-.52,4,4,0,0,1,1.32-.2,8.4,8.4,0,0,1,1.38.12,5.34,5.34,0,0,1,1.34.4Z"/><path id="path839" d="M39.52,40.89a5,5,0,0,0-1.12-.39,4.94,4.94,0,0,0-1.1-.12,2.45,2.45,0,0,0-1.52.39,1.29,1.29,0,0,0-.5,1,1.17,1.17,0,0,0,.38.92,4.49,4.49,0,0,0,1.48.64l.6.18a4.46,4.46,0,0,1,1.88,1,2.21,2.21,0,0,1,.66,1.66,2.51,2.51,0,0,1-.9,2A3.88,3.88,0,0,1,36.8,49a7.86,7.86,0,0,1-1.66-.16,5.25,5.25,0,0,1-1.32-.41l.36-1.1a6.18,6.18,0,0,0,1.16.44,6.38,6.38,0,0,0,1.36.14,2.84,2.84,0,0,0,1.58-.38,1.35,1.35,0,0,0,.58-1.16,1.21,1.21,0,0,0-.46-1,4.37,4.37,0,0,0-1.44-.7l-.64-.2a4.58,4.58,0,0,1-1.84-1,2.14,2.14,0,0,1-.6-1.56,2.36,2.36,0,0,1,.24-1.06A2.4,2.4,0,0,1,34.8,40a3.07,3.07,0,0,1,1-.52,4,4,0,0,1,1.32-.2,8.4,8.4,0,0,1,1.38.12,5.34,5.34,0,0,1,1.34.4Z"/><path id="path841" d="M49.83,36.22V37.4H44.08V42h5.31v1.16H44.08V48.8H42.64V36.22Z"/><path id="path843" d="M51.83,48.8V39.42h1.4V48.8Zm.7-11.8a1,1,0,0,1-.68-.26,1,1,0,0,1,0-1.36.9.9,0,0,1,.68-.28.93.93,0,0,1,.64.26.88.88,0,0,1,.3.7.93.93,0,0,1-.28.7A1,1,0,0,1,52.53,37Z"/><path id="path845" d="M61.33,40.89a5,5,0,0,0-1.12-.39,4.94,4.94,0,0,0-1.1-.12,2.45,2.45,0,0,0-1.52.39,1.29,1.29,0,0,0-.5,1,1.17,1.17,0,0,0,.38.92,4.49,4.49,0,0,0,1.48.64l.6.18a4.46,4.46,0,0,1,1.88,1,2.25,2.25,0,0,1,.65,1.66,2.53,2.53,0,0,1-.89,2,3.88,3.88,0,0,1-2.58.77A7.86,7.86,0,0,1,57,48.82a5.12,5.12,0,0,1-1.32-.41l.36-1.1a6.18,6.18,0,0,0,1.16.44,6.38,6.38,0,0,0,1.36.14,2.84,2.84,0,0,0,1.58-.38,1.35,1.35,0,0,0,.58-1.16,1.21,1.21,0,0,0-.46-1,4.37,4.37,0,0,0-1.44-.7l-.64-.2a4.58,4.58,0,0,1-1.84-1,2.14,2.14,0,0,1-.6-1.56,2.36,2.36,0,0,1,.24-1.06,2.4,2.4,0,0,1,.68-.81,3.07,3.07,0,0,1,1-.52A4,4,0,0,1,59,39.3a8.4,8.4,0,0,1,1.38.12,5.14,5.14,0,0,1,1.33.4Z"/><path id="path847" d="M65.73,48.8h-1.4V34.62h1.4v6a6.22,6.22,0,0,1,1.46-.95,3.79,3.79,0,0,1,1.75-.4,3.52,3.52,0,0,1,1.36.24,2.19,2.19,0,0,1,.94.64,2.45,2.45,0,0,1,.56,1,3.51,3.51,0,0,1,.2,1.2V48.8H70.6V42.71A2.35,2.35,0,0,0,70.06,41a1.94,1.94,0,0,0-1.48-.53,3.23,3.23,0,0,0-1.43.35,6.36,6.36,0,0,0-1.42,1Z"/></g></g></g></g></g></svg>