<svg xmlns="http://www.w3.org/2000/svg" viewBox="0 0 62.11 72"><defs><style>.cls-1{fill:#010101;}.cls-2{fill:#8ac640;}.cls-3{fill:#f0efef;}.cls-4{fill:#0a1825;}.cls-5{fill:#b2b2b2;}.cls-6{fill:#618b2d;}.cls-7{fill:#999;}.cls-8{fill:#537727;}.cls-9{fill:#909090;}</style></defs><g id="Layer_2" data-name="Layer 2"><g id="Layer_1-2" data-name="Layer 1"><path class="cls-1" d="M9.75,31.47A45.44,45.44,0,0,0,1,38.23C-.1,39.55-.43,37.49.72,34.07a22.71,22.71,0,0,1,7.09-9.72c2.27-1.86,7.25-4.54,10.3-6.1a102,102,0,0,1,15.74-5.4c.62-.17-.74,1-.94,1.69C31.83,17.67,10.45,31.1,10.45,31.1l-.7.37M39.87,69.26c.37,2.23,0,2.39-2.27,2.68A6,6,0,0,1,33,70.79a2.6,2.6,0,0,1-.12-3,6.61,6.61,0,0,0,.94-1.9,4.61,4.61,0,0,1,.54-1.4c.16-.28.2-.57.25-2.59s0-5.81.2-7.42,7.34.74,7.34.74-1.69,4.2-2.15,5.24a10.42,10.42,0,0,0-.41,3.42,2.65,2.65,0,0,1-.29,1.27c-.12,0,.42,1.12.17,1.73a7.88,7.88,0,0,0,.41,2.39m2.72-63a13.55,13.55,0,0,1,.33-5.15c1-1.4,6.47-1.56,7.62.08.5.75.46,2.48.38,3.59s-.38,3.5-.42,4.29c0,.57-6,1.48-7.33-.09a9.23,9.23,0,0,1-.58-2.72m12.12,59c2.51,1.81,4.45,2.14,5.72,2.8s1,1.94-1.19,2.31c-1.73.33-4.45-.33-6.26-.33s-5.86.2-6.93-.54a2.27,2.27,0,0,1-.7-2.47,10.23,10.23,0,0,0,.91-4.58,15.69,15.69,0,0,0-1.2-4.08c-.62-1.52-1.07-5.27-.49-5.48s.41,0,1.15.17a12.26,12.26,0,0,0,3.18.41,24.7,24.7,0,0,0,4-.37c.62-.12,1.12-.25.91,1a42,42,0,0,0-.87,5.52A29.72,29.72,0,0,0,53,64c.12.37,1,.78,1.69,1.24"/><path class="cls-2" d="M45.89,10.37c-4.54,3.92-13.31,5-26.34,10C16.22,21.67,7.32,25.5,5.17,29.5c7.21-4.17,9.89,1.56,10.47,7.46.53,5.52,3.3,8.4,10.38,8.24,7.3-.17,9.52,4.08,11.54,9.06,3.92-19.08,10.18-22.79,14.22-26,8.57-7-2-19.25-5.89-17.85"/><path class="cls-2" d="M45.89,10.37C35,14.17,24.25,15.11,11.6,22.9,8.59,24.76,2.25,29,1,37,5.63,31.89,16.3,25.46,29.36,21.38,36,19.32,40.78,18,46.63,15.69c-.41-2.64-.41-3.67-.74-5.32"/><path class="cls-1" d="M59.78,33S59,35.64,57.43,36.5c0,0-1.16.41-3.47-.86a3,3,0,0,1-1.11-2.06,1.94,1.94,0,0,1,.66-1.45S54.17,31,55,31.06s2.11.17,2.52-.2,2.39.74,2.31,2.1M43,7a31.47,31.47,0,0,1-.45,3.42c0,.24-1.28.37-2.19.74,1.73,4.94,12.16,4.9,13.52,2.47a18.51,18.51,0,0,0-2.6-1.4c-.61-.25-.57-.21-.61-1.36S50.5,7.61,50.42,7,44,6.46,43,7"/><path class="cls-3" d="M43.37,7s0,1.19-.12,2.35a10,10,0,0,1-.16,1.27c-.05.25,1.4,1.24,1.81,3.42,2,4.41,6.55,2.23,8.45.13a15.78,15.78,0,0,0-3-1.57c-.62-.25-.33-.78-.37-1.94s-.21-2.84-.29-3.46-5.36-.78-6.35-.2"/><path class="cls-1" d="M43,7s0,.74-.16,1.6c.53.54,1.23,1.28,1.77,1.73.37.33,1.28.29,2.1.29a4.84,4.84,0,0,0,1.69-.08A8.45,8.45,0,0,0,50.5,8.81c0-.74-.08-1.44-.12-1.77,0-.58-6.43-.58-7.42,0"/><path class="cls-1" d="M46.71,10.17a9.36,9.36,0,0,1-1.52-.12,2.81,2.81,0,0,1-.58-.25c-.29-.21-.58-.46-.91-.7-.66-.5-.7-.79-.7-.91a19.15,19.15,0,0,0-.08-4.78S42.63,2.3,44.2,2a19.81,19.81,0,0,1,2.51-.33A13.24,13.24,0,0,1,49.23,2c1.56.29,1.27,1.4,1.27,1.4a19.15,19.15,0,0,0-.08,4.78c0,.12,0,.41-.7.91a5.14,5.14,0,0,1-1.48,1,9.49,9.49,0,0,1-1.53.12"/><path class="cls-1" d="M46.71.61c-2.72,0-3.25.74-4,1.56-.16.21,0,1.45.25,4.08h.37a4.72,4.72,0,0,1-.2-1.6c0-.87.2-.83.08-1s-.5-.66.24-1.08,1.9.33,3.3.38,2.6-.79,3.34-.38.41.83.25,1.08,0,.16.08,1a4.88,4.88,0,0,1-.21,1.6h.37c.25-2.63.42-3.79.29-4C50.13,1.35,49.43.65,46.71.61ZM59.78,33.08S59,35.6,57.47,36.46c-.33-.16-.29-.41-.58-.78-.08-.13-.37-.21-.49-.33s-.09-.33-.29-.5-.29,0-.46-.16-.2-.37-.33-.5-.41-.12-.49-.2-2-.58-1.94-1a3.62,3.62,0,0,1,.5-1.07s.78-1.16,1.56-1.12,1.53.21,1.94-.16S59.9,31.76,59.78,33.08Z"/><path class="cls-1" d="M54.42,14.87a5.13,5.13,0,0,1,4.37,1.07,4.69,4.69,0,0,1,1.11,5.19,4,4,0,0,1,.66,3.79c2.72,2.31,1.52,5.85-.91,8.2a3.2,3.2,0,0,0-2.88-2.26c.08-.83-2.15-1.49-1.12-3.63-1.56-.37-1.52-1.44-1.77-2.76s.54-9.6.54-9.6h0"/><path class="cls-3" d="M53.47,16s3-1.52,4.78.21A4.12,4.12,0,0,1,59,21.17a4,4,0,0,1,.87,3.88c-.13.41-1,.41-1.69,1.48,1.65-1,2.68-.7,3,.49.57,1.86-.7,4.08-1.82,5.32,0,0,0-.08,0-.12a6.3,6.3,0,0,1-1.6,3.13,1.56,1.56,0,0,1-1.82.41,10.69,10.69,0,0,1-2.26-1.19c-.66-.38-.29-.83-.29-1.2a.84.84,0,0,1,.2-.37,3.42,3.42,0,0,1,.7-.91,1.74,1.74,0,0,1,1.32-.7,3.19,3.19,0,0,0,1.82-.33c0-1.44-1.65-1.48-1.08-3.95,0-.13.25-.33.91-.42a3.45,3.45,0,0,1-2.14-.9,3,3,0,0,1-1-1.77c-.25-1.28-.66-8-.66-8"/><path class="cls-1" d="M44.77,13.42a7.4,7.4,0,0,0-4-2.63c-.7-.21-1.16.37-1.86.78-.2-.12-1.11-.54-1.6-.25a12.43,12.43,0,0,1-1.32.79,2.15,2.15,0,0,0-1.44.08,4,4,0,0,0-2.15,1.61c-.49,1.77,8.74.45,8.74.45Z"/><path class="cls-2" d="M44.86,13.42c-1.32-.45-1.12-2-4-2.22-.58,0-1,.41-1.36.7a2.72,2.72,0,0,1,.53.86,3.47,3.47,0,0,0-1.69-1.07c-.61-.12-1,.33-1.69.66a4.44,4.44,0,0,1,.42.58,1.72,1.72,0,0,0-1.78-.21,4.59,4.59,0,0,0-2.34,1.73c-.5,1.78,8.32-.2,8.32-.2Z"/><path class="cls-1" d="M52.6,14.08s0-.45,0-.86c0-.08-.33-.29-.33-.37l-.08-.08a1.55,1.55,0,0,1,1.16-.17,1.67,1.67,0,0,1,.82.87c.95-.33,1,0,1.48.53,1-.2,1.12.17,1.73,1.07a7.34,7.34,0,0,0-2.18.13A3.45,3.45,0,0,1,52.6,14.08Z"/><path class="cls-2" d="M52.44,13.88s.25-.21.16-.25c.46-.25,1.08-.54,1.36.25.95-.33,1.08.12,1.53.62,1.15-.54,1.24.12,1.32.41-.37,0-.91,0-1.65.12A3.8,3.8,0,0,1,52.44,13.88Z"/><path class="cls-1" d="M38.43,12.85a13.25,13.25,0,0,0,4.33.7c2-.17,5.35-.33,7.17.74a6.93,6.93,0,0,1,3.58-.21c1.73.46,4.91,3.42,4,6.56a2.49,2.49,0,0,1-1.24.74A4.24,4.24,0,0,1,56,23.93a13.27,13.27,0,0,0-1.89,6.23c0,.49-.13,1.52-.21,2-3.21-.12-8.16-1.31-13-1.23,0-.54.08-.87.12-1.4h.13c-.25-1.36-.33-2.06-.58-3.09a13.76,13.76,0,0,1-4.62-4.33c-1.36-2.18,2.52-9.27,2.52-9.27M54.34,35.1s2.55,9.15-.46,13a5.45,5.45,0,0,1-.57,3.67c-.17.82-.38,1.57-.5,2.39-.53,3.42-1.44,4.86-1.69,10.34l-2.47,0a25.77,25.77,0,0,0-1.16-6.06c-.49-1.19-2.43-2.8-2.34-4.4.08-1.24.33-2.27,2.43-3.92.16-2.39-2.23-4.66-1.86-13.56l8.62-1.4"/><path class="cls-3" d="M53.59,34.73c.66,4.2,2.19,10.43-.57,13.48a6.35,6.35,0,0,1,0,2.34,9.07,9.07,0,0,1-.46,1.61,15.26,15.26,0,0,0-.7,3.3,58.89,58.89,0,0,0-.78,9.06l-2.47,0a25.63,25.63,0,0,0-1.16-6.05c-.49-1.2-1.52-2.23-1.6-3.84-.08-1.23.78-3.71,2.84-3.62-.12-5-2.43-4-3-14.39l7.91-1.85M38.43,12.85a9.66,9.66,0,0,0,1.89.37,25.08,25.08,0,0,0,3,0c2-.17,4.78-.37,6.64.7a6.41,6.41,0,0,1,2.14-.25,10.79,10.79,0,0,1,1.57.62c1.81.45,3.54,3.46,2.76,6.18-.09.21-.66,0-1.32.21a5.48,5.48,0,0,1-.46,3.29,12,12,0,0,0-1.44,6.68c-4.32-.21-6.26-.5-10.55-.7A24.89,24.89,0,0,1,42,26.08a4.12,4.12,0,0,0,1.36-1,3.19,3.19,0,0,1-2.47-.29,12.21,12.21,0,0,1-2.72-2.6c-.08-.08-.53,1.28-1.56,1.32-.38-.54,1.19-2.06.9-2.64-1-2.1.91-8,.91-8"/><path class="cls-1" d="M53.92,31.31s.09,1.48.09,1.85.33,1.65.37,2.23c-.46.78-2.43,2.55-6,3.21s-8.24-4.82-8.24-4.82c.12-.53.53-2.1.82-2.92a1.49,1.49,0,0,0,.13-.37c.37-.54,12.85.82,12.85.82"/><path class="cls-3" d="M53,31.43a11.36,11.36,0,0,0,.29,2.43,21.93,21.93,0,0,1,.53,2.77c0,2.39-3.13,2-5.77,2.06-3.54.74-6.55-4.83-6.55-4.83a24.64,24.64,0,0,1,.78-2.92c0-.5.13-1.11.17-1.4,5,0,8.57.29,10.63.49a3.65,3.65,0,0,1-.08,1.4"/><path class="cls-1" d="M49.06,36.75s-2.18-4.86-8.74-3.42c-1.56,4.41-3.66,9.48-2.3,15-1.36,1.85-2.93,2.88-2.93,6.3a21.78,21.78,0,0,0,.17,4l4.82.25a14.48,14.48,0,0,0,2.18-4.21,8.83,8.83,0,0,0,.21-3,3.33,3.33,0,0,0,.94-1.94,9.41,9.41,0,0,0,3.71-4.24c1.28-2.73,1-5.07,1.94-8.7h0"/><path class="cls-3" d="M49.06,36.75c-.12-.45-1.77-4.9-7.87-3.59-3.59,9.56-2.27,13.52-1.73,15.25-2.43,3.09-3.55,3.75-3.05,10h3.21a9.54,9.54,0,0,0,1.9-6.31c0-.12-.45.25-.78.66.24-1.28.94-1.52,1.48-2.31A2.41,2.41,0,0,0,42.67,49a10.69,10.69,0,0,0,4.58-6.88c.49-1.73,1.07-4.58,1.81-5.36Z"/><path class="cls-1" d="M38.88,30.11a8.92,8.92,0,0,1,2.1.38,2.14,2.14,0,0,1,1.32.94c.37.42,1.28,1,1.12,1.65-.09.33-.29.41-.58.7-.13.13-1,1.11-1.24,1.24l-.41.29-.62.41a1.91,1.91,0,0,1-1.15.29,2.71,2.71,0,0,1-1.69-.74.63.63,0,0,1,.08-.5,5.66,5.66,0,0,1-1.11-1.24A2,2,0,0,1,36.62,32c.08-.37,1.68-1.4,2.26-1.86m1,40.1-.12,1s-.37.46-3.13.41-3.55-.9-3.79-1.36l-.17-1.07s.54-.78.66-.78c.91.08,4,1.32,6.14,1.65.21,0,.25.08.41.12m6-2.1c0,.45,0,.45,0,.91.49.37,1.73.57,4.08.53a29.21,29.21,0,0,1,4.07.29,21.25,21.25,0,0,0,6.39.08l0-.74-.37,0L46.34,68l-.45.08"/><path class="cls-1" d="M48.9,69.55h1c2.22-.08,4.32.41,6.59.54,1.19,0,2.68-.33,2.55-1.2l-11.7-1c-.7.79-.16,1.45,1.53,1.65M35.46,52.2a12.16,12.16,0,0,0,7,1.53,9,9,0,0,1-1.86,5,13.3,13.3,0,0,0-1.85,6.56c0,.66.41,1.23-.09,2.1a24.52,24.52,0,0,0,1.16,2.26c.33.66.49,1.41-1.69,1.45s-5.81-.21-5.32-1.94c.25-.91.95-1.85,1-2.22a4.07,4.07,0,0,1,.79-2.23,16,16,0,0,0,.28-5.89c-.2-1.94-.24-5,.58-6.6m3.83-33.58c2.93-3.92.46-7-4.24-6.1a4.49,4.49,0,0,0-3.92,4.08c-.61.08-2,.16-2.72,2.72a5.77,5.77,0,0,1-1.77,3.34c-.62.7,0,2.14.5,3.17,1.52,3.54,6.22,3.87,9.39,6.55a4.58,4.58,0,0,0,2.52-2.27c-2.68-3.17-2.11-4.41-3.18-6.05a5.15,5.15,0,0,0,3.42-5.44"/><path class="cls-3" d="M38.72,18.37c.16-.25.45-.78.57-1,0,0,.15.17.27.35s.25.37.27.35c1.11-1.81,1.4-4.45.12-4.7a6.65,6.65,0,0,1-1.27-.33,5.12,5.12,0,0,0-2.89,0c-1.81.33-3.63,1.65-3.63,3.55a3.35,3.35,0,0,1,1.65,2c-.62-.87-1.69-1.82-3-1s-.66,2.84-2.48,4.9c-.62.7-.53,1.53.13,3.17,1.07,2.6,6.14,4,8.9,6.47a3.62,3.62,0,0,0,1.44-1.44,14.64,14.64,0,0,1-3.13-5.07,8.27,8.27,0,0,0-2.85-3.54,7.78,7.78,0,0,1,1.65.82,1.65,1.65,0,0,0,1.4.13c1.78-.62,2.72-3.09,2.81-4.66"/><path class="cls-1" d="M56.64,19c-.12,1.56-1.27.78-1.89.49a9.71,9.71,0,0,0-3.92-.9,20.85,20.85,0,0,0-4.9.53c-2.23.62-2.89.58-3.88.08a29.28,29.28,0,0,1-2.71-1.85,1.42,1.42,0,0,0,.37.95,7.61,7.61,0,0,0,3.33,2,3.76,3.76,0,0,0,2.11-.08c3.66-.91,7.54-1.08,10.79.9.17.08.74-.16,1-.53.33-.54-.29-1.61-.29-1.61"/><path class="cls-4" d="M37.89,34.73a8.77,8.77,0,0,1,1.2.7,1,1,0,0,1-.54-.16A7.47,7.47,0,0,1,37.89,34.73Z"/><path class="cls-3" d="M49.8,2.05c-.12-.37-1-1-3.13-1-2.27,0-2.93.7-3,1.07,0,.13-.16,1.44-.2,2,0,0,0,.66,0,1.65,0,.66.2,1,.29,1.89a4.66,4.66,0,0,0,.78,2.23,2,2,0,0,0,.58.29,8.68,8.68,0,0,0,3.05,0,2.27,2.27,0,0,0,1.15-1.61c.16-.87.33-1.48.37-2s.12-1.73.17-2.06a8.75,8.75,0,0,0-.13-2.39"/><path class="cls-1" d="M45.48,53s2.18.94,7.58.12c0,0-1.53,7.66-.83,11.5,0,0,.7,1,5.9,2.88,0,0,2.3.58,2.22,1.73,0,0,.08.25-2.72.17s-5.44-.58-7.29-.58-3.83.08-4.16-.45.08-1.77.61-2.52.42-1.36.38-2.76C47,59.41,44.24,55.62,45.48,53"/><path class="cls-2" d="M45,53.69c-.29.41,0,2,.46,3.5s1.31,2.43,1.52,4.94.25,2.81-.45,4.25-.91,2.76,1.52,2.8a39.56,39.56,0,0,1,6.22.33,14.11,14.11,0,0,0,4.7.29c1.36-.21,1.65-.66,1.07-1.07s-3-.87-4-1.69-3.8-2-3.84-2.31a43.82,43.82,0,0,1,0-6.47c.21-1.32.5-3.21.58-3.71s.5-1-.2-.82a24.43,24.43,0,0,1-5.32.41A11.07,11.07,0,0,1,45,53.69"/><path class="cls-5" d="M53.61,55.14l0,.26a.55.55,0,0,0,0-.26"/><path class="cls-1" d="M52.82,57.21a.32.32,0,0,0-.13,0l-.27.09c0,.24-.07.47-.11.69a2.29,2.29,0,0,1,0,.25l.4-.12.2-.37s.23-.56-.07-.56M44.9,55.29l-.08,1a2.92,2.92,0,0,0,.46.11c-.09-.38-.18-.75-.24-1.09l-.14-.05m8.43-.35a1.66,1.66,0,0,0-.52.11h0l-.18,1.15.26-.09.66-.62a.39.39,0,0,0,.05-.1l0-.26c0-.11-.08-.2-.28-.2"/><path class="cls-1" d="M52.31,58l0,.25h0a2.29,2.29,0,0,0,0-.25"/><path class="cls-5" d="M45,58.27v.11l0,0v0s0-.07,0-.11"/><path class="cls-1" d="M45,57.35l0,.92s0,.08,0,.11v0a5.19,5.19,0,0,0,.92.15c-.15-.34-.3-.67-.42-1a4.57,4.57,0,0,1-.59-.17"/><path class="cls-5" d="M45.79,69.3v.21l.31,0-.06,0-.26-.21"/><path class="cls-1" d="M46.42,66.42l-.78.17.15,2.71.26.21.06,0c.39,0,1.11.11,1.75.11a3.56,3.56,0,0,0,1-.11,5.94,5.94,0,0,1-3-.53c0-.46,0-.46,0-.91l.17,0a3,3,0,0,1,.38-1.65h0"/><path class="cls-1" d="M46.06,68.08l-.17,0c0,.45,0,.45,0,.91a5.94,5.94,0,0,0,3,.53h0a3.65,3.65,0,0,1-1.41-.41c-.82-.11-1.22-.43-1.34-.87a.54.54,0,0,1-.07-.19"/><path class="cls-1" d="M47.47,69.14a3.65,3.65,0,0,0,1.41.41c.22-.07.32-.18.23-.36h-1a5.32,5.32,0,0,1-.6,0"/><path class="cls-1" d="M46.44,66.43a3,3,0,0,0-.38,1.65.54.54,0,0,0,.07.19,2.75,2.75,0,0,1,.38-1.81l-.07,0"/><path class="cls-5" d="M59.72,70.27l-.18,0,.11,0,.07-.07"/><path class="cls-1" d="M60,70a16.74,16.74,0,0,1-1.7.15l1.2.19.18,0L60,70m0-1.49a1,1,0,0,1,.29.68h.08l0,.47.64-.59s-.43-.26-1-.57"/><path class="cls-1" d="M60.35,69.17v0s0,0,0,0c-.13.22-.55.41-1.32.53a9.32,9.32,0,0,1-1,.1c-.14,0-.3.07-.46.09l.82.14A16.74,16.74,0,0,0,60,70l.37-.33,0-.47h-.08"/><path class="cls-1" d="M58,69.9h-.46a1.27,1.27,0,0,1-.18.06l.18,0c.16,0,.32-.06.46-.09"/><path class="cls-1" d="M57.62,67.45h0c-.44,0-.44.08-.26.26a24.86,24.86,0,0,1,2.73,1c.26.18.34.37.25.54,0,0,0,0,0,0v0a1,1,0,0,0-.29-.68,8,8,0,0,0-2.44-1"/><path class="cls-6" d="M57.33,67.71a6,6,0,0,1,.59.61,1,1,0,0,1-.4,1.58H58a9.32,9.32,0,0,0,1-.1c.77-.12,1.19-.31,1.32-.53s0-.36-.25-.54a24.86,24.86,0,0,0-2.73-1M46.51,66.46a2.75,2.75,0,0,0-.38,1.81c.12.44.52.76,1.34.87a5.32,5.32,0,0,0,.6,0h1A3.83,3.83,0,0,1,48.94,67a6.65,6.65,0,0,1-2.43-.54m5.91-9.14a15.55,15.55,0,0,1-3.81.41H48a12.69,12.69,0,0,1-2.45-.22c.12.36.27.69.42,1,.54.06,1.35.11,2.58.12h.25a13.63,13.63,0,0,0,3.46-.42l0-.25c0-.22.07-.45.11-.69m.35-2.26a17.09,17.09,0,0,1-4.25.6h-.58a10.76,10.76,0,0,1-2.9-.33c.06.34.15.71.24,1.09a21.28,21.28,0,0,0,3.45.27H49a12.53,12.53,0,0,0,3.62-.49l.18-1.15"/><path class="cls-1" d="M42.26,28.47c0,.28,3.22,1.89,5,2.22a25.4,25.4,0,0,0,6.06-.12l-.09.57a22.9,22.9,0,0,1-7.79-.24c-3.38-.91-3-1.12-3-1.12l-.17-1.31"/><path class="cls-3" d="M35.38,63.62a6.82,6.82,0,0,0,3.42.45c.16,0,0-2.84.45-4.12.66-1.77,1.73-3.21,2.23-6.35a25.49,25.49,0,0,1-4.74-.94C35.42,56.7,35.87,60.16,35.38,63.62Zm2.76,2.59c.29.09.49.42.58.21.16-.37-.29-1.07-.33-1.57v0a5.36,5.36,0,0,0-2.72-.2c-.29.53-.74.45-.91,1.52-.08.54.58.08,1.2,0-1.12.75-2.39,1.69-2.6,2.52-.25,1.15.16,1.48,1.4,2.1A13.25,13.25,0,0,0,38.1,71c1.11-.21,1.32-.75,1-1.49A14.4,14.4,0,0,1,38.14,66.21Z"/><path class="cls-1" d="M38.59,12.68a7.25,7.25,0,0,0,4,.54c.16,0,1.81-.29,1.9-.25a.19.19,0,0,1,.16.17,5.34,5.34,0,0,1-2,.41,8.9,8.9,0,0,1-3.75-.41c-1-.46-.25-.46-.25-.46Zm14,.79A10.71,10.71,0,0,1,55.16,15c.62.66.29.62.16.45a9.76,9.76,0,0,0-1.93-1.27,3.68,3.68,0,0,1-1.12-.66C52.27,13.42,52.6,13.47,52.6,13.47Z"/><path class="cls-3" d="M38.39,30.57a4,4,0,0,1,3.21,1c.41.41,1.07.86,1,1.28a2.29,2.29,0,0,1-.45.7c-.13.16-.5.53-.62.66s-.74.57-.87.65-.28.29-.41.33A1.41,1.41,0,0,1,39,35.06c-.41-.21.09-.25-.37-.58-1.11-.78-1.73-1.32-1.27-2.84,0-.29.49-.62,1.07-1.07Z"/><polyline class="cls-7" points="15.64 36.95 15.64 36.95 15.64 36.96 15.64 36.95 15.64 36.95"/><path class="cls-8" d="M27.16,22.1a94.7,94.7,0,0,0-9.56,3.83c-1.81.9-3.45,1.73-4.6,2.33l-.92.51c2.2,1.41,3.23,4.77,3.56,8.17v0h0c0,.33.08.61.12.94a3.69,3.69,0,0,0,.13.62.27.27,0,0,0,0,.17C18,33,24.79,27,26.81,25.08c-.36-.9-.65-1.88-.17-2.42l.52-.56"/><path class="cls-8" d="M13,28.26l-.95.49,0,0,.92-.51m14.78-7.09c-2.27.92-6.56,3-10.18,4.76a94.7,94.7,0,0,1,9.56-3.83,4.19,4.19,0,0,0,.62-.93"/><path class="cls-1" d="M28.92,20.72a8.29,8.29,0,0,0-1,.41l-.1,0a4.19,4.19,0,0,1-.62.93l-.52.56c-.48.54-.19,1.52.17,2.42a4.52,4.52,0,0,0,.57-.57c.17-.25-.2-1.32.37-2.35s1.32-1.44,1.17-1.44"/><path class="cls-7" d="M26.48,45.19l-.46.05h.58c5.19,0,7.65,2.41,9.42,5.66h0c-1.77-3.28-4.29-5.67-9.54-5.69"/><path class="cls-8" d="M38.93,37.3c-2.54,2.72-8.16,7.32-12.45,7.89,5.25,0,7.77,2.41,9.54,5.69.57-.93,1.31-1.65,2-2.59-1-3.9-.19-7.59.91-11"/><path class="cls-1" d="M39.37,36.88s-.08,0-.16.12l-.28.3c-1.1,3.4-1.88,7.09-.91,11-.69.94-1.43,1.66-2,2.59h0c.24.44.46.89.68,1.35,1.89-3.79,1.93-7.41,1.89-11.66,0-1.56,1-3.7.78-3.7"/><path class="cls-1" d="M8.43,32.26c2.35-1.69,14.5-8.16,17.43-9.07s2-2.06,2-2.06S16,26.24,8.92,30.65"/><path class="cls-1" d="M50.19,9.14c-.08.09-.17.17-.26.26,0,.43.06.87.08,1.25a2.56,2.56,0,0,0,.18-1.51"/><path class="cls-9" d="M43.37,9.23a3.56,3.56,0,0,0,2.31,2,6,6,0,0,0,1.77.24A3.4,3.4,0,0,0,50,10.7l0,0c0-.38,0-.82-.08-1.25a7.31,7.31,0,0,1-1.57,1.18,1.5,1.5,0,0,1-.67.1l-1,0h-.5a2.66,2.66,0,0,1-1.6-.3c-.36-.3-.79-.73-1.2-1.14"/><path class="cls-1" d="M50.13,8.74a4.31,4.31,0,0,1-.41.36c-.29.2-.54.42-.79.59l-1.15.93-3.17-.57-.14-.35-.77-.6,0,0h-.38s.05.11.08.17c.41.41.84.84,1.2,1.14a2.66,2.66,0,0,0,1.6.3h.5l1,0a1.5,1.5,0,0,0,.67-.1A7.31,7.31,0,0,0,49.93,9.4c.09-.09.18-.17.26-.26a3.21,3.21,0,0,0-.06-.4"/><path class="cls-1" d="M43.67,9.07l0,0,.77.6-.11-.3a2.1,2.1,0,0,1-.15-.3l-.54,0m6.46-.34-1.2,1c.25-.17.5-.39.79-.59a4.31,4.31,0,0,0,.41-.36h0"/><path class="cls-9" d="M44.21,9.1a2.1,2.1,0,0,0,.15.3l-.12-.3h0"/><path class="cls-1" d="M38.29,22.3a7.45,7.45,0,0,1-.53.58.48.48,0,0,0,.17.43c.66.62,2.35,1.82,2.89,2.48s.66,3.39.75,4.58h.79c0-.18,0-.37.07-.52s0-.06,0-.06l-.17-1.3h0a.37.37,0,0,0,.13.14A20.39,20.39,0,0,1,42,26.08a4.12,4.12,0,0,0,1.36-1h0a6.62,6.62,0,0,1-1.06.1,2.61,2.61,0,0,1-1.41-.39,12.3,12.3,0,0,1-2.61-2.46"/><path class="cls-9" d="M43.37,25.05a4.12,4.12,0,0,1-1.36,1,20.39,20.39,0,0,0,.38,2.54,8.78,8.78,0,0,0,1.5.85c0-.35,0-.72.06-1.13a7.35,7.35,0,0,0-.58-3.29M39.6,18.18c-.09.14-.2.29-.31.44a4.86,4.86,0,0,1-1,3.68,12.3,12.3,0,0,0,2.61,2.46,2.61,2.61,0,0,0,1.41.39,6.62,6.62,0,0,0,1.06-.1c-.64-1.47-1.61-2.2-1.77-2.89-.21-.93.31-1.89,1.08-1.89a1,1,0,0,1,.27.05,7.57,7.57,0,0,1-3.24-2l-.11-.15"/><path class="cls-1" d="M42.12,30.36h-.55c0,.16,0,.28,0,.37a1.79,1.79,0,0,1,.58.54l.13-.34c0-.18,0-.38.06-.58h-.24"/><path class="cls-9" d="M42.43,29.84c0,.15,0,.34-.07.52s0,.4-.06.58l-.13.34.13.15a7.12,7.12,0,0,1,1,1.09,9.7,9.7,0,0,0,.48-2.1c-1.06-.33-1.31-.5-1.36-.58"/><path class="cls-1" d="M41.59,30.74c0,.1,0,.16,0,.16l1.57,2a3,3,0,0,0,.14-.36,7.12,7.12,0,0,0-1-1.09l-.13-.15a1.79,1.79,0,0,0-.58-.54"/><path class="cls-1" d="M39.29,17.38a12,12,0,0,0-.7,3.34c.07.9-.77,1.6-.83,2.16a7.45,7.45,0,0,0,.53-.58,4.86,4.86,0,0,0,1-3.68c.11-.15.22-.3.31-.44a1.52,1.52,0,0,1-.27-.77l0,0"/><polyline class="cls-9" points="43.04 20.35 43.04 20.35 43.04 20.35 43.04 20.35"/><path class="cls-1" d="M39.33,17.41a1.52,1.52,0,0,0,.27.77l.11.15a7.57,7.57,0,0,0,3.24,2,.16.16,0,0,1,.09,0h0l-3.71-2.94"/><path class="cls-1" d="M47.19,45.29l-.07.16c-.1.23-.21.45-.33.67a20.18,20.18,0,0,1,.91,3.82A21.78,21.78,0,0,1,45.57,53a4,4,0,0,0,.53.15A2.83,2.83,0,0,1,48.63,51h.1c-.07-2.74-.79-3.68-1.54-5.68"/><path class="cls-9" d="M48.77,38.67h-.15c-.47,2.53-.46,4.47-1.43,6.61.75,2,1.47,2.94,1.54,5.68h-.1a2.83,2.83,0,0,0-2.53,2.21,12.17,12.17,0,0,0,2.15.26c.24-.43.9-1.58,1.43-2.34.66-1,.29-1.15,0-3.34a80.79,80.79,0,0,1-.91-9.08"/><path class="cls-9" d="M48.77,37.93l-.15.75h.15c0-.25,0-.5,0-.74"/><path class="cls-1" d="M48.77,37.9l-2.22,7.42s.1.32.24.8c.12-.22.23-.44.33-.67l.07-.16c1-2.14,1-4.08,1.43-6.61l.15-.75v0"/><path class="cls-1" d="M45.34,53.31l0,0h0v0"/><path class="cls-1" d="M45.57,53a2.61,2.61,0,0,1-.23.29v0l2.82.24.1-.17a12.17,12.17,0,0,1-2.15-.26,4,4,0,0,1-.53-.15"/><path class="cls-1" d="M42.26,28.48l.17,1.3s0,0,0,.06.3.25,1.36.58c0-.29.08-.6.1-1a8.78,8.78,0,0,1-1.5-.85.37.37,0,0,1-.13-.14m0,0h0"/><path class="cls-2" d="M43.54,11.9A16.63,16.63,0,0,0,48,13.38c.74.17,1.94-.78,2.51-1a2.57,2.57,0,0,1,2.93.66c.12.13-.29.66-.29.66a4.9,4.9,0,0,1-.62-.2,1.82,1.82,0,0,0-1.11-.25c-2.06.25-2.39.95-4.2.53s-2.27-.74-4-.66"/><path class="cls-1" d="M43.45,12a2.84,2.84,0,0,0,.49.27,10.08,10.08,0,0,0,1.08.44c.58.2,1.2.38,1.74.52l.73.18.51.1,0-.16,0,.16a.75.75,0,0,0,.21,0,2,2,0,0,0,.66-.14,6.44,6.44,0,0,0,1-.5l.43-.25.33-.17h0a2.09,2.09,0,0,1,.89-.2,2.25,2.25,0,0,1,.86.18,3.25,3.25,0,0,1,1,.65l.11-.12-.11.12.06-.07-.08,0,0,0,.06-.07-.08,0,0,0h0l0,0h-.06v0a1.47,1.47,0,0,1-.06.14,2.11,2.11,0,0,1-.14.22l-.06.08v0h0l0,0,0,0h0l0,0,0,0,.13.1.12-.11,0,0-.06,0-.11,0a.9.9,0,0,1-.19-.05,1,1,0,0,1-.25-.1,3.17,3.17,0,0,0-.46-.19,1.8,1.8,0,0,0-.54-.08h-.21a10.13,10.13,0,0,0-1.84.41l-.66.18a3.53,3.53,0,0,1-.67.07,4.26,4.26,0,0,1-1-.12c-.8-.19-1.34-.35-1.85-.48a7,7,0,0,0-1.71-.2H43.2l0,.32h.5a6.37,6.37,0,0,1,1.63.2c.5.12,1,.28,1.86.47a4.9,4.9,0,0,0,1,.13A3.43,3.43,0,0,0,49,14a4.77,4.77,0,0,0,.51-.13,9.92,9.92,0,0,1,2-.45l0-.16v.16h.18a1.52,1.52,0,0,1,.45.07,2.66,2.66,0,0,1,.4.17,2.26,2.26,0,0,0,.45.16l.14,0h0l0-.06,0,.05h0l0-.06,0,.05.06-.1-.08.09h0l.06-.1-.08.09a.17.17,0,0,0,.12,0,.14.14,0,0,0,.12-.06s.08-.11.16-.24a2.25,2.25,0,0,0,.12-.21.56.56,0,0,0,0-.12.37.37,0,0,0,0-.12.28.28,0,0,0,0-.09.24.24,0,0,0-.06-.09h0a3.77,3.77,0,0,0-1.1-.71,2.64,2.64,0,0,0-1-.2,2.29,2.29,0,0,0-1,.23l.06.14-.06-.14a4.07,4.07,0,0,0-.5.26c-.28.17-.6.36-.91.52a3.35,3.35,0,0,1-.46.18,1.21,1.21,0,0,1-.4.07h-.15L47.2,13c-.55-.13-1.25-.32-1.91-.55-.33-.11-.65-.23-.94-.35a5.29,5.29,0,0,1-.72-.37l-.18.26Z"/><path class="cls-2" d="M43.17,12a34.08,34.08,0,0,0,4.74,1.36c.74.17,1.93-.57,2.51-.94a2.42,2.42,0,0,1,3,.57c.41.46.57.74.57.87s-.49,0-.49,0a6.84,6.84,0,0,1-.87-.33,2,2,0,0,0-1.15-.37c-2.06.24-2.47.94-4.24.53s-2.23-.78-4.12-.66"/><path class="cls-1" d="M36.78,50.51c-.08-.08.08-.16,0-.16a2.35,2.35,0,0,1-1.69-1c-1.77-2.56-4.37-4.24-9.07-4.12-7,.16-9.85-2.72-10.38-8.24-.29-3-1.11-5.94-2.8-7.59l-1,.62c1.89,1.65,2.51,4.33,2.92,8,.66,5.52,5.11,8.07,10.31,8.16,5.39.08,7.33,1.19,9.35,3.91a3.2,3.2,0,0,0,2,1.28Z"/><path class="cls-1" d="M55.08,25.75q-.12.29-.24.6l.2.34,1.83.08a2.39,2.39,0,0,1,.39-.08h0a3.5,3.5,0,0,1-2.13-.9l0,0"/><path class="cls-9" d="M57.26,26.69a2.39,2.39,0,0,0-.39.08h.23c.12,0,.17,0,.16-.09m-1.35-2.62c-.22.43-.53,1-.83,1.68l0,0a3.5,3.5,0,0,0,2.13.9,1.08,1.08,0,0,0-.24-.28,4.62,4.62,0,0,1-1.1-2.34"/><path class="cls-1" d="M55.9,24l-1.36,1.81.3.52q.12-.32.24-.6c.3-.69.61-1.25.83-1.68V24"/></g></g></svg>