<svg xmlns="http://www.w3.org/2000/svg" viewBox="0 0 32.42 72"><defs><style>.cls-1{fill:#d34a47;}.cls-2{fill:#fff;}</style></defs><g id="Layer_2" data-name="Layer 2"><g id="Layer_1-2" data-name="Layer 1"><path class="cls-1" d="M25,69.83l.69-11.51,1.91-3.26A33.27,33.27,0,0,1,16,56.84,33.26,33.26,0,0,1,4.46,55.1L6.6,58.65l.75,11.18c0,1.2,4,2.17,8.83,2.17S25,71,25,69.83"/><path class="cls-1" d="M22.83,16.08l1.45-5.74,8-8.44L30.2.09l-8.5,9L20,15.94c-1.22,0-2.49-.06-3.8-.06-9,0-16.21,1-16.21,2.28s7.26,2.28,16.21,2.28,16.21-1,16.21-2.28c0-.93-3.93-1.73-9.59-2.08"/><path class="cls-2" d="M22,19.29a6.74,6.74,0,0,1-1.24.07,3.49,3.49,0,0,1-1.84-.24.43.43,0,0,1-.11-.28.36.36,0,0,1,.27-.32l.14.22c-.06,0-.1,0-.1.07a4,4,0,0,0,1.67.2c.72,0,1.6-.07,1.6-.19s-.07-.07-.18-.1l.14-.22c.18.06.35.17.35.37s-.43.38-.7.42"/><path class="cls-1" d="M32.3,1.91c.2-.23-.11-.83-.69-1.33S30.4-.14,30.2.09s.1.83.68,1.34,1.22.72,1.42.48"/><path class="cls-1" d="M24.63,41.71c-.19-1.83,4-4.48,2.93-4.56-2.32.13-3.48,2.71-4.64,5.42-.43,1-1.89,5.22-2.85,4.7s1.24-4,1.86-6.07c-.71.53-3.32,2.56-4,.66-1.08.91-3.39,1.41-3.13-1-.58,1-1.87,2.44-3.42,1.85-2-.78,1.18-7.26,2-6.94s-.16,1.81-.41,2.38c-.55,1.27-1.19,2.85-.77,3.18.73.56,2.73-2.11,2.77-2.17.37-.49,1.44-3.71,2.29-3.34s-2.13,4.62-1,5.47c.23.17,1.15-.11,1.71-.72.37-.39.24-1.26,1.45-4.14S21.67,30,22.5,30.22s.15,2.12-.15,2.81c-1.4,3.22-3.81,8.55-2.68,8.15a4.82,4.82,0,0,0,2.85-1.73C23.64,38.14,23.59,36,24.33,36s.62.73.44,1.26c.73-.84,3.47-2.6,4.13-.86.78,2.07-3.92,5.06-2.74,4.91A7.08,7.08,0,0,0,29.94,39l2.17-19.55S29.92,21.22,16,21.22.11,19.44.11,19.44L2,37.29C3,34.5,5.28,28.85,9,29c1.67.08,3.91,3.31,2,3.42-.81,0-.9-1.61-1.86-1.86a2.92,2.92,0,0,0-2.28,1c-1.24,1.22-3.91,6-3.56,8.4.45,3,4.21-1,4.85-2.27.44-.86.75-3.41,1.73-3.14S9.75,37.48,9,39.8c-.8,2.61-1.22,5.36-2.22,5.05s.63-3.69.57-4.28c-.93.87-2.67,3.06-4.88,2L3.66,53.63s3.06,2.42,12.26,2.42S28.3,53.67,28.3,53.67l1.43-12.84c-1.17,1.14-4.87,3.16-5.1.88"/></g></g></svg>