<svg xmlns="http://www.w3.org/2000/svg" viewBox="0 0 63.49 72"><defs><style>.cls-1{fill:#e44d26;}.cls-2{fill:#f16529;}</style></defs><g id="Layer_2" data-name="Layer 2"><g id="Layer_1-2" data-name="Layer 1"><path class="cls-1" d="M0,0,5.78,64.8,31.7,72l26-7.21L63.49,0ZM51.42,15.38l-.4,4-.18,1.78H20.5l.73,8.14h29L50,31.47,48.13,52.39,48,53.73,31.74,58.24h0L15.43,53.73,14.31,41.25h8l.57,6.34L31.71,50h0l8.86-2.39.92-10.31H14l-2-21.9-.19-2.13H51.62Z"/><polygon class="cls-2" points="41.5 37.28 31.74 37.28 31.74 49.97 40.58 47.59 41.5 37.28"/><polygon class="cls-2" points="31.74 5.3 31.74 13.25 51.63 13.25 51.42 15.38 51.02 19.41 50.84 21.19 50.81 21.19 31.74 21.19 31.74 29.33 48.05 29.33 50.19 29.33 50 31.47 48.13 52.39 48.01 53.73 31.74 58.24 31.74 58.24 31.74 66.49 52.75 60.67 57.69 5.3 31.74 5.3"/></g></g></svg>