<svg xmlns="http://www.w3.org/2000/svg" xmlns:xlink="http://www.w3.org/1999/xlink" viewBox="0 0 72 70"><defs><style>.cls-1{fill:url(#radial-gradient);}.cls-2{fill:#ff408c;}</style><radialGradient id="radial-gradient" cx="36" cy="35" r="35.5" gradientUnits="userSpaceOnUse"><stop offset="0" stop-color="#4b2b36" stop-opacity="0.98"/><stop offset="1" stop-color="#250012"/></radialGradient></defs><g id="Layer_2" data-name="Layer 2"><g id="Layer_1-2" data-name="Layer 1"><path class="cls-1" d="M9.06,0H63s9,.06,9,8.84V61.25C72,70,63,70,63,70H9s-9,0-9-8.74V8.83C0,.06,9.06,0,9.06,0Z"/><path class="cls-2" d="M45.94,31.21a4.43,4.43,0,0,0-1.85-.31c-4.05,0-6.88,3.11-6.88,8.29,0,5.91,2.89,8.3,6.5,8.3a5.48,5.48,0,0,0,2.23-.38Zm-1.66-5.12a15,15,0,0,1,1.66.06V17.8a.3.3,0,0,1,.32-.32h5.09c.25,0,.31.1.31.25V47.11a23.4,23.4,0,0,0,.16,3.18c0,.22-.06.25-.28.37a19.18,19.18,0,0,1-8.23,1.86c-7,0-11.91-4.31-11.91-13.07,0-7.51,4.93-13.36,12.88-13.36ZM25.84,51.64c0,.31-.07.41-.41.41H20.59c-.32,0-.41-.16-.41-.41V17.89c0-.31.16-.41.41-.41h4.87c.25,0,.38.1.38.38Z"/></g></g></svg>