<svg xmlns="http://www.w3.org/2000/svg" xmlns:xlink="http://www.w3.org/1999/xlink" viewBox="0 0 72 72"><defs><style>.cls-1{fill:url(#linear-gradient);}.cls-2{fill:url(#linear-gradient-2);}.cls-3{fill:url(#linear-gradient-3);}.cls-4{fill:url(#linear-gradient-4);}.cls-5{fill:#fff;}</style><linearGradient id="linear-gradient" x1="-213.21" y1="718.11" x2="-212.93" y2="718.11" gradientTransform="matrix(119.2, 0, 0, -106, 25415.8, 76160.61)" gradientUnits="userSpaceOnUse"><stop offset="0.26" stop-color="#f97a12"/><stop offset="0.46" stop-color="#b07b58"/><stop offset="0.72" stop-color="#577bae"/><stop offset="0.91" stop-color="#1e7ce5"/><stop offset="1" stop-color="#087cfa"/></linearGradient><linearGradient id="linear-gradient-2" x1="-214.09" y1="719.49" x2="-213.75" y2="719.37" gradientTransform="matrix(162.4, 0, 0, -252, 34794.6, 181337)" gradientUnits="userSpaceOnUse"><stop offset="0" stop-color="#f97a12"/><stop offset="0.07" stop-color="#cb7a3e"/><stop offset="0.15" stop-color="#9e7b6a"/><stop offset="0.24" stop-color="#757b91"/><stop offset="0.33" stop-color="#537bb1"/><stop offset="0.43" stop-color="#387ccc"/><stop offset="0.54" stop-color="#237ce0"/><stop offset="0.66" stop-color="#147cef"/><stop offset="0.79" stop-color="#0b7cf7"/><stop offset="1" stop-color="#087cfa"/></linearGradient><linearGradient id="linear-gradient-3" x1="-213.79" y1="718.45" x2="-213.92" y2="718.74" gradientTransform="matrix(113.6, 0, 0, -156.4, 24351.4, 112409.4)" gradientUnits="userSpaceOnUse"><stop offset="0" stop-color="#fe315d"/><stop offset="0.08" stop-color="#cb417e"/><stop offset="0.16" stop-color="#9e4e9b"/><stop offset="0.25" stop-color="#755bb4"/><stop offset="0.34" stop-color="#5365ca"/><stop offset="0.44" stop-color="#386ddb"/><stop offset="0.54" stop-color="#2374e9"/><stop offset="0.66" stop-color="#1478f3"/><stop offset="0.79" stop-color="#0b7bf8"/><stop offset="1" stop-color="#087cfa"/></linearGradient><linearGradient id="linear-gradient-4" x1="-213.85" y1="719.49" x2="-213.61" y2="719.19" gradientTransform="matrix(196.4, 0, 0, -249.6, 42011, 179602.6)" gradientUnits="userSpaceOnUse"><stop offset="0" stop-color="#fe315d"/><stop offset="0.04" stop-color="#f63462"/><stop offset="0.1" stop-color="#df3a71"/><stop offset="0.17" stop-color="#c24383"/><stop offset="0.29" stop-color="#ad4a91"/><stop offset="0.55" stop-color="#755bb4"/><stop offset="0.92" stop-color="#1d76ed"/><stop offset="1" stop-color="#087cfa"/></linearGradient></defs><g id="Layer_2" data-name="Layer 2"><g id="Layer_1-2" data-name="Layer 1"><polygon class="cls-1" points="18.23 56.14 0.79 42.41 9.45 26.32 34.31 36 18.23 56.14"/><polygon class="cls-2" points="72 19.24 70.65 60.86 42.98 72 26.32 61.2 50.63 36 40.05 12.6 49.61 1.13 72 19.24"/><polygon class="cls-3" points="72 19.24 50.06 45.11 40.05 12.6 49.61 1.13 72 19.24"/><polygon class="cls-4" points="34.65 59.74 5.85 70.2 10.46 54 16.43 33.98 0 28.46 10.46 0 32.96 2.7 55.24 28.13 34.65 59.74"/><rect x="13.5" y="13.5" width="45" height="45"/><path class="cls-5" d="M17.78,50.06H34.65v2.82H17.78Zm12-27.33V19.35H20.59v3.38h2.59V34.54H20.59V38h9.22V34.54H27.23V22.73Zm9,15.52a7.47,7.47,0,0,1-3.71-.79,8.76,8.76,0,0,1-2.47-2l2.58-2.93a8.13,8.13,0,0,0,1.58,1.35,3.24,3.24,0,0,0,1.8.45,2.07,2.07,0,0,0,1.8-.79,3.27,3.27,0,0,0,.67-2.36v-12h4.17V31.27a7.69,7.69,0,0,1-.46,2.93,5.57,5.57,0,0,1-1.57,2.47A8,8,0,0,1,38.81,38.25Z"/></g></g></svg>