<svg xmlns="http://www.w3.org/2000/svg" viewBox="0 0 53.3 72.21"><defs><style>.cls-1{fill:#e12022;stroke:#e12022;}.cls-1,.cls-2{stroke-miterlimit:10;stroke-width:0.09px;}.cls-2{fill:#0b6fb6;stroke:#0b6fb6;}</style></defs><g id="Layer_2" data-name="Layer 2"><g id="Layer_1-2" data-name="Layer 1"><path class="cls-1" d="M33.89.16a8.28,8.28,0,0,1,1.71,7,15.72,15.72,0,0,1-3.78,7.2,35.56,35.56,0,0,1-4.76,4.5,20,20,0,0,0-5.17,5.56,7.27,7.27,0,0,0-.58,6.05c1.18,3.41,3.91,5.93,5.4,9.14-1.65-1.46-3.26-3-4.77-4.56a21.61,21.61,0,0,1-4.05-5.58,6.64,6.64,0,0,1-.45-4.75,10.8,10.8,0,0,1,2.78-4.07c3.18-3.17,7.09-5.51,10.19-8.73A13,13,0,0,0,34,5.57,12.82,12.82,0,0,0,33.89.16Z"/><path class="cls-1" d="M31.29,20.14a35.55,35.55,0,0,1,11.42-5.26c-3.19,2-6.53,3.89-9.28,6.51A8.63,8.63,0,0,0,31,24.81a4.34,4.34,0,0,0,.22,3.05,39.14,39.14,0,0,0,2.92,4.59,4.87,4.87,0,0,1,.34,4.42,11.73,11.73,0,0,1-4.65,4.82c-.25.15-.46.41-.75.44a6.14,6.14,0,0,0,2.21-4.49,5.43,5.43,0,0,0-1.6-3.36c-1.74-2.07-3.19-4.7-2.89-7.49s2.29-5,4.45-6.65Z"/><path class="cls-2" d="M43.36,40.41a4.39,4.39,0,0,1,3-1.26,6.54,6.54,0,0,1,5.24,1.51,4.74,4.74,0,0,1,1.56,4.21,7.41,7.41,0,0,1-2.84,4.45,22.15,22.15,0,0,1-8.57,3.91,2.61,2.61,0,0,1,.59-.5A21,21,0,0,0,48.64,48a5.68,5.68,0,0,0,1.5-4.58A4.45,4.45,0,0,0,46,40a9.12,9.12,0,0,0-2.64.43Z"/><path class="cls-2" d="M8.1,42a25.29,25.29,0,0,1,10.26-2.23,41.27,41.27,0,0,0-6.08,2,2.81,2.81,0,0,0-1.25,1c-.14.37.25.61.53.73a13.43,13.43,0,0,0,3.79.69A104.36,104.36,0,0,0,28.82,44c4.42-.28,8.8-.88,13.17-1.58a23.93,23.93,0,0,0-2.84,1.49,4.29,4.29,0,0,1-1.53.53A81.61,81.61,0,0,1,21.28,46.1c-2.13,0-4.23,0-6.34-.16a36.15,36.15,0,0,1-7-.95A4.5,4.5,0,0,1,6,44.11a.6.6,0,0,1,0-.87A7.07,7.07,0,0,1,8.1,42Z"/><path class="cls-2" d="M12.24,49.5A10.69,10.69,0,0,1,15.33,48c-.35.42-.84.83-.88,1.4a1,1,0,0,0,.58.83,5.74,5.74,0,0,0,1.88.49A59.54,59.54,0,0,0,27.08,51a72.42,72.42,0,0,0,9.26-1.21,10.11,10.11,0,0,0,2.9,1.81,55.54,55.54,0,0,1-11.33,2A48.31,48.31,0,0,1,17,53.29a15.17,15.17,0,0,1-4.17-1.23,2.27,2.27,0,0,1-1.28-1.26,1.41,1.41,0,0,1,.66-1.3Z"/><path class="cls-2" d="M14.28,57.15a7.69,7.69,0,0,1,2.79-1.27c-.32.3-.88.67-.63,1.18.47.61,1.35.68,2,.84a45.19,45.19,0,0,0,8.92.39,61.14,61.14,0,0,0,6.65-.93A34.9,34.9,0,0,0,38,59.29a29.65,29.65,0,0,1-6.52,1.94,34.35,34.35,0,0,1-11.4.16,15.82,15.82,0,0,1-4.88-1.51,3,3,0,0,1-1.44-1.37,1.25,1.25,0,0,1,.53-1.36Z"/><path class="cls-2" d="M4.54,62.11a17.83,17.83,0,0,1,5-1,3.74,3.74,0,0,1,2,.37A15.16,15.16,0,0,0,5.61,63a2,2,0,0,0-1,1c0,.54.61.72,1,.89a32.16,32.16,0,0,0,7.93,1.53,138.14,138.14,0,0,0,23.89-.23,55.12,55.12,0,0,0,8.93-1.49A5.05,5.05,0,0,0,49,63.21a1.22,1.22,0,0,0-.24-1.52c.59.33,1.43.75,1.31,1.56s-1.09,1.28-1.79,1.68a28.43,28.43,0,0,1-7.17,2.23,98.09,98.09,0,0,1-21.71,1.51A121.08,121.08,0,0,1,3,67,5.17,5.17,0,0,1,.25,65.84c-.46-.52,0-1.26.38-1.64a11.46,11.46,0,0,1,3.91-2.09Z"/><path class="cls-2" d="M48.25,68.11a12,12,0,0,0,5-2.67,4.82,4.82,0,0,1-2.84,3.26,27.61,27.61,0,0,1-8,2.39,101.19,101.19,0,0,1-17.75,1A68.4,68.4,0,0,1,12.47,71a9.13,9.13,0,0,1-2.79-1,83.89,83.89,0,0,0,10.74,1,114,114,0,0,0,17.71-.79,60.65,60.65,0,0,0,10.12-2.1Z"/></g></g></svg>