<svg xmlns="http://www.w3.org/2000/svg" viewBox="0 0 71.41 71.91"><defs><style>.cls-1{fill:#f9ae41;}.cls-2{fill:#ee4035;}.cls-3{fill:#4f91cd;}.cls-4{fill:#7ac043;}</style></defs><g id="Layer_2" data-name="Layer 2"><g id="Layer_1-2" data-name="Layer 1"><path class="cls-1" d="M71.41,9.75A9.44,9.44,0,0,0,52.63,8.42l-.09-.06c-7.72-3.48-14.22,2.69-14.22,2.69L21.13,28.32l6.8,6.54L41.76,21.27c6.46-6.46,10-2.09,10-2.09,4.87,4.11.17,9,.17,9l7,6.7c5.68-6.13,6-11.49,4.29-15.75a9.44,9.44,0,0,0,8.25-9.36"/><path class="cls-2" d="M63.24,53.14a.36.36,0,0,0,0-.1c3.48-7.71-2.68-14.21-2.68-14.21L43.33,21.64l-6.54,6.79,13.6,13.84c6.46,6.46,2.09,10,2.09,10-4.11,4.86-9,.16-9,.16l-6.71,7c6.14,5.69,11.5,6,15.76,4.29A9.43,9.43,0,1,0,63.24,53.14"/><path class="cls-3" d="M43.48,37,29.64,50.64c-6.46,6.46-10,2.09-10,2.09-4.87-4.11-.17-9-.17-9l-7-6.71c-5.69,6.14-6,11.5-4.29,15.76A9.44,9.44,0,1,0,18.77,63.49l.1.06c7.71,3.48,14.21-2.69,14.21-2.69L50.27,43.59,43.48,37"/><path class="cls-4" d="M21,29.64c-6.46-6.46-2.09-10-2.09-10,4.11-4.86,9-.16,9-.16l6.71-7c-6.14-5.69-11.49-6-15.75-4.29A9.44,9.44,0,1,0,8.16,18.77l-.05.1C4.63,26.58,10.8,33.08,10.8,33.08L28.07,50.27l6.54-6.79L21,29.64"/></g></g></svg>