<svg xmlns="http://www.w3.org/2000/svg" viewBox="0 0 72 61.79"><defs><style>.cls-1{fill:#1a1918;}.cls-1,.cls-2,.cls-3,.cls-4{fill-rule:evenodd;}.cls-2{fill:#21609b;}.cls-3{fill:#fea620;}.cls-4{fill:#fff;}</style></defs><g id="Layer_2" data-name="Layer 2"><g id="Layer_1-2" data-name="Layer 1"><path class="cls-1" d="M68.23,24.5l3.77,0L64.42,34.79a4.19,4.19,0,0,0-.61.85,19.52,19.52,0,0,0-.73,2.69l-3.45,0a14.51,14.51,0,0,0,.51-3,11.71,11.71,0,0,0-.73-2.69C59.15,31.8,58.8,30,58.8,30h3.54l.49,2,5.4-7.48"/><path class="cls-1" d="M61.09,26.5c.7.42,1.13,2.73,1.13,2.73s-3.64.06-5.62.06H54.88l-2.07,9H49.63s2-9.83,2.44-11.61c.15-.58,1-.48,2.53-.48H57c1.54,0,3.35-.2,4.1.26M46.3,30.91A2,2,0,0,0,46,29.65c-.37-.57-.72-.7-1.69-.73-2.77-.09-2.71,2-2.71,2Zm3-2.35c.41,1.46-.37,4.89-.37,4.89s-4-.06-6.23,0c-.69,0-1.51-.07-1.71.25s.1,1.13.43,1.42a2.71,2.71,0,0,0,1.4.41,45.77,45.77,0,0,0,5.54.06l-.65,2.88a39.17,39.17,0,0,1-8-.37,2.72,2.72,0,0,1-1.34-.74,3,3,0,0,1-.25-.34,3,3,0,0,1-.36-.63c-.61-1.62.07-4.71.73-6.36.08-.19.18-.44.28-.64s.23-.55.33-.71.16-.17.23-.27.17-.23.26-.34a5.24,5.24,0,0,1,.86-.73A8,8,0,0,1,46,26.12a4.16,4.16,0,0,1,2.93,1.34,4.06,4.06,0,0,1,.37,1.1ZM34.71,26.23l3.08,0s-1.71,8.15-2.59,12.12H31.65c-2.47,0-4.68.31-5.62-1.46s0-4.56.37-6.48c.29-1.37.89-4.15.89-4.15l3.2,0s-.9,4.34-1.28,6.5c-.13.77-.41,1.5-.12,2.08s.66.58,1.83.61h1.59l2.2-9.17M20.29,32.1A11.8,11.8,0,0,0,21,28.67a3,3,0,0,0-1.59-2.32,4.08,4.08,0,0,0-4.16,1,6.8,6.8,0,0,0-1.46,3.55,5.26,5.26,0,0,0,0,3.17c.73,1.55,3,1.21,5.5,1.23.36-1,.67-2.09,1-3.18Zm4.27-4.53c.36,2.56-1,5.39-1.93,7.85.95.08,1.79,0,1.84,0a9.83,9.83,0,0,1-.87,3l-4.29,0c-3.4,0-6.57.22-8.19-1.47A5.32,5.32,0,0,1,9.89,34.3a11.52,11.52,0,0,1,.37-4.16A12.7,12.7,0,0,1,11.48,27c1.43-2.49,3.91-4.34,8.07-3.91a7.63,7.63,0,0,1,2.69.86l.27.19a5.31,5.31,0,0,1,2,3.47Zm-15-1.33c-.2.94-.41,2-.62,2.92H5.49c.27-1,.47-2,.74-2.93H9.54M5.37,30h3.3c-.43,2.39-1.29,6.24-2,8.92C6.3,40.62,6,41.85,4.88,42.73c-.1.08-.16.05-.24.13a4.72,4.72,0,0,1-1.72.49,26,26,0,0,1-2.92,0c.28-1,.6-2.26.85-3.17C3.45,40.48,3.52,38,4,35.64c.3-1.37,1.18-5.07,1.35-5.62"/><path class="cls-2" d="M44.53,13.16l-.08.2a7.83,7.83,0,0,1-7.23,4.36,10,10,0,0,1-4.15-.83,10.76,10.76,0,0,1-5-4.7,7.83,7.83,0,0,1,1.29-9.48s-.36.62-.32.62L29,3.6C26.83,10.29,33.42,16,39.82,15.37a8.44,8.44,0,0,0,4.71-2.21"/><path class="cls-2" d="M40.65,10.39a6.09,6.09,0,0,0,4.29-1.8c-.87,2.21-3.39,3.63-6.78,3.18a7.31,7.31,0,0,1-5.81-6.09A6.05,6.05,0,0,1,34.07.86a4.92,4.92,0,0,0-.61,1.78c-.46,4.5,3.59,7.72,7.19,7.75"/><path class="cls-2" d="M44.78,4.8a5,5,0,0,1-2.33,1.79,4.43,4.43,0,0,1-5-2,7.21,7.21,0,0,1-.4-.9A3.8,3.8,0,0,1,37.87,0a4.69,4.69,0,0,0-.18,2.42,5.23,5.23,0,0,0,.67,1.46,3.77,3.77,0,0,0,1.52,1.34,3.56,3.56,0,0,0,.76.37c.64.19,2,.68,4.14-.79"/><path id="path378" class="cls-3" d="M27,48v5.93a8,8,0,0,0,8,7.9h2a8,8,0,0,0,8-7.9V48a2,2,0,0,0-2-2H29a2,2,0,0,0-2,2"/><path id="path380" class="cls-4" d="M30,52.9a6,6,0,0,0,12,0H39a3,3,0,0,1-6,0v-3H30v3Z"/><path id="path382" class="cls-4" d="M39.75,48.3l-.7,2.87,2.9.74L42.7,49Z"/></g></g></svg>