<svg xmlns="http://www.w3.org/2000/svg" viewBox="0 0 72 71.93"><defs><style>.cls-1{fill:#1a1918;}.cls-1,.cls-2{fill-rule:evenodd;}.cls-2{fill:#21609b;}</style></defs><g id="Layer_2" data-name="Layer 2"><g id="Layer_1-2" data-name="Layer 1"><path class="cls-1" d="M68.23,53l3.77,0L64.42,63.33a4.19,4.19,0,0,0-.61.85,19.52,19.52,0,0,0-.73,2.69l-3.45,0a14.51,14.51,0,0,0,.51-3,11.71,11.71,0,0,0-.73-2.69c-.26-.91-.61-2.69-.61-2.69h3.54l.49,2L68.23,53"/><path class="cls-1" d="M61.09,55c.7.42,1.13,2.73,1.13,2.73s-3.64.06-5.62.06H54.88l-2.07,9H49.63s2-9.83,2.44-11.61c.15-.58,1-.48,2.53-.48H57c1.54,0,3.35-.2,4.1.26M46.3,59.45A2,2,0,0,0,46,58.19c-.37-.57-.72-.7-1.69-.73-2.77-.09-2.71,2-2.71,2Zm3-2.35c.41,1.46-.37,4.89-.37,4.89s-4-.06-6.23,0c-.69,0-1.51-.07-1.71.25s.1,1.13.43,1.42a2.71,2.71,0,0,0,1.4.41,45.77,45.77,0,0,0,5.54.06L47.7,67a39.17,39.17,0,0,1-8-.37,2.78,2.78,0,0,1-1.34-.73c-.09-.1-.17-.24-.25-.35a3,3,0,0,1-.36-.63c-.61-1.62.07-4.7.73-6.36.08-.19.18-.44.28-.64s.23-.55.33-.71.16-.17.23-.27.17-.23.26-.34a5.24,5.24,0,0,1,.86-.73A8,8,0,0,1,46,54.66,4.16,4.16,0,0,1,48.92,56a4.06,4.06,0,0,1,.37,1.1ZM34.71,54.77l3.08,0S36.08,62.9,35.2,66.87H31.65c-2.47,0-4.68.31-5.62-1.46s0-4.56.37-6.48c.29-1.37.89-4.15.89-4.15l3.2,0s-.9,4.34-1.28,6.5c-.13.77-.41,1.5-.12,2.08s.66.58,1.83.61c.37,0,1.59,0,1.59,0l2.2-9.17M20.29,60.64A11.8,11.8,0,0,0,21,57.21a3,3,0,0,0-1.59-2.32,4.1,4.1,0,0,0-4.16,1,6.8,6.8,0,0,0-1.46,3.55,5.26,5.26,0,0,0,0,3.17c.73,1.55,3,1.21,5.5,1.23.36-1,.67-2.09,1-3.18Zm4.27-4.53c.36,2.56-1,5.39-1.93,7.85.95.08,1.79,0,1.84.06A9.85,9.85,0,0,1,23.6,67l-4.29,0c-3.4,0-6.57.22-8.19-1.47a5.32,5.32,0,0,1-1.23-2.69,11.52,11.52,0,0,1,.37-4.16,12.7,12.7,0,0,1,1.22-3.18c1.43-2.49,3.91-4.34,8.07-3.91a7.63,7.63,0,0,1,2.69.86l.27.19a5.31,5.31,0,0,1,2,3.47Zm-15-1.33c-.2.94-.41,2-.62,2.92H5.49c.27-1,.47-2,.74-2.93H9.54M5.37,58.56h3.3c-.43,2.39-1.29,6.24-2,8.92C6.3,69.16,6,70.39,4.88,71.27c-.1.08-.16,0-.24.13a4.72,4.72,0,0,1-1.72.49,26,26,0,0,1-2.92,0c.28-1,.6-2.26.85-3.17C3.45,69,3.52,66.56,4,64.18c.3-1.37,1.18-5.07,1.35-5.62"/><path class="cls-2" d="M59.58,36.37l-.22.57C55.59,44.29,48.9,48.8,39.37,49A27.86,27.86,0,0,1,27.89,46.7a29.63,29.63,0,0,1-13.77-13c-3.95-7.64-4.66-18.27,3.54-26.21.13,0-1,1.73-.86,1.73l-.23.73c-5.91,18.51,12.3,34.36,30,32.55a23.31,23.31,0,0,0,13-6.12"/><path class="cls-2" d="M48.87,28.72a16.93,16.93,0,0,0,11.86-5c-2.41,6.12-9.39,10.05-18.75,8.8-7.83-1-15.3-8.93-16.07-16.83C25.35,10,27.35,6.53,30.66,2.36A14.06,14.06,0,0,0,29,7.29c-1.25,12.44,9.94,21.36,19.9,21.43"/><path class="cls-2" d="M60.28,13.27c-.69,1.59-4.68,4.59-6.44,5-7,1.49-11.43-1.82-13.77-5.58A17.53,17.53,0,0,1,39,10.16c-.9-3.08-.49-7.75,2.22-10.16a12.66,12.66,0,0,0-.51,6.7,14.72,14.72,0,0,0,1.85,4,10.49,10.49,0,0,0,4.21,3.72,11.13,11.13,0,0,0,2.11,1c1.76.51,5.46,1.88,11.44-2.19"/></g></g></svg>