<svg xmlns="http://www.w3.org/2000/svg" viewBox="0 0 72 72"><defs><style>.cls-1{fill:#f7df1e;}</style></defs><g id="Layer_2" data-name="Layer 2"><g id="Layer_1-2" data-name="Layer 1"><path class="cls-1" d="M0,0H72V72H0Z"/><path d="M18.93,60.17l5.51-3.34c1.06,1.89,2,3.48,4.35,3.48s3.63-.87,3.63-4.25v-23h6.76V56.16c0,7-4.11,10.19-10.1,10.19-5.41,0-8.55-2.8-10.15-6.18"/><path d="M42.86,59.44l5.51-3.19c1.45,2.37,3.33,4.11,6.67,4.11,2.8,0,4.59-1.4,4.59-3.33,0-2.32-1.84-3.14-4.93-4.5L53,51.81c-4.88-2.08-8.12-4.69-8.12-10.2,0-5.08,3.86-8.94,9.9-8.94,4.31,0,7.4,1.5,9.62,5.41l-5.27,3.38c-1.16-2.07-2.41-2.9-4.35-2.9a2.94,2.94,0,0,0-3.23,2.9c0,2,1.25,2.86,4.15,4.11l1.69.73c5.76,2.46,9,5,9,10.63,0,6.09-4.78,9.42-11.21,9.42s-10.34-3-12.32-6.91"/></g></g></svg>