<svg xmlns="http://www.w3.org/2000/svg" xmlns:xlink="http://www.w3.org/1999/xlink" viewBox="0 0 72 72"><defs><style>.cls-1{fill:url(#linear-gradient);}.cls-2{fill:url(#linear-gradient-2);}</style><linearGradient id="linear-gradient" x1="-430.72" y1="648.82" x2="-430.7" y2="648.8" gradientTransform="matrix(2341.46, 0, 0, -2498.44, 1008532.52, 1621056.48)" gradientUnits="userSpaceOnUse"><stop offset="0"/><stop offset="1" stop-color="#fff"/></linearGradient><linearGradient id="linear-gradient-2" x1="-430.88" y1="648.8" x2="-430.91" y2="648.82" gradientTransform="matrix(2065.94, 0, 0, -2500, 890242.14, 1622066.49)" xlink:href="#linear-gradient"/></defs><g id="Layer_2" data-name="Layer 2"><g id="Layer_1-2" data-name="Layer 1"><path class="cls-1" d="M35.94,53.59c15.93,21.72,31.52-6.06,31.49-22.76C67.41,11.08,47.39,0,35.93,0,17.52,0,0,15.25,0,36.06,0,59.19,20.09,72,35.93,72c-3.59-.52-15.53-3.08-15.69-30.59-.11-18.6,6.07-26,15.66-22.76.22.07,10.58,4.16,10.58,17.52S35.94,53.59,35.94,53.59Z"/><path class="cls-2" d="M35.92,18.63C25.39,15,12.5,23.68,12.5,41.05c0,28.37,21,31,23.57,31C54.48,72,72,56.79,72,36,72,12.86,51.91,0,36.07,0c4.39-.6,23.65,4.75,23.65,31.07,0,17.16-14.38,26.51-23.73,22.52-.22-.08-10.58-4.17-10.58-17.53S35.92,18.63,35.92,18.63Z"/></g></g></svg>