<svg xmlns="http://www.w3.org/2000/svg" viewBox="0 0 72 64.12"><defs><style>.cls-1{fill:#a57242;}</style></defs><g id="Layer_2" data-name="Layer 2"><g id="Layer_1-2" data-name="Layer 1"><g id="surface1"><path class="cls-1" d="M70.08,0C69,0,69.32.35,66.93,1s-5.37.41-8,1.5c-7.77,3.26-9.33,14.39-16.39,18.38-5.27,3-10.6,3.22-15.39,4.72A28.29,28.29,0,0,0,17.74,31c-2.21,1.91-2.27,3.59-4.58,6C10.69,39.55,3.33,37,0,41,1.07,42,1.54,42.34,3.66,42.06c-.44.83-3,1.53-2.51,2.75S7.92,47,13.6,43.54c2.64-1.6,4.75-3.9,8.86-4.45,5.33-.71,11.47.46,17.63,1.35-.91,2.73-2.75,4.54-4.22,6.71-.45.49.92.55,2.48.25a24.67,24.67,0,0,0,7-2.49c2.61-1.52,3-5.41,6.2-6.25,1.79,2.74,6.63,3.39,9.64,1.19-2.64-.74-3.37-6.36-2.48-8.84s1.68-6.09,2.53-9.19c.91-3.32,1.25-7.52,2.36-9.21,1.66-2.55,3.49-3.43,5.09-4.86s3-2.84,3-6.13C71.64.56,71.09,0,70.08,0ZM58.91,39.73c-1.73.42-4.71-.27-5.47-1.49.39-1.76,2.43-3.37,3.48-4.48C57,35.48,58,38.9,58.91,39.73Zm8-31.56a14.35,14.35,0,0,0-4.21,3.72c-1.08,1.68-1.77,7.45-3.45,13.15C57.79,30,55.6,34.83,51.77,37c-.4-1,0-2.87-.75-3.48a30.75,30.75,0,0,1-1.78,4.17C47,42,43.67,45.17,38.11,46.15c2.64-3.57,5.16-7.25,5.21-13.4-1.85.4-1.81,4.78-3.72,6a21.85,21.85,0,0,1-3.71,0c-5.12-.31-10.37-1.84-15.16-.31C17.47,39.5,14.8,42,12,43.17a16,16,0,0,1-9.75,1.41c-.51-.7,3-1.59,2.75-3.09-1.58-.17-2.5.21-3.87-.42a2,2,0,0,1,.65-.7c2.52-1.75,9.68-.41,11.6-2.3a21.61,21.61,0,0,0,2.76-3.55A14.39,14.39,0,0,1,19,31.26c.45-.37,1-.74,1.47-1.1a31.89,31.89,0,0,1,7.22-3.62c3.47-1.22,7-1.32,10.68-2.73a28.81,28.81,0,0,0,6.79-3.46A13.63,13.63,0,0,0,46.5,19.2c5.78-5.63,6.93-15.57,15.94-16.5,1.09-.11,2-.07,2.8-.1A5.5,5.5,0,0,0,67.91,2c.26.9.68,1.32,2.48,1.49C70.13,5.73,68.6,7,66.9,8.17Z"/><path class="cls-1" d="M59.45,6.43c1.27,1.11,3.95.22,3.47-2-2-.16-3.13.51-3.47,2"/><path class="cls-1" d="M68.35,3.85a6.67,6.67,0,0,0-1,3.45c0,.31-.24.52-.24,0a6.66,6.66,0,0,1,1-3.54c.23-.42.37-.25.25.05"/><path class="cls-1" d="M68,3.59a8.1,8.1,0,0,0-1.52,3.72c0,.31-.28.5-.24,0a8.25,8.25,0,0,1,1.53-3.82c.26-.39.39-.21.23.08"/><path class="cls-1" d="M67.69,3.23c-.45.64-1.94,2.13-2.25,3.92,0,.3-.32.47-.24,0a10.13,10.13,0,0,1,2.26-4c.3-.36.41-.17.23.1"/><path class="cls-1" d="M67.41,2.83A13.49,13.49,0,0,0,64.54,7c-.09.29-.38.43-.24,0a13.43,13.43,0,0,1,2.9-4.3c.34-.32.43-.11.21.13"/></g><path class="cls-1" d="M46.86,59.08a3.75,3.75,0,0,0-1.1-2.74,3.57,3.57,0,0,0-2.69-1.13,3.51,3.51,0,0,0-2.67,1.16,4,4,0,0,0,0,5.47A3.55,3.55,0,0,0,43.07,63a3.68,3.68,0,0,0,2.68-1.11,3.79,3.79,0,0,0,1.11-2.8M48,54.27V63.8h-1.2V62.17a4.75,4.75,0,0,1-7.29.46,5,5,0,0,1-1.43-3.57,4.87,4.87,0,0,1,1.45-3.55A4.71,4.71,0,0,1,43,54a4.5,4.5,0,0,1,3.79,2V54.27H48"/><path class="cls-1" d="M52,62.58h1.48a17.78,17.78,0,0,0,3.38-.23,4.2,4.2,0,0,0,1.85-.92,4.74,4.74,0,0,0,1.2-1.69,5.86,5.86,0,0,0,.41-2.25,5.76,5.76,0,0,0-.48-2.36,4.58,4.58,0,0,0-1.35-1.77,4.65,4.65,0,0,0-2.08-.93,17.83,17.83,0,0,0-3.5-.26H52V62.58M50.73,63.8V50.92H53.4a14.4,14.4,0,0,1,4,.41,5.47,5.47,0,0,1,2.22,1.28,5.62,5.62,0,0,1,1.44,2.11,8,8,0,0,1,.5,2.94,6.58,6.58,0,0,1-.79,3.16,5.35,5.35,0,0,1-2.11,2.23,8,8,0,0,1-3.84.75H50.73"/><path class="cls-1" d="M34.51,54.27h1.24V63.8H34.51V54.27m-.39-2.65a1,1,0,0,1,1-1,1,1,0,0,1,1,1,1,1,0,0,1-.31.72,1,1,0,0,1-1.43,0,1,1,0,0,1-.29-.7"/><path class="cls-1" d="M0,63.8,1.83,50.92H2L7.27,61.48l5.2-10.56h.2L14.51,63.8H13.24L12,54.58,7.43,63.8H7.1L2.49,54.51,1.24,63.8H0"/><path class="cls-1" d="M25.16,59.08a3.74,3.74,0,0,0-1.09-2.74,3.58,3.58,0,0,0-2.69-1.13,3.52,3.52,0,0,0-2.68,1.16,3.87,3.87,0,0,0-1.09,2.73,3.83,3.83,0,0,0,1.11,2.74A3.56,3.56,0,0,0,21.38,63a3.64,3.64,0,0,0,2.67-1.11,3.79,3.79,0,0,0,1.11-2.8m1.13-4.81V63.8h-1.2V62.17a4.74,4.74,0,0,1-7.28.46,5,5,0,0,1-1.44-3.57,4.88,4.88,0,0,1,1.46-3.55A4.67,4.67,0,0,1,21.31,54a4.5,4.5,0,0,1,3.78,2V54.27h1.2"/><path class="cls-1" d="M28.37,54.27h1.25v1.38a5,5,0,0,1,1-1.23,1.63,1.63,0,0,1,1.06-.4,2.43,2.43,0,0,1,1.19.33l-.65,1a1,1,0,0,0-.56-.17,1.42,1.42,0,0,0-1.05.58,3.52,3.52,0,0,0-.72,1.49,14.83,14.83,0,0,0-.24,3.28V63.8H28.37V54.27"/><path class="cls-1" d="M65.54,57.59v4.95h1.6a5.67,5.67,0,0,0,2-.27,2.44,2.44,0,0,0,1.07-.86,2,2,0,0,0,.41-1.2,2.25,2.25,0,0,0-.93-1.9,3,3,0,0,0-1.09-.54,10.19,10.19,0,0,0-2.37-.18h-.72m0-5.42V56.3h.74a4.66,4.66,0,0,0,2.51-.54,1.86,1.86,0,0,0,.82-1.68c0-1.27-.86-1.91-2.58-1.91H65.54m-1.27-1.25h2.55a4.83,4.83,0,0,1,3.06.82,2.76,2.76,0,0,1,1.06,2.34,3,3,0,0,1-.43,1.56,3,3,0,0,1-1.22,1.13,4,4,0,0,1,2,1.29,3.1,3.1,0,0,1,.7,2,3.44,3.44,0,0,1-1.17,2.66,4.35,4.35,0,0,1-3,1H64.27V50.92"/></g></g></svg>