<svg xmlns="http://www.w3.org/2000/svg" viewBox="0 0 72 30.54"><defs><style>.cls-1{fill:#1fb6ff;}</style></defs><g id="Layer_2" data-name="Layer 2"><g id="Layer_1-2" data-name="Layer 1"><path class="cls-1" d="M61.17,19.77C35,17.8,13.32,24,8.45,26.25,5.76,27.46,5.56,29,6,29.83c.36.65,1.65,1.05,3.06.33,10.38-5.52,31.43-9.9,52.15-8.66a.87.87,0,1,0,0-1.73Zm6.48-7.72c-1.08,1.2-2.69,2.13-3.22,1.69s0-1.9,0-1.9C67,10.19,72,6,72,2.79c0-3-2.7-3.9-5.55-1.13a20.64,20.64,0,0,0-4.87,8.7c-1.49,1.44-3.83,3.3-6,3.3-1.09,0-1.41-.77-1.25-1.82,1.81,0,6.8-1.4,6.8-5.55a2.61,2.61,0,0,0-.8-1.81,2.54,2.54,0,0,0-1.89-.64c-2.26,0-5.15,2.29-6.56,5.51A5.32,5.32,0,0,1,50.79,9a14.78,14.78,0,0,0,.89-2.46c.32-1.69-.41-2.73-1.81-2.61a2.63,2.63,0,0,0-2.18,2.61,5,5,0,0,0,.48,2.62c-.6,1.89-3.13,4.26-4,4.18s.12-3.46,1-5.95a4.79,4.79,0,0,0,1.08-1.69,1,1,0,0,0-.4-1.37,2.62,2.62,0,0,0-3.3,1.37,11.18,11.18,0,0,0-.88,1.89c-.69.84-1.82,1.89-2.14,1.81-.48-.32,1.09-2.38.89-3.5a1.82,1.82,0,0,0-2-1.53c-1.41.2-3.3,2.86-3.3,2.86a5.16,5.16,0,0,0,.4-1.53c-.08-1-2-1.45-2.9.36a27.4,27.4,0,0,0-1.41,5.39c-.4.85-2,3.3-3.22,3.38-1,.08.24-4.34.4-4.59A6.35,6.35,0,0,0,29.5,6.85a1.28,1.28,0,0,0-.44-1,1.22,1.22,0,0,0-1-.2,2.36,2.36,0,0,0-1.49,1.12,2,2,0,0,0-1.89-.68c-4.14.44-6.8,7.57-6.52,10.91.24,1.81,1.09,2.89,2.7,2.69,1.81-.24,3.3-2.81,3.3-2.81s.4,2.13,2.33,1.89a7.31,7.31,0,0,0,3.66-2.54,1.17,1.17,0,0,0-.08.36c-.32,1.81,2.7,1.61,3,.24.89-6.8,3.22-9.61,3.91-9.61s-1.49,3.22-.33,4.42c.89,1.09,2.5.24,3.83-.88A12,12,0,0,0,40,13.41c-.08,1.9.61,3.42,2.5,3.38,2.5-.08,5.15-3.13,6.88-6a4.86,4.86,0,0,0,1.49.6,7.31,7.31,0,0,0-.2,2.09c.16,2.22,1.73,3.06,3.54,3,2.13-.08,4.63-1.69,6.32-3.14a.57.57,0,0,1-.08.24c-.16,1.09.08,3.06,1.65,3.14,1.81.16,4.91-1.69,6.48-3.58,1.33-.84,0-2.05-.93-1Zm1.69-9.22a.35.35,0,0,1,.33.36c0,1.89-4.87,6-4.87,6S68,2.83,69.34,2.83Zm-11.71,4a.64.64,0,0,1,.45.16.48.48,0,0,1,.12.45c0,1.08-1.49,1.89-3.14,1.89C55.94,8.06,57,6.81,57.63,6.81Zm-32.4,3c-.16,1.13-2.17,6.28-3.3,6.28-1.4.08.69-7.24,3-7.2.45,0,.45.32.32.92ZM7.61,11.16c1.33,0-1.09,6.8-.77,9.78s3.67,2.13,3.42.36c-.4-2.9,1.65-12.15,3.67-12.15,1.49,0-1.65,6.36-1,10.3.4,2.62,4,1.81,3.58.16-1.08-5.19,2.58-10.22,2.09-13.88-.24-1.53-1.08-2.38-2.13-2.38-3.38,0-6.12,6.72-6.12,6.72s.33-3.82-2.41-4C4,5.89-.08,15.67,0,24.52c.08,2.82,3.66,2.38,3.42.08-.2-3.94,2.14-13.44,4.19-13.44Z"/></g></g></svg>