<svg xmlns="http://www.w3.org/2000/svg" xmlns:xlink="http://www.w3.org/1999/xlink" viewBox="0 0 72 18.28"><defs><style>.cls-1{fill:url(#linear-gradient);}.cls-2{fill:none;}.cls-3,.cls-4{fill:#be202e;}.cls-4{opacity:0.35;isolation:isolate;}.cls-5{fill:url(#linear-gradient-2);}.cls-6{fill:url(#linear-gradient-3);}.cls-7{fill:url(#linear-gradient-4);}.cls-8{fill:url(#linear-gradient-5);}.cls-9{fill:url(#linear-gradient-6);}.cls-10{fill:url(#linear-gradient-7);}.cls-11{fill:url(#linear-gradient-8);}.cls-12{fill:url(#linear-gradient-9);}.cls-13{fill:url(#linear-gradient-10);}.cls-14{fill:url(#linear-gradient-11);}.cls-15{fill:url(#linear-gradient-12);}.cls-16{fill:url(#linear-gradient-13);}.cls-17{fill:url(#linear-gradient-14);}.cls-18{fill:url(#linear-gradient-15);}.cls-19{fill:url(#linear-gradient-16);}.cls-20{fill:url(#linear-gradient-17);}.cls-21{fill:url(#linear-gradient-18);}</style><linearGradient id="linear-gradient" x1="-11878.89" y1="822.27" x2="-11862.42" y2="803.01" gradientTransform="matrix(-0.02, -0.12, -0.12, 0.02, -146.51, -1395.77)" gradientUnits="userSpaceOnUse"><stop offset="0" stop-color="#f69923"/><stop offset="0.31" stop-color="#f79a23"/><stop offset="0.84" stop-color="#e97826"/></linearGradient><linearGradient id="linear-gradient-2" x1="-12000.78" y1="824.44" x2="-11883.28" y2="824.44" gradientTransform="matrix(-0.02, -0.12, -0.12, 0.02, -146.51, -1395.77)" gradientUnits="userSpaceOnUse"><stop offset="0.32" stop-color="#9e2064"/><stop offset="0.63" stop-color="#c92037"/><stop offset="0.75" stop-color="#cd2335"/><stop offset="1" stop-color="#e97826"/></linearGradient><linearGradient id="linear-gradient-3" x1="-11986.59" y1="812.64" x2="-11916.57" y2="812.64" gradientTransform="matrix(-0.02, -0.12, -0.12, 0.02, -146.51, -1395.77)" gradientUnits="userSpaceOnUse"><stop offset="0" stop-color="#282662"/><stop offset="0.1" stop-color="#662e8d"/><stop offset="0.79" stop-color="#9f2064"/><stop offset="0.95" stop-color="#cd2032"/></linearGradient><linearGradient id="linear-gradient-4" x1="-11994.18" y1="825.53" x2="-11876.68" y2="825.53" xlink:href="#linear-gradient-2"/><linearGradient id="linear-gradient-5" x1="-11985.61" y1="823.92" x2="-11923.86" y2="823.92" xlink:href="#linear-gradient-3"/><linearGradient id="linear-gradient-6" x1="-11994.18" y1="813.37" x2="-11876.68" y2="813.37" xlink:href="#linear-gradient-2"/><linearGradient id="linear-gradient-7" x1="-12001.47" y1="813.96" x2="-11883.97" y2="813.96" xlink:href="#linear-gradient-2"/><linearGradient id="linear-gradient-8" x1="-11994.18" y1="809.73" x2="-11876.68" y2="809.73" xlink:href="#linear-gradient-2"/><linearGradient id="linear-gradient-9" x1="-11994.18" y1="810.16" x2="-11876.68" y2="810.16" xlink:href="#linear-gradient-2"/><linearGradient id="linear-gradient-10" x1="-10194.97" y1="-1166.52" x2="-10178.5" y2="-1185.78" gradientTransform="matrix(0.07, -0.11, -0.11, -0.07, 663.31, -1223.49)" xlink:href="#linear-gradient"/><linearGradient id="linear-gradient-11" x1="-10316.86" y1="-1164.34" x2="-10199.36" y2="-1164.34" gradientTransform="matrix(0.07, -0.11, -0.11, -0.07, 663.31, -1223.49)" xlink:href="#linear-gradient-2"/><linearGradient id="linear-gradient-12" x1="-10302.67" y1="-1176.15" x2="-10232.65" y2="-1176.15" gradientTransform="matrix(0.07, -0.11, -0.11, -0.07, 663.31, -1223.49)" xlink:href="#linear-gradient-3"/><linearGradient id="linear-gradient-13" x1="-10310.26" y1="-1163.26" x2="-10192.76" y2="-1163.26" gradientTransform="matrix(0.07, -0.11, -0.11, -0.07, 663.31, -1223.49)" xlink:href="#linear-gradient-2"/><linearGradient id="linear-gradient-14" x1="-10301.69" y1="-1164.87" x2="-10239.94" y2="-1164.87" gradientTransform="matrix(0.07, -0.11, -0.11, -0.07, 663.31, -1223.49)" xlink:href="#linear-gradient-3"/><linearGradient id="linear-gradient-15" x1="-10310.26" y1="-1175.42" x2="-10192.76" y2="-1175.42" gradientTransform="matrix(0.07, -0.11, -0.11, -0.07, 663.31, -1223.49)" xlink:href="#linear-gradient-2"/><linearGradient id="linear-gradient-16" x1="-10317.55" y1="-1174.83" x2="-10200.04" y2="-1174.83" gradientTransform="matrix(0.07, -0.11, -0.11, -0.07, 663.31, -1223.49)" xlink:href="#linear-gradient-2"/><linearGradient id="linear-gradient-17" x1="-10310.26" y1="-1179.06" x2="-10192.76" y2="-1179.06" gradientTransform="matrix(0.07, -0.11, -0.11, -0.07, 663.31, -1223.49)" xlink:href="#linear-gradient-2"/><linearGradient id="linear-gradient-18" x1="-10310.26" y1="-1178.63" x2="-10192.76" y2="-1178.63" gradientTransform="matrix(0.07, -0.11, -0.11, -0.07, 663.31, -1223.49)" xlink:href="#linear-gradient-2"/></defs><g id="Layer_2" data-name="Layer 2"><g id="Layer_1-2" data-name="Layer 1"><g id="g8927"><g id="g7248"><path id="path7258" class="cls-1" d="M33.25,3.65A5.3,5.3,0,0,0,33,5.07l.76.37a9.8,9.8,0,0,1,.06-1.36v0a8.12,8.12,0,0,0,0,1.34A13.51,13.51,0,0,0,35,4.35a1.6,1.6,0,0,0-.85-.9S33.46,3.18,33.25,3.65Z"/><path id="path7260" class="cls-2" d="M35.23,7.48h0l0,0h0Z"/><path id="path7262" class="cls-2" d="M35.69,8.8l-.06.07Z"/><path id="path7264" class="cls-2" d="M35.26,12.84s0,0,0,0c-.07-.24-.13-.47-.19-.69s-.13-.5-.19-.74-.13-.5-.18-.74-.12-.49-.17-.73-.08-.37-.11-.56a1.36,1.36,0,0,1,0-.17c0-.12,0-.24-.07-.35l-.06-.31s0-.06,0-.09v0l0,0-.08,0a0,0,0,0,0,0,0c0,.15.05.3.08.46a2.56,2.56,0,0,0,0,.27c0,.24.09.49.15.74s.11.5.16.75.12.48.17.72l.18.72c.07.25.13.49.2.73,0,.06,0,.11,0,.17s.11.38.16.57l.13.06,0,0h0Q35.35,13.19,35.26,12.84Z"/><path id="path7268" class="cls-3" d="M35.89,9.49l-.11.11h0a.12.12,0,0,0,0,0Z"/><path id="path7270" class="cls-4" d="M35.89,9.49l-.11.11h0a.12.12,0,0,0,0,0Z"/><path id="path7272" class="cls-3" d="M35.61,8.88h0l.06-.07a.6.6,0,0,1-.08.08Z"/><path id="path7274" class="cls-4" d="M35.61,8.88h0l.06-.07a.6.6,0,0,1-.08.08Z"/><path id="path7286" class="cls-5" d="M34,7.68c0-.25-.07-.5-.1-.75s0-.5-.07-.75v0c0-.24,0-.47,0-.7L33,5.07s0,.09,0,.14,0,.38,0,.58,0,.47,0,.72l0,.71c0,.21,0,.42,0,.64v0l1,.51C34.07,8.15,34,7.92,34,7.68Z"/><path id="path7298" class="cls-6" d="M35.5,13.68c0,.19.11.39.17.58h0a.19.19,0,0,0,0,.08c0,.14.08.26.17.53a1,1,0,0,1,.58.14.8.8,0,0,0-.56-.3,1.8,1.8,0,0,0,1-1.59l0-.17a.71.71,0,0,1-.41.61h0a2,2,0,0,0,.33-1.26c0-.11,0-.21,0-.33a1.65,1.65,0,0,1-.94,1.31l-.31.28Z"/><path id="path7310" class="cls-7" d="M35.1,12.81c-.06-.24-.13-.48-.19-.73l-.18-.71c-.06-.25-.12-.49-.17-.73s-.12-.5-.17-.75l-.15-.74c0-.09,0-.18-.05-.27s0-.31-.08-.46v0l-1-.52v0c0,.23,0,.46.07.69s0,.48.09.72l.09.6,0,.12a6.5,6.5,0,0,0,.15.72c.06.26.12.5.19.73s.08.28.13.42l.12.34a7.19,7.19,0,0,0,.32.76l1,.52c-.06-.19-.11-.38-.16-.57Z"/><path id="path7322" class="cls-8" d="M34.3,13.07a7.87,7.87,0,0,0,.47.86l0,0A2.16,2.16,0,0,0,34,13.9a2.82,2.82,0,0,1,1.25.73,1.25,1.25,0,0,1-.59.3,1.32,1.32,0,0,0,.65-.06,1.56,1.56,0,0,0-.39.77,1.63,1.63,0,0,1,.64-.68c.3,1,.67,2.12,1.08,3.27a.31.31,0,0,0,.05-.29c-.08-.2-.56-1.58-1.12-3.44,0-.05,0-.11,0-.16l0-.05c-.05-.19-.11-.39-.17-.6,0,0,0-.09,0-.14h0l-1-.52S34.3,13.05,34.3,13.07Z"/><path id="path7334" class="cls-9" d="M34.23,8.42s0,.06,0,.09l.06.31c0,.11.05.23.07.35a1.36,1.36,0,0,0,0,.17c0,.19.07.37.11.56s.11.48.17.73.11.48.18.74.12.48.19.74.12.45.19.69c0,0,0,0,0,0,.06.23.13.47.2.72h0l.31-.28h0a2.94,2.94,0,0,0,.75-1.66,4.06,4.06,0,0,0,0-.92,6.91,6.91,0,0,0-.15-.8c-.06-.24-.13-.5-.22-.77a1.77,1.77,0,0,1-.24.34l-.05.06-.06,0h0A1.77,1.77,0,0,0,36,8.27a1.73,1.73,0,0,1-.3.53l-.07.07,0,0h0a1.72,1.72,0,0,0,.2-.44s0-.06,0-.09l0-.14a.28.28,0,0,1,0-.09V7.91a.15.15,0,0,1,0-.07s0-.06,0-.09a2.78,2.78,0,0,0-.08-.38.57.57,0,0,0,0-.14s0,0,0-.06,0-.09-.05-.13l0-.13h0a.36.36,0,0,1,0,.07,2.07,2.07,0,0,1-.34.49l.28-.26-.28.26h0s0,0,0,0h0l-1,.89Z"/><path id="path7346" class="cls-10" d="M33.85,5.42c0,.21,0,.45.06.71v0c0,.24.05.48.09.76s.06.48.1.74.08.47.13.73l1-.89a1.54,1.54,0,0,0,.25-.87c0-.08,0-.16,0-.24,0-.25,0-.51-.09-.77A5.74,5.74,0,0,0,35.19,5a2.42,2.42,0,0,0-.11-.35c0-.09-.07-.17-.1-.24A15.11,15.11,0,0,1,33.85,5.42Z"/><path id="path7348" class="cls-3" d="M35.84,9.55a.34.34,0,0,0-.06.06h0Z"/><path id="path7350" class="cls-4" d="M35.84,9.55a.34.34,0,0,0-.06.06h0Z"/><path id="path7362" class="cls-11" d="M35.84,9.55a.34.34,0,0,0-.06.06h0Z"/><path id="path7364" class="cls-3" d="M35.61,8.89l0,0a0,0,0,0,0,0,0Z"/><path id="path7366" class="cls-4" d="M35.61,8.89l0,0a0,0,0,0,0,0,0Z"/><path id="path7378" class="cls-12" d="M35.61,8.89l0,0a0,0,0,0,0,0,0Z"/></g><g id="text5492"><path id="path4317" d="M3.62,0H7.17a.73.73,0,0,1,.52.15.43.43,0,0,1,.15.33c0,.13,0,.26.07.39s.06.47.08.72.08.47.11.72c.16.91.29,1.84.39,2.78S8.75,7,8.91,7.9A8.47,8.47,0,0,1,9,8.8a8.67,8.67,0,0,0,.13.89l0,.22a.28.28,0,0,0,.11.17l.07,0s.06,0,.11,0a.44.44,0,0,0,.28-.26A3.61,3.61,0,0,1,10,9.45l.5-1c.16-.33.33-.67.52-1l1.39-2.66c.48-.9.95-1.8,1.42-2.7.12-.23.23-.46.35-.67l.37-.7.19-.35a.93.93,0,0,1,.31-.28A.61.61,0,0,1,15.4,0h3.74a.43.43,0,0,1,.31.09c.14.08.19.25.13.5s-.09.47-.13.72l-.66,3.26-1.63,8.1-.37,1.9c0,.16-.07.32-.11.47a.53.53,0,0,1-.22.33.67.67,0,0,1-.34.13H14.05l-.29-.06a.27.27,0,0,1-.17-.16.41.41,0,0,1,0-.28c0-.11,0-.24.08-.37l.22-1.11L15,7.93q0-.31.09-.57c0-.19.08-.38.11-.57l.09-.35a1.61,1.61,0,0,0,0-.37,1.71,1.71,0,0,1,0-.32c0-.12,0-.19-.07-.22s-.08,0-.1,0l-.07.07a1.07,1.07,0,0,0-.2.22l-.13.21-.39.68c-.11.23-.25.46-.39.69l-.13.27A1.26,1.26,0,0,1,13.7,8c-.12.19-.23.37-.33.56s-.19.38-.3.57a.52.52,0,0,0-.07.15.31.31,0,0,1-.06.13,2.86,2.86,0,0,0-.24.42,2.32,2.32,0,0,1-.24.43,3.38,3.38,0,0,0-.24.41,2.58,2.58,0,0,1-.22.44c-.26.42-.5.85-.72,1.28s-.44.85-.67,1.27a.22.22,0,0,0-.09.13.17.17,0,0,1-.07.13c-.1.16-.19.33-.28.5a3.77,3.77,0,0,1-.26.48l-.17.28a1.07,1.07,0,0,1-.2.22.83.83,0,0,1-.24.11,1.1,1.1,0,0,0-.28,0h-.5l-.37,0H7.73a2.23,2.23,0,0,1-.37,0,.38.38,0,0,1-.24-.09.5.5,0,0,1-.19-.23,3,3,0,0,0-.09-.35c0-.18,0-.35-.07-.53a3.2,3.2,0,0,0-.08-.54l0-.2A2.34,2.34,0,0,1,6.58,13a3.39,3.39,0,0,0-.09-.57v-.11a.69.69,0,0,0,0-.13,2.47,2.47,0,0,1-.09-.41,3.18,3.18,0,0,0-.06-.43v-.11a.31.31,0,0,0,0-.11c0-.15,0-.29-.07-.44a1.59,1.59,0,0,0-.06-.43c-.06-.29-.11-.6-.16-.92a9.05,9.05,0,0,0-.13-.93q-.09-.55-.15-1.11a4.88,4.88,0,0,0-.2-1.09,1.8,1.8,0,0,0-.13-.5l-.08-.07s-.05,0-.09,0a.33.33,0,0,0-.18.22,1.11,1.11,0,0,1-.08.3.76.76,0,0,0-.11.33,3,3,0,0,0,0,.33c0,.16-.07.32-.11.48s-.07.31-.11.47l-1.16,5.8-.21,1.06L3.14,15a.49.49,0,0,1-.13.28.52.52,0,0,1-.37.2,1.15,1.15,0,0,1-.33,0L2,15.5H.4a.47.47,0,0,1-.31-.13A.41.41,0,0,1,0,15l.09-.47.37-1.92,1.63-8.1.61-3c0-.08,0-.19,0-.3s.06-.26.08-.37S2.89.6,2.92.5A1.83,1.83,0,0,1,3,.24.82.82,0,0,1,3.42,0h.09l.11,0Z"/><path id="path4319" d="M29.64,14.65a2.59,2.59,0,0,1,0,.48.42.42,0,0,1-.29.33.87.87,0,0,1-.32.06H27.07a.42.42,0,0,1-.26-.11.36.36,0,0,1-.17-.23.55.55,0,0,0-.16-.29.17.17,0,0,0-.1-.06s-.08,0-.16,0a1.22,1.22,0,0,0-.24.1,1.06,1.06,0,0,1-.21.11,2.69,2.69,0,0,1-.29.16l-.28.13a4.23,4.23,0,0,1-.63.21l-.65.16a1.35,1.35,0,0,1-.33,0l-.28,0h-.14a.28.28,0,0,1-.13,0H22.8a1.55,1.55,0,0,1-.43,0h-.2a1,1,0,0,0-.3,0,.46.46,0,0,1-.26,0l-.39-.09a.76.76,0,0,1-.35-.11,2.88,2.88,0,0,1-1-.61,2,2,0,0,1-.5-1,2.72,2.72,0,0,1-.07-.33,2.42,2.42,0,0,0,0-.37.74.74,0,0,1,0-.21.6.6,0,0,0,0-.22,2.23,2.23,0,0,1,0-.26,1.46,1.46,0,0,1,.08-.31,1.35,1.35,0,0,0,.11-.37l.22-.48a3.16,3.16,0,0,1,.28-.45,3.69,3.69,0,0,1,1-1,5.71,5.71,0,0,1,1.35-.57,3.2,3.2,0,0,1,.61-.15l.63-.11a1.45,1.45,0,0,1,.37,0L24.48,9a.8.8,0,0,1,.31,0,1.48,1.48,0,0,0,.34,0,1.18,1.18,0,0,1,.31,0,1.35,1.35,0,0,0,.33,0c.32-.07.61-.13.87-.17a1.82,1.82,0,0,0,.78-.4,1.58,1.58,0,0,0,.35-.43.65.65,0,0,0,0-.11.29.29,0,0,1,0-.09.17.17,0,0,0,.05-.13.68.68,0,0,1,0-.13V7.05a1.06,1.06,0,0,0-.74-.89,2.2,2.2,0,0,0-.46-.09,3.17,3.17,0,0,0-.54,0,3.66,3.66,0,0,0-.57,0,2.82,2.82,0,0,0-.46.11.79.79,0,0,0-.28.13,1.74,1.74,0,0,0-.26.15,1.9,1.9,0,0,0-.28.24,1,1,0,0,0-.22.28c-.1.15-.19.28-.26.41a.55.55,0,0,1-.37.27,2.21,2.21,0,0,1-.37,0H21.87l-.24,0-.18,0h-.19a.2.2,0,0,0-.11,0,.16.16,0,0,1-.11,0c-.1,0-.16-.12-.17-.28a.6.6,0,0,1,0-.22L21,7a3.61,3.61,0,0,1,.22-.44,3.77,3.77,0,0,1,.26-.39l.17-.22.18-.22a2.59,2.59,0,0,1,.52-.45.55.55,0,0,0,.15-.11L22.72,5A1.36,1.36,0,0,1,23,4.86a3.54,3.54,0,0,1,.85-.37c.3-.11.61-.2.91-.29l.57-.09A4,4,0,0,0,25.87,4a.6.6,0,0,1,.27,0,.43.43,0,0,0,.24,0,11.29,11.29,0,0,1,1.67.06,5.59,5.59,0,0,1,1.42.33,2.76,2.76,0,0,1,1,.65,1.81,1.81,0,0,1,.54,1,2.42,2.42,0,0,1,0,.85c0,.32-.1.65-.17,1l-1,4.86c0,.27-.09.56-.15.85a3,3,0,0,0-.07.76.44.44,0,0,1,0,.15v.13ZM27.12,11.3a1.4,1.4,0,0,0,.06-.24,1.28,1.28,0,0,0,0-.26,1.66,1.66,0,0,1,0-.24.14.14,0,0,0-.06-.17.43.43,0,0,0-.31-.09l-.15,0-.17,0-.33.07-.37.06a.47.47,0,0,1-.19,0,4.37,4.37,0,0,1-.59.08,2.87,2.87,0,0,0-.57.11l-.35.09a.86.86,0,0,0-.3.09,2.49,2.49,0,0,0-.89.58,1.68,1.68,0,0,0-.46,1.09,1,1,0,0,0,.13.61.73.73,0,0,0,.37.39,2.45,2.45,0,0,0,.63.2,3,3,0,0,0,.74,0,4.5,4.5,0,0,0,.78-.15,2.45,2.45,0,0,0,1-.54,3.47,3.47,0,0,0,.69-1,1.63,1.63,0,0,0,.11-.31,1.58,1.58,0,0,1,.13-.34l.05-.2Z"/><path id="path4321" class="cls-2" d="M33.61,4.29H35.2l.46,0A.57.57,0,0,1,36,4.4a.63.63,0,0,1,.22.56,4.28,4.28,0,0,0,.09.7c.06.48.11,1,.15,1.48s.1,1,.15,1.48.1.71.13,1.07.08.71.13,1c0,.13,0,.27.05.42a.26.26,0,0,0,.28.22.21.21,0,0,1,.09,0l.06-.06.16-.22.13-.24a2.17,2.17,0,0,0,.26-.5,3,3,0,0,1,.26-.5c.32-.61.63-1.22.94-1.83s.61-1.24.93-1.85a3,3,0,0,0,.28-.52c.09-.19.18-.37.27-.53l.17-.35A1,1,0,0,1,41,4.44a1.86,1.86,0,0,1,.31-.13.52.52,0,0,1,.28,0H43l.43,0a.39.39,0,0,1,.31.11c.07.07.08.18,0,.33a2.1,2.1,0,0,1-.13.32c-.12.21-.23.42-.35.66s-.23.42-.35.63-.11.2-.15.3l-.13.26c-.1.16-.2.32-.28.48l-.26.48A1,1,0,0,1,42,8a.52.52,0,0,1-.06.13c-.13.22-.26.45-.37.68l-.35.65q-.37.66-.72,1.35c-.23.45-.48.9-.74,1.33-.12.2-.23.41-.33.61s-.19.39-.3.59a2.19,2.19,0,0,0-.11.19l-.11.18c-.09.16-.17.32-.26.5a3.77,3.77,0,0,1-.26.48l-.29.46a.71.71,0,0,1-.37.28,1.32,1.32,0,0,1-.39.06l-.39,0H35.05a.7.7,0,0,1-.37-.09.48.48,0,0,1-.18-.26c0-.11,0-.24,0-.37a4.29,4.29,0,0,1-.11-.54c0-.19,0-.37-.07-.55a.77.77,0,0,1,0-.15,1.37,1.37,0,0,0,0-.19,4.85,4.85,0,0,1-.09-.55,3.43,3.43,0,0,0-.08-.56.81.81,0,0,1,0-.2.86.86,0,0,0,0-.22,2.63,2.63,0,0,1-.06-.39c0-.14,0-.28-.07-.41a.69.69,0,0,1,0-.13.43.43,0,0,0,0-.16c0-.13,0-.26-.07-.39a3.12,3.12,0,0,0-.06-.41c-.06-.34-.11-.68-.15-1s-.09-.71-.13-1.06a9.69,9.69,0,0,1-.2-1.18q0-.6-.15-1.2L33,4.88a.78.78,0,0,1,0-.16.48.48,0,0,1,.09-.19.51.51,0,0,1,.35-.22l.15,0Z"/><path id="path4323" d="M54.89,9.8a1.08,1.08,0,0,1-.09.39.49.49,0,0,1-.21.28.78.78,0,0,1-.33.13l-.48.05h-.5l-.43,0H47.23a.6.6,0,0,0-.24.05.64.64,0,0,0-.26.17.84.84,0,0,0-.13.18.35.35,0,0,0-.07.21.62.62,0,0,1,0,.27,2.32,2.32,0,0,0,0,.24,3.22,3.22,0,0,0,.24.87,2,2,0,0,0,.57.58.84.84,0,0,0,.33.16,1.53,1.53,0,0,1,.37.08,3.07,3.07,0,0,0,.45.07,2.41,2.41,0,0,0,.55,0h.19l.42-.09.39-.13c.16-.07.34-.17.54-.28a2.3,2.3,0,0,0,.48-.35,3.83,3.83,0,0,1,.28-.29,1,1,0,0,1,.33-.21,1.14,1.14,0,0,1,.57-.09h.89a.54.54,0,0,1,.26,0h.22a.85.85,0,0,1,.28.11c.05,0,.06.1.05.2a.53.53,0,0,1-.07.26,4.63,4.63,0,0,1-.37.54q-.18.24-.39.48a5.87,5.87,0,0,1-1.31,1.16,7.41,7.41,0,0,1-1.67.74,2.55,2.55,0,0,1-.51.1l-.52.09a.31.31,0,0,1-.19,0l-.18,0h-.24a.57.57,0,0,1-.26,0,.88.88,0,0,1-.24,0h-.3a.59.59,0,0,1-.29,0,.61.61,0,0,0-.24,0,.43.43,0,0,1-.21,0,4.1,4.1,0,0,1-.48-.1,1,1,0,0,1-.39-.16l-.42-.15a2,2,0,0,1-.35-.2,4.94,4.94,0,0,1-1-1,4,4,0,0,1-.61-1.35,4,4,0,0,1-.09-.48,2.37,2.37,0,0,0-.06-.52v-.15a1.11,1.11,0,0,0,0-.17,2.71,2.71,0,0,1,0-.57l.09-.61a1.66,1.66,0,0,0,0-.24.84.84,0,0,1,.06-.24l.07-.26L44,8.93l.29-.72a3,3,0,0,1,.32-.65A7.66,7.66,0,0,1,48.4,4.35a3.21,3.21,0,0,1,.66-.17L49.75,4a1.94,1.94,0,0,1,.33,0l.33,0a5,5,0,0,1,1.85.27,4.24,4.24,0,0,1,1.28.69,1.93,1.93,0,0,1,.33.31,1.65,1.65,0,0,1,.28.32.38.38,0,0,0,.15.18,2.81,2.81,0,0,1,.22.5c.07.16.15.33.24.5a2.71,2.71,0,0,1,.09.41c0,.13.06.28.09.44a5.47,5.47,0,0,1,0,.59l0,.61a1.55,1.55,0,0,1-.06.39.94.94,0,0,0,0,.37l0,.24Zm-3-1.29A.57.57,0,0,0,52,8c0-.22,0-.38-.07-.48a1.69,1.69,0,0,0-.63-.89A2.25,2.25,0,0,0,50,6.27a.16.16,0,0,1-.15,0h-.15l-.26.07a.61.61,0,0,0-.24,0,3,3,0,0,0-1.66,1.2l-.15.24a1,1,0,0,0-.13.28.85.85,0,0,0,0,.26.28.28,0,0,0,.11.22.82.82,0,0,0,.46.11h3.64A.63.63,0,0,0,51.87,8.51Z"/><path id="path4325" d="M64.28,4a4.13,4.13,0,0,1,2.09.37A2.25,2.25,0,0,1,67.5,5.6a1.29,1.29,0,0,1,.13.52c0,.17.05.35.07.54a1.82,1.82,0,0,1,0,.33.76.76,0,0,0,0,.3c0,.09,0,.15,0,.18q0,.3-.09.63c0,.22-.09.43-.13.63l-.37,1.94-.72,3.53c-.06.27-.12.54-.17.8a.61.61,0,0,1-.42.48.91.91,0,0,1-.3,0H64a3.1,3.1,0,0,1-.45,0,.43.43,0,0,1-.29-.19.68.68,0,0,1,0-.33l.09-.46.3-1.52.66-3.25c.1-.53.17-1,.21-1.48a2,2,0,0,0-.15-1.17,1.19,1.19,0,0,0-.76-.61.6.6,0,0,0-.24,0,.57.57,0,0,1-.22,0,1.3,1.3,0,0,0-.28,0l-.24,0a.62.62,0,0,1-.18,0l-.13,0a3.16,3.16,0,0,0-.87.34,2.73,2.73,0,0,0-1.13,1.46,21.25,21.25,0,0,0-.54,2.16l-.55,2.72-.26,1.33-.09.39a1,1,0,0,1-.13.33.59.59,0,0,1-.41.28,3.34,3.34,0,0,1-.59,0H56.57a3.85,3.85,0,0,1-.48,0q-.24,0-.3-.15a.71.71,0,0,1,0-.57c0-.24.1-.48.15-.69l.59-3,.95-4.79.24-1.11c0-.16.06-.31.09-.44a.57.57,0,0,1,.2-.33.22.22,0,0,1,.15-.08l.22-.07h.11l.21,0h1.16l.32,0a1.37,1.37,0,0,1,.31,0,.25.25,0,0,1,.15.2,1,1,0,0,1,0,.31.39.39,0,0,1,0,.15.28.28,0,0,0,0,.13.34.34,0,0,0,.05.13l.11.06a.49.49,0,0,0,.41-.15,1.7,1.7,0,0,1,.39-.3A6.39,6.39,0,0,1,63,4.18l.41-.09L63.91,4a.33.33,0,0,1,.2,0Z"/></g><g id="text9112"><path id="path4328" d="M69.67,4s0,0,0,.07a.2.2,0,0,1,0,.11v0a.43.43,0,0,1,0,.07l-.06,0h-.36s-.06,0-.09.08a.07.07,0,0,0,0,0v.06l-.21,1v0a0,0,0,0,1,0,0v.06l0,0a.07.07,0,0,1,0,0h-.25a.13.13,0,0,1-.1,0,.13.13,0,0,1,0-.06s0,0,0-.08l.2-1v0a.08.08,0,0,0,0,0V4.41s0-.08,0-.09l-.12,0h-.26a.08.08,0,0,1,0-.07s0-.07,0-.11v0s0,0,0-.05l0,0,0,0h1.28l0,0ZM72,4a.15.15,0,0,1,0,.07s0,0,0,.08L71.7,5.57a.29.29,0,0,1,0,.09l0,.06a.13.13,0,0,1-.1,0h-.22a.07.07,0,0,1,0,0V5.57a0,0,0,0,1,0,0v0L71.42,5l0-.11s0-.06,0-.09,0,0,0,0,0,0,0,0a0,0,0,0,0,0,0l0,0a.36.36,0,0,0-.08.12l-.07.12a2.54,2.54,0,0,0-.16.28l-.15.26s-.05.09-.07.14a.27.27,0,0,1-.1.11l-.06,0h-.17l0,0s0,0,0,0v0a.24.24,0,0,1,0-.08s0-.06,0-.09,0-.17,0-.25a2,2,0,0,0,0-.26l0-.15a.28.28,0,0,0,0-.13h0l0,0s0,0,0,0,0,0,0,0v.07l0,0V5l-.11.5a.78.78,0,0,1,0,.14.23.23,0,0,1,0,.11l0,0h-.25l-.08,0s0,0,0-.06a.28.28,0,0,1,0-.09l.29-1.43s0-.06,0-.08L70,4,70,4h.42a.08.08,0,0,1,.07,0,.15.15,0,0,1,0,.08.43.43,0,0,0,0,.11c0,.08,0,.16,0,.24s0,.17,0,.25a.7.7,0,0,1,0,.14l0,.13s0,0,0,.06,0,0,0,0h0l0,0a.23.23,0,0,0,.07-.1.61.61,0,0,1,.07-.1c.06-.1.11-.2.16-.3l.18-.29s0-.08.07-.13a.18.18,0,0,1,.1-.09h.38a0,0,0,0,1,0,0h0s0,0,0,0Z"/></g><g id="g4701"><path id="path4710" class="cls-13" d="M43.18,3.84a6.2,6.2,0,0,0-1.29,1l.32.9a9.66,9.66,0,0,1,1.12-1,.12.12,0,0,0,0,0s0,0,0,0a8.89,8.89,0,0,0-1.06,1.07c.45,0,1.16,0,1.75,0a1.82,1.82,0,0,0,0-1.41S43.73,3.62,43.18,3.84Z"/><path id="path4712" class="cls-2" d="M41.73,8.5h0Z"/><path id="path4714" class="cls-2" d="M41.06,9.92h0Z"/><path id="path4716" class="cls-2" d="M37.5,12.83a.08.08,0,0,0,0,0l.4-.71c.15-.25.29-.5.44-.74s.29-.5.44-.74l.44-.72c.12-.18.24-.36.35-.54a1.63,1.63,0,0,0,.11-.17l.22-.33.2-.29s.05-.07.06-.1h0l0-.09,0,0-.3.43c0,.09-.11.17-.17.26s-.31.47-.47.71l-.46.74-.44.72c-.14.24-.29.48-.42.72l-.43.74-.09.17-.33.59.05.14h.06v0C37.23,13.32,37.37,13.07,37.5,12.83Z"/><path id="path4720" class="cls-3" d="M40.67,10.64h0Z"/><path id="path4722" class="cls-4" d="M40.67,10.64h0Z"/><path id="path4724" class="cls-3" d="M40.92,9.93Z"/><path id="path4726" class="cls-4" d="M40.92,9.93Z"/><path id="path4737" class="cls-14" d="M40.59,7.68,41.1,7c.18-.23.36-.44.54-.66l0,0,.54-.6-.32-.9-.12.11c-.15.14-.31.29-.47.46s-.37.37-.57.58l-.54.59c-.16.18-.32.36-.47.55l0,0,.41,1.22Z"/><path id="path4748" class="cls-15" d="M37,13.7l-.33.61h0l-.05.08c-.07.14-.13.27-.28.56a1.17,1.17,0,0,1,.36.57,1,1,0,0,0-.21-.68,2,2,0,0,0,2-.5l.12-.16a.82.82,0,0,1-.81.17h0a2.32,2.32,0,0,0,1.26-.76c.08-.09.15-.19.23-.3a1.82,1.82,0,0,1-1.8.3h-.47Z"/><path id="path4759" class="cls-16" d="M37.4,12.69l.42-.74c.14-.24.28-.48.43-.72s.29-.49.44-.73.3-.49.46-.73.31-.48.47-.72l.17-.25.3-.44v0l-.4-1.22,0,0c-.16.2-.33.4-.49.61s-.33.42-.5.65l-.4.56a1,1,0,0,1-.08.11l-.45.7c-.16.26-.29.5-.42.73l-.23.45c-.06.12-.12.25-.17.37a8.31,8.31,0,0,0-.35.87L37,13.44l.32-.58Z"/><path id="path4770" class="cls-17" d="M36.55,12.26a8.15,8.15,0,0,0-.31,1.07v0a2.25,2.25,0,0,0-.58-.66,3.09,3.09,0,0,1,.43,1.58,1.49,1.49,0,0,1-.71-.23,1.54,1.54,0,0,0,.57.47,1.81,1.81,0,0,0-.93.3,1.8,1.8,0,0,1,1.05,0c-.56,1.06-1.13,2.24-1.72,3.49a.38.38,0,0,0,.27-.19c.1-.23.8-1.72,1.83-3.66l.09-.17,0,0,.34-.62c0-.05.05-.1.08-.14h0l-.41-1.22Z"/><path id="path4781" class="cls-18" d="M40.18,8.45l-.06.1-.2.29-.22.33a1.63,1.63,0,0,1-.11.17c-.11.18-.23.36-.35.54l-.44.72c-.15.24-.29.48-.44.74s-.29.49-.44.74l-.4.71a.08.08,0,0,1,0,0l-.4.74v0h.44a3.29,3.29,0,0,0,1.92-.73,4.42,4.42,0,0,0,.73-.76,8.12,8.12,0,0,0,.51-.75c.14-.25.29-.51.43-.81a1.57,1.57,0,0,1-.46.09h-.18a2,2,0,0,0,1.24-.9,2,2,0,0,1-.66.18h-.14a2.26,2.26,0,0,0,.5-.19l.09-.05.13-.1.08-.06a1.53,1.53,0,0,0,.18-.18L42,9.28,42,9.19c.09-.13.17-.26.23-.36s.06-.11.09-.16l0-.05a1.47,1.47,0,0,0,.06-.14.77.77,0,0,0,.06-.15h0l-.07,0a2.28,2.28,0,0,1-.67.13l.44,0-.44,0h-.06l-1.49-.06S40.19,8.45,40.18,8.45Z"/><path id="path4792" class="cls-19" d="M42.27,5.74l-.53.62,0,0-.53.67c-.16.21-.33.44-.5.69s-.32.44-.48.68l1.48.05A1.76,1.76,0,0,0,42.57,8l.18-.2c.19-.21.37-.45.54-.68s.31-.46.43-.67a3.28,3.28,0,0,0,.19-.37c0-.1.07-.19.1-.28C43.43,5.79,42.72,5.78,42.27,5.74Z"/><path id="path4794" class="cls-3" d="M40.58,10.64h0Z"/><path id="path4796" class="cls-4" d="M40.58,10.64h0Z"/><path id="path4807" class="cls-20" d="M40.58,10.64h0Z"/><path id="path4809" class="cls-3" d="M40.92,9.93h0Z"/><path id="path4811" class="cls-4" d="M40.92,9.93h0Z"/><path id="path4822" class="cls-21" d="M40.92,9.93h0Z"/></g></g></g></g></svg>