<svg xmlns="http://www.w3.org/2000/svg" viewBox="0 0 72.21 37.49"><defs><style>.cls-1{fill:#00678c;}.cls-1,.cls-2{fill-rule:evenodd;}.cls-2{fill:#ce8b2c;}</style></defs><g id="Layer_2" data-name="Layer 2"><g id="Layer_1-2" data-name="Layer 1"><path class="cls-1" d="M0,34.15H2.39V24.71l3.72,8.23a2,2,0,0,0,2.2,1.36,2,2,0,0,0,2.18-1.36l3.7-8.23v9.44h2.4V24.71a1.44,1.44,0,0,0-1.14-1.59c-1.81-.55-3-.07-3.57,1.15L8.23,32.41,4.71,24.27c-.53-1.22-1.76-1.7-3.59-1.15A1.45,1.45,0,0,0,0,24.71v9.44Zm18.57-7.68H21v5.19c0,.29.1.95,1.4,1,.68,0,5.17,0,5.21,0V26.44H30v8.48c0,2.09-2.59,2.55-3.8,2.57H18.63V35.9H26.2c1.54-.17,1.36-.94,1.36-1.2v-.62H22.48c-2.36,0-3.89-1.06-3.9-2.25V26.47Zm51.51-6a8.51,8.51,0,0,0-3.56.51c-.27.12-.71.12-.75.46.15.15.17.39.3.59a4.07,4.07,0,0,0,1,1.12c.38.29.77.58,1.17.84.72.44,1.52.7,2.22,1.14.4.25.81.58,1.21.86.2.15.33.38.59.48V26.4c-.13-.16-.17-.4-.3-.59l-.55-.53a8.77,8.77,0,0,0-1.9-1.85c-.59-.4-1.87-.95-2.11-1.63l0,0a7.07,7.07,0,0,0,1.27-.29c.62-.17,1.19-.13,1.83-.29l.88-.26v-.16c-.33-.33-.57-.77-.92-1.09a24.93,24.93,0,0,0-3-2.25,21,21,0,0,0-1.91-.92c-.22-.11-.58-.16-.71-.35A6.78,6.78,0,0,1,64,14.74c-.54-1-1-2.12-1.51-3.19a20.71,20.71,0,0,0-.93-2.09,18.47,18.47,0,0,0-7.1-6.85,8.46,8.46,0,0,0-2.34-.75l-1.37-.08a5.91,5.91,0,0,1-.85-.64c-1-.66-3.74-2.09-4.51-.2-.49,1.19.74,2.36,1.15,3a8.33,8.33,0,0,1,.94,1.37c.12.32.16.65.29,1a22.64,22.64,0,0,0,1,2.45,9.21,9.21,0,0,0,.67,1.14c.15.2.41.29.46.62a5.71,5.71,0,0,0-.42,1.38A8.1,8.1,0,0,0,50,18c.3.45,1,1.46,1.93,1.08s.64-1.38.88-2.29c.05-.22,0-.37.12-.52v0l.76,1.52A10.3,10.3,0,0,0,56,20.3c.44.33.79.9,1.34,1.1v-.06h0A1.82,1.82,0,0,0,56.9,21a8.8,8.8,0,0,1-.95-1.1,24.52,24.52,0,0,1-2.06-3.34c-.29-.57-.55-1.19-.78-1.76-.12-.22-.12-.55-.3-.66a6.8,6.8,0,0,0-.88,1.25,10.27,10.27,0,0,0-.51,2.76c-.08,0,0,0-.08,0-.58-.14-.78-.75-1-1.26a8,8,0,0,1-.17-4.9c.13-.38.68-1.59.46-2s-.48-.55-.68-.82a7.57,7.57,0,0,1-.66-1.18c-.44-1-.66-2.16-1.13-3.19a10.31,10.31,0,0,0-.92-1.41,8.91,8.91,0,0,1-1-1.43c-.09-.2-.22-.53-.07-.75s.11-.2.25-.24c.24-.2.92.06,1.16.17a9,9,0,0,1,1.81.91c.26.19.54.54.87.63h.38c.59.13,1.25,0,1.8.2A11.93,11.93,0,0,1,55.07,4.2a16.28,16.28,0,0,1,5.71,6.27c.22.42.32.81.52,1.25.38.9.86,1.81,1.24,2.69a12,12,0,0,0,1.31,2.46c.27.39,1.37.59,1.87.79a12.75,12.75,0,0,1,1.26.51c.62.39,1.25.83,1.83,1.25.3.22,1.21.68,1.27,1ZM51.39,4.53a3.08,3.08,0,0,0-.75.09v0h0a6.29,6.29,0,0,0,.59.75l.42.88,0,0a1.06,1.06,0,0,0,.38-.92A3.84,3.84,0,0,1,51.88,5c-.11-.18-.35-.27-.49-.42Z"/><path class="cls-2" d="M31.81,34.15H38.7a5.27,5.27,0,0,0,2.2-.45,2.17,2.17,0,0,0,1.54-2V30c0-.67-.57-1.32-1.71-1.75a6,6,0,0,0-2-.35H35.8c-1,0-1.43-.3-1.56-.94a1.55,1.55,0,0,1,0-.22V25.63a1.48,1.48,0,0,1,0-.2c.13-.5.39-.62,1.24-.72h7.05V23.12h-6.7a6.14,6.14,0,0,0-1.95.2c-1.41.44-2,1.14-2,2.37v1.39c0,1.08,1.21,2,3.26,2.22.22,0,.46,0,.7,0h2.73c.75.08,1.08.21,1.3.48a.55.55,0,0,1,.18.44v1.39a.8.8,0,0,1-.33.57,1.74,1.74,0,0,1-1,.33l-.24,0H31.81Zm25.55-2.76q0,2.45,3.68,2.73c.24,0,.46,0,.7,0H68V32.56H61.68c-1.39,0-1.92-.35-1.92-1.19V23.12H57.35v8.27ZM44,31.46V25.78c0-1.45,1-2.33,3-2.61l.64,0h4.55c.24,0,.44,0,.68,0,2,.28,3,1.16,3,2.61v5.68a2.09,2.09,0,0,1-1.41,2.22l2.35,2.12H54l-1.9-1.72-1.93.11H47.62A5.47,5.47,0,0,1,46.23,34C44.71,33.59,44,32.78,44,31.46Zm2.58-.13a1.4,1.4,0,0,0,.06.24c.13.66.75,1,1.7,1h2.17l-2-1.8h2.76L53,32.38a1.14,1.14,0,0,0,.6-.77,1,1,0,0,0,0-.24V25.92a.86.86,0,0,0,0-.22c-.13-.62-.75-1-1.69-1H48.3c-1.06,0-1.76.46-1.76,1.19Z"/></g></g></svg>