<svg xmlns="http://www.w3.org/2000/svg" viewBox="0 0 72 49.78"><defs><style>.cls-1{fill:#83cd29;}.cls-2{fill:#404137;}</style></defs><g id="Layer_2" data-name="Layer 2"><g id="Layer_1-2" data-name="Layer 1"><path class="cls-1" d="M36.17,28.17a1.58,1.58,0,0,0-.83.21L27.41,33a1.66,1.66,0,0,0-.82,1.44v9.15A1.66,1.66,0,0,0,27.41,45l2.07,1.2a3.43,3.43,0,0,0,1.84.48,2.19,2.19,0,0,0,2.34-2.47v-9a.23.23,0,0,0-.24-.22h-1a.23.23,0,0,0-.24.22v9c0,.7-.72,1.4-1.9.81l-2.15-1.26a.24.24,0,0,1-.14-.2V34.41a.26.26,0,0,1,.14-.22l7.91-4.57a.25.25,0,0,1,.24,0l7.91,4.57a.27.27,0,0,1,.13.22v9.14a.27.27,0,0,1-.11.22l-7.93,4.56a.25.25,0,0,1-.24,0l-2-1.21a.18.18,0,0,0-.2,0,5.59,5.59,0,0,1-1.19.54c-.13,0-.33.11.06.33l2.66,1.57a1.64,1.64,0,0,0,.83.22,1.58,1.58,0,0,0,.82-.22L44.92,45a1.67,1.67,0,0,0,.83-1.45V34.41A1.66,1.66,0,0,0,44.92,33L37,28.38a1.63,1.63,0,0,0-.82-.2Zm2.12,6.54c-2.26,0-3.61,1-3.61,2.56s1.34,2.21,3.51,2.42c2.59.25,2.79.63,2.79,1.14,0,.89-.7,1.27-2.37,1.27-2.1,0-2.56-.53-2.71-1.57a.23.23,0,0,0-.22-.2h-1a.24.24,0,0,0-.24.23c0,1.34.73,2.92,4.2,2.92,2.5,0,4-1,4-2.71s-1.17-2.17-3.6-2.5-2.69-.48-2.69-1.06.19-1.11,2-1.11c1.62,0,2.22.35,2.47,1.45a.23.23,0,0,0,.22.19h1a.26.26,0,0,0,.17-.09.21.21,0,0,0,.06-.17c-.15-1.89-1.41-2.77-4-2.77Z"/><path class="cls-2" d="M48.45,0a.45.45,0,0,0-.19.05.39.39,0,0,0-.19.34v9.84a.26.26,0,0,1-.13.23.26.26,0,0,1-.27,0l-1.61-.93a.81.81,0,0,0-.77,0l-6.42,3.71a.79.79,0,0,0-.39.68v7.41a.77.77,0,0,0,.39.67l6.42,3.71a.76.76,0,0,0,.77,0L52.48,22a.77.77,0,0,0,.39-.67V2.86a.82.82,0,0,0-.4-.69L48.65,0a.45.45,0,0,0-.2,0ZM7.15,9.25a.82.82,0,0,0-.34.09L.39,13.05a.76.76,0,0,0-.39.67v9.94a.38.38,0,0,0,.2.34.37.37,0,0,0,.38,0L4.4,21.81a.78.78,0,0,0,.4-.67V16.49a.74.74,0,0,1,.39-.66l1.62-.94a.73.73,0,0,1,.38-.11.77.77,0,0,1,.39.11l1.62.94a.76.76,0,0,1,.39.66v4.65a.79.79,0,0,0,.39.67L13.79,24a.39.39,0,0,0,.58-.34V13.72a.73.73,0,0,0-.38-.67L7.58,9.34a.86.86,0,0,0-.35-.09Zm57.7.09a.87.87,0,0,0-.39.1L58,13.15a.77.77,0,0,0-.39.67v7.41a.78.78,0,0,0,.4.67l6.37,3.63a.79.79,0,0,0,.76,0L69,23.39a.39.39,0,0,0,.21-.33.4.4,0,0,0-.2-.34L62.59,19a.42.42,0,0,1-.2-.35V16.35a.38.38,0,0,1,.2-.33l2-1.16a.39.39,0,0,1,.39,0L67,16a.4.4,0,0,1,.2.33v1.83a.36.36,0,0,0,.19.33.39.39,0,0,0,.39,0l3.84-2.23a.79.79,0,0,0,.39-.67V13.82a.77.77,0,0,0-.39-.67L65.23,9.44a.86.86,0,0,0-.38-.1Zm-19.2,5.53a.17.17,0,0,1,.1,0L48,16.17a.22.22,0,0,1,.11.17v2.55a.22.22,0,0,1-.11.17l-2.2,1.27a.21.21,0,0,1-.19,0l-2.2-1.27a.21.21,0,0,1-.1-.17V16.34a.21.21,0,0,1,.1-.17l2.2-1.27a.16.16,0,0,1,.09,0Z"/><path class="cls-1" d="M26.44,9.3a.77.77,0,0,0-.39.11L19.63,13.1a.78.78,0,0,0-.38.68v7.41a.76.76,0,0,0,.38.67l6.42,3.71a.83.83,0,0,0,.78,0l6.42-3.71a.76.76,0,0,0,.38-.67V13.78a.78.78,0,0,0-.38-.68L26.83,9.41a.77.77,0,0,0-.39-.11Zm38.39,6.62h-.07l-1.24.72a.14.14,0,0,0-.08.13v1.41a.14.14,0,0,0,.08.13l1.24.71a.12.12,0,0,0,.14,0l1.23-.71a.13.13,0,0,0,.08-.13V16.78a.14.14,0,0,0-.08-.13l-1.23-.72s0,0-.07,0Z"/></g></g></svg>