<svg xmlns="http://www.w3.org/2000/svg" viewBox="0 0 72 37.87"><defs><style>.cls-1{fill:#777bb3;}</style></defs><g id="Layer_2" data-name="Layer 2"><g id="Layer_1-2" data-name="Layer 1"><path class="cls-1" d="M15.34,10h7.52c2.21,0,3.81.65,4.8,1.9a6.41,6.41,0,0,1,1,5.14A9.79,9.79,0,0,1,27.77,20,8.71,8.71,0,0,1,26,22.54a6.22,6.22,0,0,1-3,1.85,13.45,13.45,0,0,1-3.31.4H16.29l-1.07,5.33h-3.9l4-20.12h0m3.28,3.2-1.68,8.42.33,0h.4a14.89,14.89,0,0,0,4.49-.53c1.19-.39,2-1.76,2.41-4.1.34-2,0-3.09-1-3.39a12.52,12.52,0,0,0-3.73-.42l-.65,0h-.59l0,0"/><path class="cls-1" d="M33.08,4.64H37L35.86,10h3.48a6.94,6.94,0,0,1,4.27,1.18c1,.74,1.23,2.17.84,4.26l-1.88,9.35H38.64l1.8-8.93a2.55,2.55,0,0,0-.17-2,2.41,2.41,0,0,0-1.94-.59l-3.11,0-2.3,11.54H29l4-20.15h0"/><path class="cls-1" d="M48.61,10h7.52c2.21,0,3.81.65,4.8,1.9a6.41,6.41,0,0,1,1,5.14A9.79,9.79,0,0,1,61,20a8.86,8.86,0,0,1-1.79,2.58,6.29,6.29,0,0,1-3,1.85,13.4,13.4,0,0,1-3.31.4H49.56L48.5,30.12H44.6l4-20.12h0m3.28,3.2-1.68,8.42.34,0h.39a14.85,14.85,0,0,0,4.49-.53q1.8-.59,2.41-4.1c.34-2,0-3.09-1-3.39a12.48,12.48,0,0,0-3.73-.42l-.64,0h-.59l0,0"/><path class="cls-1" d="M36,0C16.12,0,0,8.48,0,18.94S16.12,37.87,36,37.87,72,29.4,72,18.94,55.88,0,36,0Zm0,36.47c-19.11,0-34.59-7.85-34.59-17.53S16.89,1.41,36,1.41,70.59,9.26,70.59,18.94,55.11,36.47,36,36.47Z"/></g></g></svg>