<svg xmlns="http://www.w3.org/2000/svg" viewBox="0 0 72 40.14"><defs><style>.cls-1{fill:#ccc;}.cls-2{fill:none;stroke:#ccc;stroke-linecap:round;stroke-linejoin:round;stroke-width:0.27px;}.cls-3{fill:#6c78af;}.cls-4{fill:#f89c0e;}</style></defs><g id="Layer_2" data-name="Layer 2"><g id="Layer_1-2" data-name="Layer 1"><path class="cls-1" d="M53.48.11l0-.07a.1.1,0,0,0-.07,0l-.08,0s-.06.06-.06.09l-1.6,29,.25,0L53.42.86l1.85,3h0A35.13,35.13,0,0,1,57,17l.12.17,1.82,3.24.12.12a22.05,22.05,0,0,0,9.44,5l.84,1.38.12,0,0,0L53.44.66l0-.55m-.57,10.23q3,6.09,2.17,18.38l7.71-.95ZM70.47,28.15A2.54,2.54,0,0,0,72,27.64L31.66,32.56A4.53,4.53,0,0,0,33.9,36.5a4.86,4.86,0,0,0,1.19.62,4.69,4.69,0,0,1,1.22-1h0c4.22-2.56,10.5-3,18.79-1.21l.09,0c.91.19,1.81.42,2.66.68a.73.73,0,0,0,.62-.19,3.21,3.21,0,0,1,1.19-.51h0a12.73,12.73,0,0,1,5.41-5.28,15.4,15.4,0,0,1,5.38-1.47m-19.37.73L53,.58A95.81,95.81,0,0,1,40.08,29.51l11-.63M40.72,6.09l-.07,0-.08,0,0,.09L39,30.66l.22,0L40.76,6.16l0-.07m-2.14,24L40.2,6.24,31.66,30.86Z"/><path class="cls-2" d="M38.91,38.09c-2.13,1-3.67,1.19-4.65.57s-2.49-.51-4.52.45m14.17-.87A5.81,5.81,0,0,0,42.63,38,5.87,5.87,0,0,0,39.29,39a7.47,7.47,0,0,1-4.73.93m21-3.64q-13.45-2.77-19.39,1.32m25-.43a4.13,4.13,0,0,0-1.29-.27A6,6,0,0,0,56.57,38a7.81,7.81,0,0,1-4.73.92M49.15,6.31a2.28,2.28,0,0,0-2.89.47,2,2,0,0,0-2.71-.47m3.5-3.16c-.94-.57-1.86-.34-2.8.67-.93-1-1.87-1.24-2.81-.67"/><path class="cls-3" d="M1,32.65h2.5a2,2,0,0,1,1.65.64,2.17,2.17,0,0,1,.35,1.78,3.29,3.29,0,0,1-.28.87,2.72,2.72,0,0,1-.51.71,2.29,2.29,0,0,1-.85.56,3.49,3.49,0,0,1-1.21.17H1.58L1.3,39.1H0Zm1.14,1-.44,2.7h.79a1.73,1.73,0,0,0,1.16-.32A1.66,1.66,0,0,0,4.19,35a1.26,1.26,0,0,0-.13-1,1.31,1.31,0,0,0-1-.29H2.18M7,30.93H8.28L8,32.65H9.15a2.1,2.1,0,0,1,1.5.41,1.43,1.43,0,0,1,.27,1.32l-.48,3H9.13l.46-2.86a.86.86,0,0,0-.07-.66.87.87,0,0,0-.65-.17h-1l-.6,3.69H6l1-6.45m5.34,1.72h2.5a2,2,0,0,1,1.65.64,2.17,2.17,0,0,1,.34,1.78,3,3,0,0,1-.27.87,2.55,2.55,0,0,1-.52.71,2.14,2.14,0,0,1-.85.56,3.45,3.45,0,0,1-1.21.17H12.86l-.28,1.72H11.29Zm1.13,1L13,36.37h.79A1.73,1.73,0,0,0,15,36.05a1.71,1.71,0,0,0,.5-1.07,1.25,1.25,0,0,0-.14-1,1.28,1.28,0,0,0-1-.29h-.89"/><path class="cls-4" d="M19,29.56h2.49l1.1,6,3-6h2.49l-1.27,7.82H25.21l1.12-6.09-3.06,6.09H21.46l-1.15-6.15-.82,6.15H17.75L19,29.56m12.11,6.55H32.4l.72-4.47h1.57l-.91,5.58A2.66,2.66,0,0,1,33,38.91a2.62,2.62,0,0,1-1.77.55H28.11l.19-1.16h2.81a1.14,1.14,0,0,0,.72-.21,1,1,0,0,0,.35-.62v-.09H30.8A2.48,2.48,0,0,1,29,36.87a1.94,1.94,0,0,1-.3-1.69l.58-3.54h1.55l-.56,3.42c-.07.43-.05.72.07.85s.38.2.8.2m7.78-6.55h1.8l2.19,7.82H41l-.44-1.86H37.05l-1,1.86H34.22Zm.58,1.56-1.67,3h2.42l-.75-3m9.32,6.26h-3a2.42,2.42,0,0,1-2-.78,2.6,2.6,0,0,1-.42-2.16,3.58,3.58,0,0,1,.33-1,3.46,3.46,0,0,1,.62-.87,2.88,2.88,0,0,1,1-.68,4.59,4.59,0,0,1,1.46-.2h1.35l.33-2.08h1.56Zm-1.36-1.23L48,32.88H47a2.17,2.17,0,0,0-1.42.38,2.06,2.06,0,0,0-.6,1.29,1.15,1.15,0,0,0,1.36,1.6Zm3.65-4.51h6a2.55,2.55,0,0,1,1.81.49,1.79,1.79,0,0,1,.32,1.61l-.59,3.64H57.08l.56-3.44a1.14,1.14,0,0,0-.07-.84,1.06,1.06,0,0,0-.78-.2h-.88l-.72,4.48h-1.6l.72-4.48H52.48l-.73,4.48H50.18l.92-5.74M62.74,31H61.1l.23-1.43H63Zm-1,6.39H60.06L61,31.64h1.64l-.92,5.74M64,31.64h2.95a2.59,2.59,0,0,1,1.83.49,1.77,1.77,0,0,1,.31,1.61l-.59,3.64H66.93l.55-3.45c.07-.43,0-.71-.07-.84s-.38-.19-.79-.19H65.35l-.72,4.48H63.06L64,31.64"/></g></g></svg>