<svg xmlns="http://www.w3.org/2000/svg" viewBox="0 0 72 72"><defs><style>.cls-1{fill:#ff6c37;}.cls-2{fill:#fff;}</style></defs><g id="Layer_2" data-name="Layer 2"><g id="Layer_1-2" data-name="Layer 1"><g id="g997"><path id="path18" class="cls-1" d="M64.49,14A36,36,0,1,0,58,64.49h0A36,36,0,0,0,64.49,14Z"/><path id="path20" class="cls-2" d="M48.14,22.94,33,38.24l-4.29-4.41C43.61,18.89,45.11,20.24,48.14,22.94Z"/><path id="path22" class="cls-1" d="M33,38.66h0a.61.61,0,0,1-.36-.15l-4.32-4.32a.54.54,0,0,1,0-.75C43,18.71,45,19.4,48.5,22.55a.46.46,0,0,1,.18.39.43.43,0,0,1-.15.39L33.35,38.51A.59.59,0,0,1,33,38.66Zm-3.54-4.83L33,37.37,47.36,23a3.24,3.24,0,0,0-4.26-.72C40.49,23.42,36.29,27,29.42,33.83Z"/><path id="path24" class="cls-2" d="M37.31,42.47l-4.14-4.23,15.18-15C52.43,27.23,46.37,33.89,37.31,42.47Z"/><path id="path26" class="cls-1" d="M37.31,43h0a.77.77,0,0,1-.36-.15l-4.23-4.14a.66.66,0,0,1,0-.48.65.65,0,0,1,0-.39L47.9,22.67a.56.56,0,0,1,.78,0,4.64,4.64,0,0,1,1.5,3.57c0,4.05-4.62,9.15-12.48,16.59A.67.67,0,0,1,37.31,43ZM34,38.24l3.39,3.39c6-5.67,11.73-11.52,11.76-15.48a3.39,3.39,0,0,0-.78-2.31Z"/><path id="path28" class="cls-2" d="M28.79,33.92l3,3a.18.18,0,0,1,0,.25l0,0-6.33,1.35a.61.61,0,0,1-.71-.47.59.59,0,0,1,.17-.55l3.69-3.66A.3.3,0,0,1,28.79,33.92Z"/><path id="path30" class="cls-1" d="M25.31,39.14a1.21,1.21,0,0,1-1-.57,1.15,1.15,0,0,1,.21-1.35l3.66-3.69a.71.71,0,0,1,1,0l3,3a.65.65,0,0,1,.18.66.69.69,0,0,1-.51.48L25.49,39Zm3.36-4.56L25.28,38h0l5.61-1.2Z"/><path id="path32" class="cls-2" d="M56.21,14.51a5.82,5.82,0,1,0-1.05,9.18l-4.08-4.08Z"/><path id="path34" class="cls-1" d="M52.16,25.07a6.35,6.35,0,1,1,4.56-10.83.51.51,0,0,1,.06.72l-.06.06-4.86,4.59,3.69,3.63a.5.5,0,0,1,.15.45.53.53,0,0,1-.24.39A6.53,6.53,0,0,1,52.16,25.07Zm0-11.64a5.27,5.27,0,0,0-5.25,5.3,5.33,5.33,0,0,0,1.53,3.7,5.27,5.27,0,0,0,5.82,1.11L50.72,20a.5.5,0,0,1-.18-.39.49.49,0,0,1,.18-.36l4.68-4.71A5.29,5.29,0,0,0,52.16,13.43Z"/><path id="path36" class="cls-2" d="M56.3,14.6h0l-5.13,5.1,4.08,4.08a6.7,6.7,0,0,0,1.14-.84A6,6,0,0,0,56.3,14.6Z"/><path id="path38" class="cls-1" d="M55.16,24.23a.49.49,0,0,1-.36-.15L50.72,20a.5.5,0,0,1-.18-.39.49.49,0,0,1,.18-.36l5.1-5a.54.54,0,0,1,.9,0h0a6.29,6.29,0,0,1,.09,8.91l-.09.09a5.89,5.89,0,0,1-1.2,1A.56.56,0,0,1,55.16,24.23Zm-3.3-4.62L55.25,23a7,7,0,0,0,.66-.54,5.31,5.31,0,0,0,1.56-3.75,5.17,5.17,0,0,0-1.29-3.42Z"/><path id="path40" class="cls-2" d="M48.77,23.57h0a2.18,2.18,0,0,0-3,0L32.18,37.13l2.25,2.28L48.8,26.81a2.23,2.23,0,0,0,.08-3.14Z"/><path id="path42" class="cls-1" d="M34.31,40A.61.61,0,0,1,34,39.8l-2.28-2.28a.54.54,0,0,1,0-.75L45.26,23.24a2.75,2.75,0,0,1,3.9,0h0a2.73,2.73,0,0,1,.81,2,2.81,2.81,0,0,1-.93,2L34.67,39.86A.56.56,0,0,1,34.31,40Zm-1.59-2.82,1.5,1.53,14.1-12.27a1.65,1.65,0,0,0,.57-1.2A1.57,1.57,0,0,0,48.38,24,1.67,1.67,0,0,0,46,24Z"/><path id="path44" class="cls-2" d="M21.65,52.58a.3.3,0,0,0,0,.36l.6,2.61a.75.75,0,0,1-.61.86.78.78,0,0,1-.62-.18l-4.11-3.95,12.81-12.9h4.44l3,3A68.32,68.32,0,0,1,21.65,52.58Z"/><path id="path46" class="cls-1" d="M21.38,57a1.24,1.24,0,0,1-.9-.39l-3.93-3.92a.53.53,0,0,1-.18-.39.47.47,0,0,1,.18-.36L29.45,39a.52.52,0,0,1,.27-.15h4.47a.45.45,0,0,1,.36,0l3,3a.58.58,0,0,1,0,.81l-.24.21a74,74,0,0,1-15.39,9.87l.57,2.43a1.28,1.28,0,0,1-.95,1.55,1.27,1.27,0,0,1-.28,0Zm-3.66-4.7,3.54,3.56a.16.16,0,0,0,.24,0,.15.15,0,0,0,0-.2L20.9,53a.84.84,0,0,1,.45-1h0a74.13,74.13,0,0,0,15-9.66L33.89,40h-4Z"/><path id="path48" class="cls-2" d="M13.82,55.37l3-3L21.44,57l-7.35-.51a.6.6,0,0,1-.27-1.1Z"/><path id="path50" class="cls-1" d="M21.53,57.43h0l-7.32-.51a1.13,1.13,0,0,1-1-1.24,1.12,1.12,0,0,1,.3-.67h0l3-3a.53.53,0,0,1,.75,0l4.59,4.58a.57.57,0,0,1-.3.84Zm-7.32-1.67,6,.38-3.3-3.08Z"/><polygon id="polygon52" class="cls-2" points="34.58 39.74 28.52 40.67 32.03 37.19 34.58 39.74"/><path id="path54" class="cls-1" d="M28.52,41.24a.55.55,0,0,1-.48-.3.51.51,0,0,1,0-.6l3.48-3.51a.56.56,0,0,1,.78,0l2.55,2.55a.48.48,0,0,1,0,.54.51.51,0,0,1-.42.39l-6,.93ZM32,38l-2,2,3.36-.51Z"/><path id="path56" class="cls-2" d="M34.58,39.74l-4.23.54a.54.54,0,0,1-.51-.9L32,37.19Z"/><path id="path58" class="cls-1" d="M30.23,40.85a1.15,1.15,0,0,1-1-.57A1.09,1.09,0,0,1,29.45,39l2.19-2.19a.56.56,0,0,1,.78,0L35,39.35a.53.53,0,0,1,0,.76.51.51,0,0,1-.35.17l-4.2.54Zm0-1.11h0l3.18-.39L32,37.94l-1.8,1.8Z"/><path id="path60" class="cls-1" d="M56.33,18.05a.44.44,0,0,0-.57-.18.42.42,0,0,0-.18.56h0a1.3,1.3,0,0,1-.15,1.35.39.39,0,0,0,0,.55l0,0a.33.33,0,0,0,.24,0,.41.41,0,0,0,.39-.12A2.06,2.06,0,0,0,56.33,18.05Z"/></g></g></g></svg>