<svg xmlns="http://www.w3.org/2000/svg" xmlns:xlink="http://www.w3.org/1999/xlink" viewBox="0 0 72 70"><defs><style>.cls-1{fill:url(#radial-gradient);}.cls-2{fill:#31c5f0;}</style><radialGradient id="radial-gradient" cx="36" cy="33.94" r="36.01" gradientTransform="translate(0 2.03) scale(1 0.97)" gradientUnits="userSpaceOnUse"><stop offset="0" stop-color="#34364e" stop-opacity="0.98"/><stop offset="1" stop-color="#0c0824"/></radialGradient></defs><g id="Layer_2" data-name="Layer 2"><g id="Layer_1-2" data-name="Layer 1"><path class="cls-1" d="M9.06,0H63s9,.06,9,8.84V61.25C72,70,63,70,63,70H9s-9,0-9-8.74V8.83C0,.06,9.06,0,9.06,0Z"/><path class="cls-2" d="M48.84,31.67c-2.42,0-3.25,1.23-3.25,2.24s.55,1.88,3.81,3.56c4.81,2.33,6.31,4.57,6.31,7.85,0,4.91-3.75,7.55-8.81,7.55a13.25,13.25,0,0,1-6.28-1.31c-.22-.09-.25-.25-.25-.49V46.54c0-.31.14-.39.37-.25a11.37,11.37,0,0,0,6.16,1.82c2.42,0,3.44-1,3.44-2.39,0-1.11-.71-2.08-3.81-3.69-4.35-2.08-6.16-4.19-6.16-7.73,0-4,3.1-7.25,8.47-7.25a14,14,0,0,1,5.48.86.67.67,0,0,1,.31.62v4.2c0,.25-.14.4-.45.31a10.49,10.49,0,0,0-5.34-1.37ZM22.46,35.32c.7.06,1.25.06,2.47.06,3.59,0,7-1.26,7-6.14,0-3.9-2.42-5.86-6.51-5.86-1.22,0-2.39.06-2.95.09l0,11.85ZM17,19c0-.22.43-.37.68-.37,2-.09,4.88-.15,7.91-.15,8.5,0,11.82,4.66,11.82,10.61,0,7.79-5.65,11.14-12.59,11.14-1.16,0-1.56-.06-2.39-.06V52c0,.25-.09.37-.37.37H17.35c-.25,0-.37-.09-.37-.37V19Z"/></g></g></svg>