<svg xmlns="http://www.w3.org/2000/svg" xmlns:xlink="http://www.w3.org/1999/xlink" viewBox="0 0 71.22 72.01"><defs><style>.cls-1{fill:url(#linear-gradient);}.cls-2{fill:url(#linear-gradient-2);}</style><linearGradient id="linear-gradient" x1="-1.77" y1="647.99" x2="37.52" y2="613.86" gradientTransform="matrix(1, 0, 0, -1, 0, 650.03)" gradientUnits="userSpaceOnUse"><stop offset="0" stop-color="#5a9fd4"/><stop offset="1" stop-color="#306998"/></linearGradient><linearGradient id="linear-gradient-2" x1="52.78" y1="593.11" x2="38.75" y2="613.15" gradientTransform="matrix(1, 0, 0, -1, 0, 650.03)" gradientUnits="userSpaceOnUse"><stop offset="0" stop-color="#ffd43b"/><stop offset="1" stop-color="#ffe873"/></linearGradient></defs><g id="Layer_2" data-name="Layer 2"><g id="Layer_1-2" data-name="Layer 1"><path class="cls-1" d="M35.18,0A47.17,47.17,0,0,0,27,.71c-7.28,1.29-8.59,4-8.59,8.93v6.54H35.56v2.18H11.94A10.73,10.73,0,0,0,1.21,27.07a32.06,32.06,0,0,0,0,17.46c1.22,5.09,4.14,8.71,9.13,8.71h5.91V45.4A10.91,10.91,0,0,1,27,34.72H44.14A8.65,8.65,0,0,0,52.73,26V9.63C52.73,5,48.8,1.48,44.14.7a53.73,53.73,0,0,0-9-.7ZM25.89,5.27a3.27,3.27,0,1,1-3.22,3.28A3.26,3.26,0,0,1,25.89,5.27Z"/><path class="cls-2" d="M54.87,18.36V26a11,11,0,0,1-10.73,10.9H27a8.76,8.76,0,0,0-8.59,8.72V62c0,4.66,4.05,7.4,8.59,8.73a28.72,28.72,0,0,0,17.16,0c4.32-1.25,8.59-3.77,8.59-8.73V55.44H35.56V53.25H61.32c5,0,6.85-3.48,8.59-8.71s1.71-10.55,0-17.46c-1.24-5-3.59-8.71-8.59-8.71H54.87ZM45.22,59.79A3.28,3.28,0,1,1,42,63.05,3.24,3.24,0,0,1,45.22,59.79Z"/></g></g></svg>