<svg xmlns="http://www.w3.org/2000/svg" viewBox="0 0 72.22 64.25"><defs><style>.cls-1{fill:#00d8ff;}</style></defs><g id="Layer_2" data-name="Layer 2"><g id="Layer_1-2" data-name="Layer 1"><circle class="cls-1" cx="36.11" cy="32.06" r="6.45"/><path class="cls-1" d="M71.18,28.63a14.5,14.5,0,0,0-4.51-4.35,33.22,33.22,0,0,0-7.29-3.46c-.75-.25-1.53-.5-2.34-.73.13-.53.27-1.07.38-1.58a37,37,0,0,0,.8-7.25,18.82,18.82,0,0,0-1-6.34A7.57,7.57,0,0,0,54.1.82,6.57,6.57,0,0,0,50.8,0a14.17,14.17,0,0,0-6.11,1.68,33.23,33.23,0,0,0-6.75,4.64c-.6.53-1.2,1.08-1.8,1.67-.4-.38-.8-.77-1.19-1.12a34.15,34.15,0,0,0-7.16-5A14.74,14.74,0,0,0,21.36.07,6.7,6.7,0,0,0,18,.91a7.34,7.34,0,0,0-3.06,4A17.82,17.82,0,0,0,14,11a34.77,34.77,0,0,0,.7,6.65c.15.78.33,1.58.54,2.39-.93.26-1.83.54-2.68.84a28,28,0,0,0-8.95,4.8,12,12,0,0,0-2.58,3,6.64,6.64,0,0,0-1,3.39,6.83,6.83,0,0,0,1.05,3.51,15,15,0,0,0,4.61,4.56,32.17,32.17,0,0,0,7.55,3.62c.63.22,1.29.41,1.95.6-.22.89-.41,1.75-.57,2.59A33.88,33.88,0,0,0,14,53.23a17.81,17.81,0,0,0,1,6.15,7.46,7.46,0,0,0,3.11,4,6.8,6.8,0,0,0,3.44.84,14.79,14.79,0,0,0,6.3-1.68,32.58,32.58,0,0,0,7-4.76c.5-.44,1-.92,1.5-1.4.65.63,1.31,1.23,2,1.79a31.35,31.35,0,0,0,6.6,4.48,13.88,13.88,0,0,0,6,1.6,6.63,6.63,0,0,0,3.38-.84,7.71,7.71,0,0,0,3.2-4.17,18.75,18.75,0,0,0,1-6.46,34.55,34.55,0,0,0-.69-6.65c-.13-.64-.29-1.29-.45-1.94l1.36-.41a30.75,30.75,0,0,0,9.74-5,13.23,13.23,0,0,0,2.83-3.13,6.85,6.85,0,0,0,1.09-3.57A6.61,6.61,0,0,0,71.18,28.63ZM40,8.65a30.1,30.1,0,0,1,6.09-4.21A11.13,11.13,0,0,1,50.8,3.09a3.43,3.43,0,0,1,1.75.4A4.55,4.55,0,0,1,54.36,6a15.89,15.89,0,0,1,.77,5.28,32.58,32.58,0,0,1-.74,6.62c-.09.47-.22,1-.33,1.44a73.37,73.37,0,0,0-9.65-1.51,70.81,70.81,0,0,0-6.11-7.63C38.86,9.64,39.42,9.13,40,8.65ZM23.37,39.5c.74,1.27,1.5,2.5,2.28,3.7A65.44,65.44,0,0,1,19,42.14c.64-2,1.43-4.18,2.35-6.37.64,1.24,1.31,2.49,2,3.73m-2-11A65.9,65.9,0,0,1,19,22.27c2-.46,4.24-.83,6.54-1.12C25,22.08,24.4,23,23.82,24h0l-.44.78C22.64,26,22,27.26,21.34,28.51ZM23,32.14c.92-1.91,1.93-3.84,3-5.75l0-.07c1.12-1.95,2.3-3.81,3.51-5.57,2.14-.17,4.34-.26,6.57-.25h0c2.25,0,4.45.09,6.58.25,1.2,1.77,2.37,3.62,3.49,5.55s2.16,3.87,3.11,5.79c-.95,1.94-2,3.9-3.1,5.85s-2.28,3.8-3.47,5.58c-2.15.16-4.36.24-6.61.24s-4.41-.07-6.54-.21C28.35,41.77,27.17,39.9,26,38S23.89,34.07,23,32.14Zm25.9,7.34c.74-1.27,1.42-2.55,2.08-3.82A65.33,65.33,0,0,1,53.38,42a66.48,66.48,0,0,1-6.74,1.15C47.39,42,48.14,40.74,48.86,39.48Zm2-11c-.65-1.25-1.34-2.5-2.06-3.76s-1.45-2.42-2.2-3.59a66.52,66.52,0,0,1,6.58,1.14A63.13,63.13,0,0,1,50.91,28.51ZM36.15,12.39c1.42,1.54,2.84,3.27,4.24,5.13-1.41-.06-2.83-.11-4.28-.11h0c-1.43,0-2.84.05-4.24.11C33.28,15.66,34.72,13.94,36.15,12.39ZM17.79,6a4.35,4.35,0,0,1,1.72-2.38,3.64,3.64,0,0,1,1.85-.42,11.63,11.63,0,0,1,5,1.46,30.74,30.74,0,0,1,6.5,4.56c.36.31.72.67,1.08,1a73.16,73.16,0,0,0-6.14,7.61,75,75,0,0,0-9.64,1.5c-.19-.77-.36-1.51-.5-2.24a31.41,31.41,0,0,1-.64-6A15.17,15.17,0,0,1,17.79,6ZM16,41.38c-.62-.17-1.22-.35-1.8-.55a26,26,0,0,1-8.42-4.47A9.79,9.79,0,0,1,3.7,34a3.72,3.72,0,0,1-.61-1.94,3.55,3.55,0,0,1,.57-1.82A11,11,0,0,1,7.09,26.9a29.2,29.2,0,0,1,6.45-3.1c.79-.27,1.63-.53,2.5-.78a74.53,74.53,0,0,0,3.53,9.12A74.8,74.8,0,0,0,16,41.38ZM32.71,55.45a28.94,28.94,0,0,1-6.3,4.31,11.83,11.83,0,0,1-4.95,1.38,3.79,3.79,0,0,1-1.9-.43A4.38,4.38,0,0,1,17.8,58.3,14.72,14.72,0,0,1,17,53.23a31.47,31.47,0,0,1,.58-5.71c.15-.78.33-1.58.53-2.4a73.83,73.83,0,0,0,9.74,1.4,75.35,75.35,0,0,0,6.19,7.65C33.62,54.62,33.16,55.06,32.71,55.45ZM36.24,52c-1.46-1.57-2.91-3.32-4.35-5.2,1.4.05,2.8.09,4.22.09s2.92-.05,4.35-.11A65.07,65.07,0,0,1,36.24,52Zm18.21,6.21a4.68,4.68,0,0,1-1.85,2.57,3.58,3.58,0,0,1-1.83.43,11.24,11.24,0,0,1-4.62-1.29,28.8,28.8,0,0,1-5.94-4.05c-.6-.51-1.21-1.07-1.82-1.66a71.46,71.46,0,0,0,6-7.69A71.91,71.91,0,0,0,54.22,45c.14.6.29,1.19.4,1.76a31.26,31.26,0,0,1,.64,6.05A15.69,15.69,0,0,1,54.45,58.17ZM68.5,34a12.18,12.18,0,0,1-3.83,3.57,31.28,31.28,0,0,1-7.08,3.27c-.39.13-.82.25-1.22.37a72.06,72.06,0,0,0-3.67-9.14,70,70,0,0,0,3.52-9c.75.22,1.47.44,2.16.68A26.1,26.1,0,0,1,66.53,28a9.21,9.21,0,0,1,2,2.22,3.53,3.53,0,0,1,.6,1.83A3.8,3.8,0,0,1,68.5,34Z"/></g></g></svg>