<svg xmlns="http://www.w3.org/2000/svg" viewBox="0 0 72 54"><defs><style>.cls-1{fill:#cd6799;}</style></defs><g id="Layer_2" data-name="Layer 2"><g id="Layer_1-2" data-name="Layer 1"><path class="cls-1" d="M62,31a15,15,0,0,0-6.53,1.51A13.84,13.84,0,0,1,54,29.17a9.36,9.36,0,0,1-.13-2.84,24.51,24.51,0,0,1,.86-3.06c0-.13-.16-.75-1.61-.77s-2.69.28-2.84.66a15.94,15.94,0,0,0-.6,2.15c-.25,1.31-2.9,6-4.41,8.47a9.69,9.69,0,0,1-1-2.48,9,9,0,0,1-.13-2.84A24.51,24.51,0,0,1,45,25.4c0-.13-.16-.75-1.61-.76s-2.69.27-2.84.65-.3,1.28-.6,2.15-3.82,8.7-4.74,10.73c-.47,1-.88,1.87-1.17,2.43h0a.49.49,0,0,1,0,.11c-.25.48-.4.75-.4.75h0c-.19.35-.4.68-.51.68a4.38,4.38,0,0,1,0-2.23c.52-2.73,1.77-7,1.76-7.1s.24-.82-.82-1.2a1.3,1.3,0,0,0-1.48.25c-.09,0-.16.22-.16.22s1.15-4.76-2.18-4.76c-2.08,0-4.95,2.28-6.37,4.33L19,34.3c-.77.44-1.58.87-2.32,1.28l-.16-.17c-4-4.3-11.47-7.34-11.15-13.12.11-2.1.84-7.62,14.29-14.33C30.76,2.5,39.58,4,41.1,7.37c2.18,4.79-4.72,13.68-16.16,15-4.37.49-6.66-1.19-7.24-1.82s-.69-.7-.92-.57-.13.79,0,1.13a6.78,6.78,0,0,0,4.13,3.25C23,25,28.13,25.39,34.33,23c6.93-2.68,12.35-10.14,10.76-16.38S33-1.82,23,1.71C17.1,3.82,10.68,7.13,6.07,11.44.58,16.57-.29,21,.07,22.9,1.34,29.53,10.48,33.84,14.14,37l-.5.27c-1.83.91-8.8,4.55-10.53,8.41-2,4.36.31,7.49,1.83,7.91,4.69,1.31,9.52-1,12.11-4.9s2.27-8.89,1.08-11.19a.24.24,0,0,0-.06-.08l1.44-.84c.93-.56,1.85-1.07,2.64-1.49a16.92,16.92,0,0,0-.93,4.79c-.2,2.47.81,5.68,2.14,6.94a2.39,2.39,0,0,0,1.74.57c1.55,0,2.24-1.29,3-2.82.95-1.87,1.8-4,1.8-4s-1.06,5.87,1.83,5.87c1,0,2.12-1.37,2.59-2.06h0l.08-.13c.11-.17.17-.28.17-.28v0c.42-.73,1.37-2.4,2.78-5.18,1.81-3.57,3.56-8.05,3.56-8.05a22.83,22.83,0,0,0,.7,2.91A25.7,25.7,0,0,0,43.13,37c-.42.59-.69.92-.69.92h0c-.35.45-.72.93-1.12,1.41A40.77,40.77,0,0,0,38,43.57a1.15,1.15,0,0,0,.31,1.55,2.88,2.88,0,0,0,1.77.29,8.05,8.05,0,0,0,2.64-.6A8.64,8.64,0,0,0,45,43.61a5.08,5.08,0,0,0,2.19-4.48A9.13,9.13,0,0,0,46.31,36l.38-.55a61,61,0,0,0,4-6.82,21.5,21.5,0,0,0,.69,2.91,19.4,19.4,0,0,0,1.28,2.89,12.53,12.53,0,0,0-3.84,5c-.83,2.39-.19,3.47,1,3.72a3.65,3.65,0,0,0,1.92-.39,9.08,9.08,0,0,0,2.43-1.25c1.41-1,2.76-2.49,2.68-4.45a8.43,8.43,0,0,0-.6-2.63,13.85,13.85,0,0,1,7-.8c6.26.74,7.5,4.64,7.26,6.29a4.14,4.14,0,0,1-2,2.81c-.43.28-.57.37-.53.57s.26.27.63.22A4.89,4.89,0,0,0,72,39.09c.2-3.87-3.48-8.09-10-8.05ZM13.71,47.32c-2.08,2.26-5,3.12-6.22,2.39S6.67,45.6,9.22,43.2a33,33,0,0,1,4.88-3.64l1.29-.77.14-.08h0l.32-.2a9,9,0,0,1-2.14,8.81ZM28.83,37c-.72,1.76-2.24,6.27-3.16,6s-1.27-3.63-.15-7A15.67,15.67,0,0,1,28,31.54c1.13-1.26,2.38-1.68,2.68-1.17C31,31,29.28,35.93,28.83,37Zm12.48,6c-.3.16-.59.26-.72.18s.13-.26.13-.26,1.56-1.68,2.18-2.45c.36-.44.78-1,1.23-1.56v.17c0,2-2,3.37-2.82,3.92Zm9.63-2.2c-.23-.16-.19-.68.56-2.33a8.88,8.88,0,0,1,2.15-2.76,3.85,3.85,0,0,1,.21,1.21,4,4,0,0,1-2.92,3.88Z"/></g></g></svg>