<svg xmlns="http://www.w3.org/2000/svg" viewBox="0 0 71.89 72.08"><defs><style>.cls-1{fill:#8db849;}.cls-2{fill:#5a863e;}.cls-3{fill:#fffffe;}.cls-4{fill:#1a1919;}</style></defs><g id="Layer_2" data-name="Layer 2"><g id="Layer_1-2" data-name="Layer 1"><path class="cls-1" d="M38.12,1.49c.33,0,.5.17.83.33-2,.83-4,3-5,7.61l-3.64,1C31.51,7.12,33.82,1.49,38.12,1.49Zm1.82,1.66a11.51,11.51,0,0,1,.67,4v.33l-4.8,1.32C36.8,5.3,38.45,3.81,39.94,3.15Zm4.31,3-2.16.67v-.5a11.4,11.4,0,0,0-.49-3.64C42.76,3,43.75,4.47,44.25,6.12ZM55,8.77a.36.36,0,0,0-.33-.33c-.33,0-3.81-.33-3.81-.33s-2.48-2.48-2.81-2.65c-.33-.33-.83-.16-1-.16,0,0-.5.16-1.33.49-.82-2.31-2.31-4.46-4.79-4.46h-.17A2.91,2.91,0,0,0,38.29,0c-6-.16-8.77,7.28-9.76,11.09-1.33.33-2.65.83-4.14,1.32-1.32.33-1.32.5-1.49,1.66-.16.82-3.47,27-3.47,27l26.3,5L60,42.86S55,9.1,55,8.77Z"/><path class="cls-2" d="M54.5,8.44c-.16,0-3.64-.33-3.64-.33s-2.48-2.48-2.81-2.65c-.16-.16-.16-.16-.33-.16l-2,40.7L60,42.86S55,9.1,55,8.77c0-.16-.33-.33-.5-.33"/><path class="cls-3" d="M40.94,16.38l-1.82,5.3a7.84,7.84,0,0,0-3.48-.83c-2.81,0-3,1.65-3,2.15,0,2.32,6.29,3.31,6.29,8.94,0,4.46-2.81,7.28-6.62,7.28a9.09,9.09,0,0,1-6.78-2.82l1.16-4s2.31,2,4.3,2a1.73,1.73,0,0,0,1.82-1.82c0-3.15-5.13-3.31-5.13-8.44,0-4.3,3.14-8.44,9.27-8.44,2.81-.16,4,.66,4,.66"/><path class="cls-4" d="M6.15,59.28c-.91-.51-1.31-.91-1.31-1.42,0-.7.6-1.1,1.61-1.1a5.41,5.41,0,0,1,2.12.5l.81-2.42a4.6,4.6,0,0,0-2.83-.61c-3,0-5,1.72-5,4.14a3.76,3.76,0,0,0,2.22,3.12c1,.61,1.41,1,1.41,1.62s-.5,1.21-1.51,1.21a7.25,7.25,0,0,1-2.82-.71L0,66a6.37,6.37,0,0,0,3.33.81c3,0,5.24-1.51,5.24-4.24a4,4,0,0,0-2.42-3.32m12.2-5.15A4.59,4.59,0,0,0,14.72,56h0L16,49.09H12.6L9.28,66.54H12.7l1.11-6c.41-2.22,1.62-3.63,2.73-3.63.8,0,1.11.5,1.11,1.31a7,7,0,0,1-.11,1.51l-1.31,6.86h3.43L21,59.58a18.27,18.27,0,0,0,.2-2.22c0-2-1-3.23-2.82-3.23m8.77,10c-1.21,0-1.61-1-1.61-2.22,0-1.92,1-5.14,2.82-5.14,1.21,0,1.62,1,1.62,2C30,61,28.94,64.12,27.12,64.12Zm1.72-10C24.7,54.13,22,57.86,22,62a4.44,4.44,0,0,0,4.74,4.74c4,0,6.76-3.63,6.76-7.87A4.41,4.41,0,0,0,28.84,54.13ZM38.92,64.22a2.06,2.06,0,0,1-1.41-.51l.6-3.22c.41-2.12,1.52-3.53,2.73-3.53,1,0,1.41,1,1.41,1.91C42.15,61.09,40.84,64.22,38.92,64.22Zm3.33-10.09a4.69,4.69,0,0,0-3.63,2h0l.2-1.81h-3a41.88,41.88,0,0,1-.7,4.53L32.67,71.38H36.1l.9-5h.1a4.32,4.32,0,0,0,2,.41c4,0,6.66-4.14,6.66-8.27C45.78,56.25,44.77,54.13,42.25,54.13Zm8.37-4.84a1.94,1.94,0,0,0-1.92,2A1.56,1.56,0,0,0,50.31,53h0a1.9,1.9,0,0,0,2-2,1.65,1.65,0,0,0-1.71-1.72M45.88,66.54h3.43l2.31-12.1H48.2ZM60.3,54.44H57.88l.1-.61c.2-1.21.9-2.22,2-2.22a3.32,3.32,0,0,1,1.11.2l.71-2.72a4.46,4.46,0,0,0-1.82-.3,4.88,4.88,0,0,0-3.32,1.11,6.49,6.49,0,0,0-2,3.83l-.1.61H52.94L52.43,57H54l-1.81,9.58h3.43L57.47,57h2.32Zm8.16,0s-2.11,5.34-3.12,8.26h0c-.1-.9-.81-8.26-.81-8.26H60.9l2,11.09a1.27,1.27,0,0,1-.1.6,5.9,5.9,0,0,1-1.82,2,7.12,7.12,0,0,1-1.91,1l.9,2.92a7.27,7.27,0,0,0,3.33-1.81,22.4,22.4,0,0,0,4.44-6.76l4.13-9Z"/></g></g></svg>