<svg xmlns="http://www.w3.org/2000/svg" viewBox="0 0 71.96 70"><defs><style>.cls-1{fill:#001d26;}.cls-2{fill:#26c9ff;}.cls-3{fill:#d9f5ff;}</style></defs><g id="Layer_2" data-name="Layer 2"><g id="Layer_1-2" data-name="Layer 1"><path class="cls-1" d="M11.78,0H60.45A11.51,11.51,0,0,1,72,11.51v47A11.51,11.51,0,0,1,60.45,70H11.51A11.51,11.51,0,0,1,0,58.49V11.78A11.72,11.72,0,0,1,11.78,0"/><path class="cls-2" d="M28.68,44.39l5.92,9.79L41,41.77s-3.79-2.23-6.18,1.55c-1.88,3-3.36,1.64-4.18,1A1.39,1.39,0,0,0,28.68,44.39Z"/><path class="cls-3" d="M29.27,40.86a3.52,3.52,0,0,1,.85-1.18,53.64,53.64,0,0,1,11.63-9.21c.13-.08.28-.18.28-.33s-.15-.27-.29-.33a3.62,3.62,0,0,0-2-.1A30.37,30.37,0,0,0,31.83,32,22.87,22.87,0,0,1,28,33.75a1.66,1.66,0,0,1-1.45-.14,1.56,1.56,0,0,1-.35-1.43A2.84,2.84,0,0,1,26.87,31c2-2.35,4.86-3.81,7.62-5.23l9.16-4.69c.16-.08.36-.24.28-.41s-.2-.13-.33-.14c-5.16-.3-10.26,1.32-14.93,3.54a3.8,3.8,0,0,1-2.34.55,1.81,1.81,0,0,1-1.28-2.35,3.34,3.34,0,0,1,2.18-1.54c5.38-1.87,11.06-3.48,16.71-2.76a4.8,4.8,0,0,1,2.16.67,2.36,2.36,0,0,1,0,3.77,7.32,7.32,0,0,1-1.82,1l-6.81,3.13c-3.47,1.59-7.06,3.08-9.67,5.86a19.26,19.26,0,0,1,3.84-2.17,31,31,0,0,1,8.18-2.1,7.7,7.7,0,0,1,3.31.28c.73.26,1.5,1,1.25,1.69a1.52,1.52,0,0,1-.55.68,13.1,13.1,0,0,1-2,1.17c-4.56,2.35-8.33,5.73-12.36,8.9C29.28,41,29.24,40.93,29.27,40.86Z"/></g></g></svg>