<svg xmlns="http://www.w3.org/2000/svg" viewBox="0 0 72 65.15"><defs><style>.cls-1{fill:#fdb300;}.cls-2{fill:#eb6c00;}.cls-3{fill:#fdad00;}.cls-4{fill:#fdd231;}.cls-5{fill:#feeeb7;}</style></defs><g id="Layer_2" data-name="Layer 2"><g id="Layer_1-2" data-name="Layer 1"><polygon class="cls-1" points="36 0 15.71 2.15 0 23.23 36 65.16 72 23.23 56.29 2.15 36 0"/><polygon class="cls-2" points="0 23.23 36 65.16 14.58 23.23 0 23.23"/><polygon class="cls-2" points="57.42 23.23 36 65.16 72 23.23 57.42 23.23"/><polygon class="cls-3" points="14.58 23.23 36 65.16 57.42 23.23 14.58 23.23"/><polygon class="cls-4" points="15.71 2.15 14.58 23.23 36 0 15.71 2.15"/><polygon class="cls-4" points="57.42 23.23 56.29 2.15 36 0 57.42 23.23"/><polygon class="cls-3" points="57.42 23.23 72 23.23 56.29 2.15 57.42 23.23"/><polygon class="cls-3" points="0 23.23 14.58 23.23 15.71 2.15 0 23.23"/><polygon class="cls-5" points="36 0 14.58 23.23 57.42 23.23 36 0"/></g></g></svg>