<svg xmlns="http://www.w3.org/2000/svg" viewBox="0 0 72 72"><defs><style>.cls-1{fill:#36c5f0;}.cls-2{fill:#2eb67d;}.cls-3{fill:#ecb22e;}.cls-4{fill:#e01e5a;}</style></defs><g id="Layer_2" data-name="Layer 2"><g id="Layer_1-2" data-name="Layer 1"><path class="cls-1" d="M26.37.05a7.19,7.19,0,1,0,0,14.38h7.21V7.24A7.18,7.18,0,0,0,26.37.05m0,19.16H7.21a7.19,7.19,0,1,0,0,14.38H26.42a7.19,7.19,0,1,0-.05-14.38"/><path class="cls-2" d="M72,26.4a7.21,7.21,0,0,0-14.42,0v7.19h7.21A7.16,7.16,0,0,0,72,26.4m-19.21,0V7.19a7.21,7.21,0,0,0-14.42,0V26.4a7.22,7.22,0,0,0,7.21,7.19,7.13,7.13,0,0,0,7.21-7.19"/><path class="cls-3" d="M45.58,72a7.19,7.19,0,1,0,0-14.38H38.37v7.19A7.21,7.21,0,0,0,45.58,72m0-19.21H64.79a7.19,7.19,0,1,0,0-14.38H45.58a7.19,7.19,0,1,0,0,14.38h0"/><path class="cls-4" d="M0,45.6a7.21,7.21,0,0,0,7.21,7.19h0a7.21,7.21,0,0,0,7.21-7.19V38.41H7.21A7.19,7.19,0,0,0,0,45.6m19.21,0V64.81a7.21,7.21,0,0,0,14.42,0V45.6a7.22,7.22,0,0,0-7.21-7.19h0a7.19,7.19,0,0,0-7.21,7.19"/></g></g></svg>