<svg xmlns="http://www.w3.org/2000/svg" viewBox="0 0 72 72"><defs><style>.cls-1{fill:#77bc1f;}</style></defs><g id="Layer_2" data-name="Layer 2"><g id="Layer_1-2" data-name="Layer 1"><path class="cls-1" d="M65.48,3.75a33,33,0,0,1-3.85,6.82A36.13,36.13,0,1,0,11.21,62.32l1.34,1.18A36.08,36.08,0,0,0,71.8,38.44c1-9.2-1.72-20.85-6.32-34.69ZM16.34,62.52a3.09,3.09,0,1,1-2.4-5,3,3,0,0,1,1.94.69,3.1,3.1,0,0,1,.46,4.35Zm49-10.81c-8.91,11.87-27.94,7.87-40.13,8.44,0,0-2.17.13-4.35.49,0,0,.82-.35,1.88-.75,8.56-3,12.61-3.56,17.82-6.23,9.79-5,19.48-15.9,21.5-27.25C58.31,37.33,47,46.71,36.7,50.52c-7.06,2.61-19.81,5.14-19.81,5.14l-.52-.27c-8.68-4.23-8.94-23,6.84-29.12,6.91-2.66,13.52-1.2,21-3,8-1.89,17.19-7.87,20.94-15.67,4.2,12.48,9.26,32,.2,44.09Z"/></g></g></svg>