<svg xmlns="http://www.w3.org/2000/svg" xmlns:xlink="http://www.w3.org/1999/xlink" viewBox="0 0 57.17 72"><defs><style>.cls-1{fill:#2684ff;}.cls-2{fill:url(#linear-gradient);}</style><linearGradient id="linear-gradient" x1="-293.61" y1="792.65" x2="-293.61" y2="792.77" gradientTransform="matrix(127.7, 0, 0, -248.85, 37538.54, 197304.18)" gradientUnits="userSpaceOnUse"><stop offset="0.18" stop-color="#0052cc"/><stop offset="1" stop-color="#2684ff"/></linearGradient></defs><g id="Layer_2" data-name="Layer 2"><g id="Layer_1-2" data-name="Layer 1"><path class="cls-1" d="M57.13,28.55A28.56,28.56,0,1,0,19.76,55.69V70a2,2,0,0,0,2,2H35.32a2,2,0,0,0,2-2V55.7A28.57,28.57,0,0,0,57.13,28.55ZM28.58,38.19a9.65,9.65,0,1,1,9.65-9.65A9.65,9.65,0,0,1,28.58,38.19Z"/><path class="cls-2" d="M28.58,0V18.9a9.65,9.65,0,0,1,0,19.3A8.83,8.83,0,0,1,37.4,47v8.68A28.55,28.55,0,0,0,28.58,0Z"/></g></g></svg>