<svg xmlns="http://www.w3.org/2000/svg" viewBox="0 0 59.86 71.94"><defs><style>.cls-1{fill:#ff3e00;}.cls-2{fill:#fff;}</style></defs><g id="Layer_2" data-name="Layer 2"><g id="Layer_1-2" data-name="Layer 1"><path class="cls-1" d="M56.05,9.52C49.37,0,36.17-2.88,26.63,3.2L9.88,13.88A19.19,19.19,0,0,0,1.2,26.75a20.26,20.26,0,0,0,2,13A19.33,19.33,0,0,0,.32,46.93a20.45,20.45,0,0,0,3.5,15.5C10.5,72,23.69,74.82,33.23,68.74L50,58.06a19.21,19.21,0,0,0,8.69-12.87,20.21,20.21,0,0,0-2-13A19.28,19.28,0,0,0,59.55,25a20.51,20.51,0,0,0-3.5-15.49"/><path class="cls-2" d="M25,63.32A13.31,13.31,0,0,1,10.71,58a12.35,12.35,0,0,1-2.1-9.32A11.89,11.89,0,0,1,9,47.15l.31-1,.86.63a21.69,21.69,0,0,0,6.56,3.27l.62.19-.06.62A3.79,3.79,0,0,0,18,53.39a4,4,0,0,0,4.3,1.6,3.93,3.93,0,0,0,1-.45L40.06,43.86a3.51,3.51,0,0,0,1.58-2.33A3.74,3.74,0,0,0,41,38.72a4,4,0,0,0-4.3-1.6,3.65,3.65,0,0,0-1,.46l-6.39,4.07a12.46,12.46,0,0,1-3.4,1.5,13.32,13.32,0,0,1-14.29-5.3,12.35,12.35,0,0,1-2.1-9.32,11.54,11.54,0,0,1,5.22-7.74L31.46,10.12a12.09,12.09,0,0,1,3.41-1.5,13.31,13.31,0,0,1,14.28,5.29,12.32,12.32,0,0,1,2.11,9.32,13.72,13.72,0,0,1-.4,1.56l-.32,1-.86-.63a21.55,21.55,0,0,0-6.55-3.28l-.62-.19.05-.62a3.74,3.74,0,0,0-.67-2.49,4,4,0,0,0-4.3-1.6,3.42,3.42,0,0,0-1,.46L19.8,28.08a3.46,3.46,0,0,0-1.57,2.34,3.67,3.67,0,0,0,.63,2.8,4,4,0,0,0,4.3,1.6,3.66,3.66,0,0,0,1-.45l6.4-4.08A12.3,12.3,0,0,1,34,28.8a13.31,13.31,0,0,1,14.28,5.29,12.32,12.32,0,0,1,2.11,9.32,11.56,11.56,0,0,1-5.23,7.74L28.4,61.83A12.13,12.13,0,0,1,25,63.32"/></g></g></svg>