<svg xmlns="http://www.w3.org/2000/svg" viewBox="0 0 63.9 72.15"><g id="Layer_2" data-name="Layer 2"><g id="Layer_1-2" data-name="Layer 1"><path d="M59.85,25.81H58.12V17.45a.88.88,0,0,0,0-.16,1.37,1.37,0,0,0-.33-.92L43.86.48s0,0,0,0a1.28,1.28,0,0,0-.29-.23L43.47.18a1,1,0,0,0-.28-.11l-.07,0a1.86,1.86,0,0,0-.33,0H8.61A2.83,2.83,0,0,0,5.78,2.83v23H4a4,4,0,0,0-4,4v21a4,4,0,0,0,4,4H5.78v14.4a2.83,2.83,0,0,0,2.83,2.83H55.29a2.83,2.83,0,0,0,2.83-2.83V54.92h1.73a4.05,4.05,0,0,0,4-4v-21A4.05,4.05,0,0,0,59.85,25.81ZM8.61,2.83H41.38V17.31a1.41,1.41,0,0,0,1.41,1.41h12.5v7.09H8.61ZM40.26,29.56,33.15,50.69H27.57L20.8,29.56H26l2.57,8.93c.72,2.51,1.38,4.92,1.88,7.56h.1c.53-2.54,1.19-5,1.91-7.46l2.69-9ZM4.84,49.72l1-3.95a12.33,12.33,0,0,0,5.3,1.31c2.19,0,3.35-.91,3.35-2.29s-1-2.06-3.54-3c-3.51-1.23-5.8-3.17-5.8-6.24,0-3.61,3-6.36,8-6.36a13.06,13.06,0,0,1,5.4,1.06l-1.07,3.86a10,10,0,0,0-4.42-1c-2.07,0-3.07.95-3.07,2,0,1.35,1.19,1.95,3.92,3,3.73,1.38,5.48,3.32,5.48,6.3C19.35,48,16.63,51,10.83,51A13.94,13.94,0,0,1,4.84,49.72ZM55.29,68.55H8.61V54.92H55.29V68.55Zm4.63-18.83a23.79,23.79,0,0,1-7.06,1.19c-3.85,0-6.64-1-8.59-2.85a10.24,10.24,0,0,1-3-7.68c0-7,5.14-11,12.07-11a14.6,14.6,0,0,1,5.86,1l-1,3.82a11.72,11.72,0,0,0-4.92-.91c-4,0-7,2.26-7,6.84,0,4.35,2.73,6.92,6.65,6.92a6.41,6.41,0,0,0,2.35-.31V42.32H52.05V38.59h7.87V49.72Z"/></g></g></svg>