<svg xmlns="http://www.w3.org/2000/svg" viewBox="0 0 71.92 71.92"><defs><style>.cls-1{fill:#007acc;}</style></defs><g id="Layer_2" data-name="Layer 2"><g id="Layer_1-2" data-name="Layer 1"><path class="cls-1" d="M0,36v36H71.92V0H0Zm58-2.87a8.92,8.92,0,0,1,4.49,2.6A11.34,11.34,0,0,1,64.18,38c0,.09-3.11,2.19-5,3.37-.07,0-.34-.25-.65-.71a4.08,4.08,0,0,0-3.38-2c-2.18-.15-3.6,1-3.58,2.9a2.64,2.64,0,0,0,.31,1.35c.48,1,1.37,1.58,4.17,2.8,5.15,2.21,7.35,3.67,8.72,5.75a10.44,10.44,0,0,1,.83,8.77c-1.14,3-4,5-7.95,5.69a21.88,21.88,0,0,1-5.48,0A13.22,13.22,0,0,1,44.85,62,12.66,12.66,0,0,1,43,59.24a4.29,4.29,0,0,1,.66-.42l2.67-1.54,2.07-1.2.43.64a9.73,9.73,0,0,0,2.73,2.61c2.3,1.21,5.45,1,7-.35a3.16,3.16,0,0,0,.4-4c-.56-.79-1.7-1.47-4.95-2.87-3.71-1.6-5.3-2.59-6.76-4.17a9.37,9.37,0,0,1-2-3.59,14.74,14.74,0,0,1-.13-4.59,8.75,8.75,0,0,1,7.38-6.83A18.17,18.17,0,0,1,58,33.1Zm-16.89,3,0,2.94H31.74v26.6H25.11V39H15.75V36.15l.08-3s5.73-.06,12.64,0l12.57,0Z"/></g></g></svg>