<svg xmlns="http://www.w3.org/2000/svg" viewBox="0 0 61.3 68"><defs><style>.cls-1{fill:#8ed6fb;}.cls-2{fill:#1c78c0;}</style></defs><g id="Layer_2" data-name="Layer 2"><g id="Layer_1-2" data-name="Layer 1"><path class="cls-1" d="M59.41,52.4,31.86,68V55.87L49,46.41Zm1.89-1.7V18.09L51.22,23.91v21ZM1.89,52.4,29.44,68V55.85L12.27,46.41l-10.38,6ZM0,50.7V18.09l10.08,5.82v21L0,50.7ZM1.17,16,29.44,0V11.74l-18.11,10-.15.07L1.17,16Zm58.94,0L31.86,0V11.74l18.1,10,.14.08,10-5.81Z"/><path class="cls-2" d="M29.44,53.1,12.5,43.77V25.32l16.94,9.77v18Zm2.42,0L48.8,43.79V25.32L31.86,35.09ZM13.64,23.19l17-9.36,17,9.36L30.65,33l-17-9.81Z"/></g></g></svg>