<svg xmlns="http://www.w3.org/2000/svg" viewBox="0 0 72 42.86"><defs><style>.cls-1{fill:#9b5c8f;}</style></defs><g id="Layer_2" data-name="Layer 2"><g id="Layer_1-2" data-name="Layer 1"><path class="cls-1" d="M44.64,14c-.44-1.14-1-1.76-1.73-1.9-1-.21-2.08.38-3,1.81a9.61,9.61,0,0,0-1.56,3.49,10.55,10.55,0,0,0-.2,2.13,7.5,7.5,0,0,0,.53,2.67c.44,1.14,1,1.75,1.72,1.9a2.82,2.82,0,0,0,2.37-.94A7.69,7.69,0,0,0,45,18.82h0a8.94,8.94,0,0,0,.2-2.17A7.43,7.43,0,0,0,44.64,14Z"/><path class="cls-1" d="M61.26,12.09c-1-.21-2.08.38-3,1.81a9.42,9.42,0,0,0-1.55,3.49,9.87,9.87,0,0,0-.21,2.13A7.5,7.5,0,0,0,57,22.19c.44,1.14,1,1.75,1.72,1.9a2.85,2.85,0,0,0,2.38-.94,7.74,7.74,0,0,0,2.22-4.33h0a10.07,10.07,0,0,0,.2-2.17A7.43,7.43,0,0,0,63,14C62.55,12.85,62,12.23,61.26,12.09Z"/><path class="cls-1" d="M65.29,0H6.68A6.68,6.68,0,0,0,0,6.71V29.08a6.7,6.7,0,0,0,6.71,6.71H34.47l12.69,7.07-2.89-7.07h21A6.7,6.7,0,0,0,72,29.08V6.71A6.7,6.7,0,0,0,65.29,0ZM29.83,29.36a3.49,3.49,0,0,1-.35,1.93,1.91,1.91,0,0,1-1.56,1.05,2.93,2.93,0,0,1-2.31-1.08c-2.72-2.78-4.89-6.94-6.47-12.47q-2.85,5.63-4.21,8.43c-1.73,3.31-3.19,5-4.42,5.09-.79.06-1.46-.61-2-2Q6.23,24.55,3.63,8.08a2.47,2.47,0,0,1,.47-2h0a2.34,2.34,0,0,1,1.84-.91A2.13,2.13,0,0,1,8.49,7.32q1.37,9.16,3,15.54l6.41-12.21A2.76,2.76,0,0,1,20.05,8.9c1.29-.09,2.08.73,2.4,2.46a54.79,54.79,0,0,0,2.78,10C26,13.93,27.28,8.58,29.1,5.27A2.24,2.24,0,0,1,31,4a2.54,2.54,0,0,1,1.84.59,2.26,2.26,0,0,1,.91,1.66,2.58,2.58,0,0,1-.29,1.41c-1.15,2.11-2.08,5.65-2.84,10.56A53.7,53.7,0,0,0,29.83,29.36Zm18-4.6c-1.76,2.93-4,4.39-6.88,4.39A8.19,8.19,0,0,1,39.34,29a6.74,6.74,0,0,1-4.68-3.4,11.29,11.29,0,0,1-1.41-5.79,15.54,15.54,0,0,1,2.28-8.26c1.79-2.93,4.07-4.39,6.88-4.39A7.44,7.44,0,0,1,44,7.32a6.83,6.83,0,0,1,4.69,3.39h0a11.16,11.16,0,0,1,1.4,5.77A15.71,15.71,0,0,1,47.8,24.76Zm20.6-8.28a15.71,15.71,0,0,1-2.28,8.28c-1.76,2.93-4,4.39-6.88,4.39A8.19,8.19,0,0,1,57.66,29,6.74,6.74,0,0,1,53,25.58a11.29,11.29,0,0,1-1.41-5.79,15.46,15.46,0,0,1,2.29-8.26c1.78-2.93,4.06-4.39,6.87-4.39a7.44,7.44,0,0,1,1.58.18A6.77,6.77,0,0,1,67,10.71,10.87,10.87,0,0,1,68.4,16.48Z"/></g></g></svg>