<svg xmlns="http://www.w3.org/2000/svg" viewBox="0 0 72 72"><defs><style>.cls-1{fill:#00749a;}</style></defs><g id="Layer_2" data-name="Layer 2"><g id="Layer_1-2" data-name="Layer 1"><path class="cls-1" d="M5.12,36a30.88,30.88,0,0,0,17.4,27.79L7.79,23.43A30.58,30.58,0,0,0,5.12,36Zm51.73-1.56a16.23,16.23,0,0,0-2.55-8.52c-1.57-2.54-3-4.7-3-7.24a5.34,5.34,0,0,1,5.18-5.48l.4,0A30.88,30.88,0,0,0,10.2,19l2,0c3.23,0,8.23-.39,8.23-.39a1.28,1.28,0,0,1,.2,2.55s-1.67.19-3.53.29L28.32,55,35.08,34.7,30.27,21.52c-1.66-.1-3.24-.3-3.24-.3a1.27,1.27,0,0,1,.2-2.54s5.1.39,8.13.39c3.23,0,8.23-.39,8.23-.39a1.27,1.27,0,0,1,.2,2.54s-1.68.2-3.53.3l11.16,33.2,3.08-10.3c1.33-4.27,2.35-7.34,2.35-10Z"/><path class="cls-1" d="M36.54,38.7,27.28,65.62a30.85,30.85,0,0,0,19-.49,2.78,2.78,0,0,1-.22-.42ZM63.1,21.18a24.32,24.32,0,0,1,.2,3.18A29.18,29.18,0,0,1,61,35.42L51.52,62.69A30.89,30.89,0,0,0,63.1,21.18Z"/><path class="cls-1" d="M36,0A36,36,0,1,0,72,36,36,36,0,0,0,36,0Zm0,70.35A34.35,34.35,0,1,1,70.35,36,34.39,34.39,0,0,1,36,70.35Z"/></g></g></svg>