<svg xmlns="http://www.w3.org/2000/svg" xmlns:xlink="http://www.w3.org/1999/xlink" viewBox="0 0 72 70"><defs><style>.cls-1{fill:url(#radial-gradient);}.cls-2{fill:#ff2bc2;}</style><radialGradient id="radial-gradient" cx="36" cy="50.87" r="36.01" gradientTransform="translate(0 -14.42) scale(1 0.97)" gradientUnits="userSpaceOnUse"><stop offset="0" stop-color="#2e001e" stop-opacity="0.98"/><stop offset="1" stop-color="#1c0a00"/></radialGradient></defs><g id="Layer_2" data-name="Layer 2"><g id="Layer_1-2" data-name="Layer 1"><path class="cls-1" d="M9.06,0H63s9,.06,9,8.84V61.25C72,70,63,70,63,70H9s-9,0-9-8.74V8.83C0,.06,9.06,0,9.06,0Z"/><path class="cls-2" d="M52.63,31.16A4,4,0,0,0,51,30.87c-3.64,0-6.06,2.8-6.06,7.45,0,5.3,2.48,7.44,5.71,7.44a5.4,5.4,0,0,0,2-.32V31.16ZM39.71,38.55c0-6.73,4.32-12,11.42-12a12.21,12.21,0,0,1,1.5.06v-7.5a.29.29,0,0,1,.29-.29h4.65c.23,0,.29.09.29.23V45.44A21.22,21.22,0,0,0,58,48.27c0,.2,0,.23-.17.32a17.29,17.29,0,0,1-7.39,1.67c-6.26,0-10.73-3.87-10.73-11.71Zm-9.84-4.68L38,49.54c.14.23,0,.46-.18.46h-5a.55.55,0,0,1-.6-.37q-2.77-5.72-5.66-11.86h-.06C24.7,41.63,22.8,45.85,21,49.66a.55.55,0,0,1-.52.31H15.64c-.29,0-.32-.23-.17-.4l7.9-15.21L15.73,19.24a.25.25,0,0,1,.2-.43h5c.29,0,.44.06.52.32,1.82,3.83,3.67,7.61,5.4,11.48h.06c1.67-3.81,3.52-7.65,5.28-11.43.14-.23.23-.37.52-.37h4.64c.23,0,.32.17.17.43L29.87,33.87Z"/></g></g></svg>