<svg xmlns="http://www.w3.org/2000/svg" viewBox="0 0 319.48 196.74">
  <defs>
    <style>
      .cls-1 {
        fill: #414042;
      }
    </style>
  </defs>
  <g id="Layer_2" data-name="Layer 2">
    <g id="Object">
      <path class="cls-1"
        d="M318.14,177.49H304.43V9.86A9.86,9.86,0,0,0,294.58,0H24.91a9.87,9.87,0,0,0-9.86,9.86V177.49H1.34A1.34,1.34,0,0,0,0,178.83v6.07c0,3.14,1.68,6.15,4.7,8.48A15.91,15.91,0,0,0,14,196.74h291.4a16,16,0,0,0,9.35-3.36c3-2.33,4.69-5.34,4.69-8.48v-6.07A1.34,1.34,0,0,0,318.14,177.49ZM24.91,2.69H294.58a7.17,7.17,0,0,1,7.16,7.17V177.49h-284V9.86a7.17,7.17,0,0,1,7.17-7.17ZM16.39,180.18h300.4v3.38H2.69v-3.38Zm300.25,6.07a9.31,9.31,0,0,1-3.59,5.05,13.09,13.09,0,0,1-7.61,2.75H14a13.14,13.14,0,0,1-7.61-2.75,9.36,9.36,0,0,1-3.59-5.05Z" />
      <path class="cls-1"
        d="M31.07,167.69H288.41a1.36,1.36,0,0,0,1.35-1.35V17.4a1.35,1.35,0,0,0-1.35-1.34H31.07a1.34,1.34,0,0,0-1.34,1.34V166.34A1.35,1.35,0,0,0,31.07,167.69ZM32.41,165V18.74H287.07V165Z" />
      <rect class="cls-1" x="32.41" y="18.74" width="255.61" height="146.25" />
    </g>
  </g>
</svg>